<svg width="33" height="33" viewBox="0 0 33 33" fill="none" xmlns="http://www.w3.org/2000/svg">
<g clip-path="url(#clip0_161_3233)">
<path d="M2.80371 0.12244C1.48242 0.509159 0.438281 1.57264 0.0966797 2.88103C0.0128906 3.2033 0 4.69217 0 13.9992V24.7435L0.161133 25.2527C0.528516 26.4258 1.48887 27.3861 2.70703 27.7986L3.12598 27.9404L9.17168 27.9597L15.2109 27.9791V29.1972V30.4219H13.1549C11.8529 30.4219 11.0279 30.4476 10.9119 30.4927C10.4736 30.6539 10.1191 31.2017 10.1191 31.7109C10.1191 32.2201 10.4736 32.7679 10.9119 32.9291C11.1633 33.0258 21.8367 33.0258 22.0881 32.9291C22.5264 32.7679 22.8809 32.2201 22.8809 31.7109C22.8809 31.2017 22.5264 30.6539 22.0881 30.4927C21.9721 30.4476 21.1471 30.4219 19.8451 30.4219H17.7891V29.1972V27.9791L23.8348 27.9597L29.874 27.9404L30.293 27.7986C31.4467 27.4054 32.4006 26.4902 32.8195 25.3752L32.9678 24.9756L32.9871 14.1281C33.0064 2.07537 33.0322 2.96482 32.5682 2.0367C32.2588 1.41795 31.582 0.741192 30.9633 0.431816C30.0352 -0.0322456 31.1889 -1.90735e-05 16.4613 0.00642776C4.01543 0.00642776 3.16465 0.0193176 2.80371 0.12244ZM29.6807 2.74568C29.9771 2.90682 30.0996 3.03572 30.2672 3.35154C30.3832 3.57068 30.3897 3.91228 30.409 11.9045L30.4219 20.2383H16.5H2.57813L2.59102 11.9045C2.61035 3.91228 2.6168 3.57068 2.73281 3.35154C2.9584 2.92615 3.21621 2.73279 3.67383 2.63611C3.79629 2.61033 9.64219 2.59744 16.6611 2.60389L29.4229 2.61033L29.6807 2.74568ZM30.409 23.6092C30.3703 24.4277 30.2801 24.6984 29.932 25.0013C29.816 25.1109 29.6098 25.2269 29.4744 25.2592C29.1328 25.3558 3.86719 25.3558 3.52559 25.2592C3.39023 25.2269 3.18398 25.1109 3.06797 25.0013C2.71992 24.6984 2.62969 24.4277 2.59102 23.6092L2.55879 22.8808H16.5H30.4412L30.409 23.6092Z" fill="#A59DD2"/>
<path d="M12.8326 17.1896C13.0711 17.5893 13.4449 17.7891 13.9541 17.7891C14.4697 17.7891 14.8436 17.5893 15.082 17.1832L15.2432 16.9061L15.2432 8.89453L15.2432 6.88301L15.082 6.60586C14.8436 6.19981 14.4697 6 13.9541 6C13.4385 6 13.0646 6.19981 12.8262 6.60586L12.665 6.88301L12.665 8.90098L12.665 16.9189L12.8326 17.1896Z" fill="#A59DD2"/>
<path d="M17.7568 16.9061C17.918 17.4281 18.4271 17.7891 19.0072 17.7891C19.6002 17.7891 19.974 17.557 20.2125 17.0479C20.3285 16.8029 20.335 16.442 20.335 8.89453C20.335 7.34707 20.3285 6.98613 20.2125 6.74121C20.0707 6.43828 19.8 6.16758 19.5422 6.0709C19.4391 6.03223 19.1941 6 18.9943 6C18.5367 6 18.1951 6.18691 17.918 6.56719L17.7246 6.85078L17.7117 8.78496C17.7053 13.1549 17.7246 16.8094 17.7568 16.9061Z" fill="#A59DD2"/>
</g>
<defs>
<clipPath id="clip0_161_3233">
<rect width="33" height="33" fill="white"/>
</clipPath>
</defs>
</svg>
