<svg width="44" height="45" viewBox="0 0 44 45" fill="none" xmlns="http://www.w3.org/2000/svg">
<path d="M0.6875 6.39843C0.524219 6.47753 0.300781 6.67968 0.197656 6.84667L0 7.1455V20.3467V33.5478L0.197656 33.8467C0.584375 34.4355 0.661719 34.4531 3.80703 34.4531C5.35391 34.4531 6.61719 34.4707 6.61719 34.4883C6.61719 34.5058 6.29922 35.0683 5.9125 35.7363C5.26797 36.8437 5.20781 37.0019 5.20781 37.415C5.20781 37.9336 5.37109 38.2324 5.85234 38.5664C6.09297 38.7422 6.22188 38.7685 6.6 38.7422C6.86641 38.7158 7.15 38.6279 7.2875 38.5224C7.41641 38.4258 8.01797 37.4853 8.63672 36.4043L9.75391 34.4531H22H34.2461L35.3633 36.4043C35.982 37.4853 36.5836 38.4258 36.7125 38.5224C36.85 38.6279 37.1336 38.7158 37.4 38.7422C37.7781 38.7685 37.907 38.7422 38.1477 38.5664C38.6289 38.2324 38.7922 37.9336 38.7922 37.415C38.7922 37.0019 38.7234 36.8349 38.0875 35.7275L37.3828 34.4971L40.2875 34.4531C43.5016 34.4004 43.4758 34.4092 43.8281 33.8115C44 33.5391 44 33.2578 44 20.3379V7.1455L43.8023 6.84667C43.6992 6.67968 43.4758 6.47753 43.3125 6.39843C43.0289 6.24901 41.8344 6.24022 22 6.24022C2.16563 6.24022 0.971094 6.24901 0.6875 6.39843ZM41.4219 20.3467V31.7285H22H2.57812V20.3467V8.96483H22H41.4219V20.3467Z" fill="#A59DD2"/>
<path d="M12.0829 14.168C11.404 14.5811 11.4298 14.3086 11.4298 20.3291C11.4298 25.084 11.447 25.7168 11.5673 25.9805C12.0142 26.9385 13.4665 26.9385 13.9134 25.9805C14.0767 25.6377 14.0939 25.4531 14.0939 23.5723V21.5332H16.1564H18.2189V23.5986C18.2189 25.9014 18.2533 26.1035 18.7431 26.4639C18.9665 26.6309 19.147 26.6748 19.5251 26.6748C20.0493 26.6748 20.3329 26.5254 20.6595 26.0684C20.84 25.8311 20.84 25.7432 20.84 20.3467C20.84 14.9502 20.84 14.8623 20.6595 14.625C20.3329 14.168 20.0493 14.0186 19.5251 14.0186C19.147 14.0186 18.9665 14.0625 18.7431 14.2295C18.2618 14.5811 18.2189 14.8008 18.2189 16.9189V18.8086H16.165H14.1025L14.0767 16.8398C14.0509 15.0029 14.0423 14.8447 13.8704 14.625C13.415 13.9922 12.6845 13.8076 12.0829 14.168Z" fill="#A59DD2"/>
<path d="M24.0625 14.3086C23.8734 14.4141 23.6844 14.6162 23.5641 14.8623L23.375 15.249L23.3922 20.4346L23.418 25.6201L23.6156 25.9365C23.9508 26.499 24.1484 26.543 26.2281 26.543C27.5945 26.543 28.1961 26.5078 28.5742 26.4111C31.032 25.7695 32.5617 23.4229 32.5617 20.3027C32.5617 18.2549 31.9516 16.5762 30.7828 15.46C29.6484 14.3701 28.9008 14.1504 26.2539 14.1504C24.5867 14.1504 24.3289 14.168 24.0625 14.3086ZM28.4023 17.0859C29.4336 17.5693 29.9922 18.9492 29.8805 20.7334C29.8117 22.0254 29.3305 22.9834 28.4883 23.5107C28.1016 23.7568 28.007 23.7744 27.0531 23.8096L26.0391 23.8359V20.3555V16.875H27.0102C27.8352 16.875 28.0328 16.9014 28.4023 17.0859Z" fill="#A59DD2"/>
</svg>
