<svg width="32" height="31" viewBox="0 0 32 31" fill="none" xmlns="http://www.w3.org/2000/svg">
<g clip-path="url(#clip0_161_3221)">
<path d="M0.58125 0.157423C0.43125 0.242188 0.24375 0.423828 0.15625 0.569141L0 0.829493V12.4121V23.9947L0.15625 24.2551C0.24375 24.3943 0.41875 24.576 0.54375 24.6547L0.78125 24.7939L5.66875 24.8242L10.5563 24.8545L9.11875 26.8828C8.325 27.9969 7.60625 29.0262 7.525 29.1654C7.1875 29.7104 7.38125 30.4914 7.925 30.8244L8.2125 31H16H23.7875L24.075 30.8244C24.45 30.5943 24.625 30.2492 24.625 29.7406V29.3652L23.85 28.2572C23.425 27.6518 22.7125 26.6346 22.2625 26.0049L21.4438 24.8545L26.3313 24.8242L31.2188 24.7939L31.4563 24.6547C31.5813 24.576 31.7563 24.3943 31.8438 24.2551L32 23.9947V12.4121V0.829493L31.8438 0.569141C31.75 0.41172 31.575 0.242188 31.4125 0.151367L31.1438 0H15.9938H0.84375L0.58125 0.157423ZM29.5 12.4121V22.4023H16H2.5V12.4121V2.42188H16H29.5V12.4121ZM19.6125 26.683L20.9312 28.5479L18.4625 28.566C17.1125 28.5721 14.8938 28.5721 13.5375 28.566L11.0688 28.5479L12.3875 26.683L13.7063 24.8242H16H18.2938L19.6125 26.683Z" fill="#A59DD2"/>
<path d="M12.5001 4.36544C12.3376 4.41388 11.7563 4.94064 10.1751 6.46642L8.06259 8.50079L7.20009 7.67736C6.48134 6.99318 6.28759 6.84181 6.06259 6.78126C5.48134 6.6299 4.86884 6.87208 4.58134 7.35646C4.42509 7.62286 4.38759 8.15568 4.50009 8.45841C4.60009 8.70665 7.22509 11.2496 7.53134 11.3889C7.85009 11.5342 8.27509 11.5342 8.59384 11.3889C8.90009 11.2496 14.0251 6.29083 14.1251 6.03654C14.2376 5.7338 14.2001 5.20099 14.0438 4.93458C13.7563 4.44415 13.0876 4.19591 12.5001 4.36544Z" fill="#A59DD2"/>
<path d="M17.1687 6.7207C16.6625 6.87207 16.3125 7.35039 16.3125 7.89531C16.3125 8.45234 16.5375 8.80352 17.0312 9.02754C17.2688 9.13652 17.5375 9.14258 21.9375 9.14258C26.3375 9.14258 26.6062 9.13652 26.8438 9.02754C27.1375 8.89434 27.4 8.64004 27.4938 8.39785C27.5312 8.30098 27.5625 8.0709 27.5625 7.8832C27.5625 7.45332 27.3813 7.13242 27.0125 6.87207L26.7375 6.69043L22.0438 6.67832C19.4562 6.67227 17.2625 6.69043 17.1687 6.7207Z" fill="#A59DD2"/>
<path d="M12.4377 13.4172C12.3002 13.4717 11.4189 14.277 10.1439 15.5182L8.06267 17.5283L7.23767 16.7291C6.73767 16.2508 6.31267 15.8936 6.17517 15.833C5.55017 15.5848 4.73142 15.9057 4.50642 16.4869C4.39392 16.7654 4.42517 17.2922 4.55642 17.5465C4.62517 17.6676 5.29392 18.3578 6.04392 19.0783C7.44392 20.4285 7.58142 20.5254 8.06267 20.5254C8.58142 20.5254 8.60017 20.5072 11.3314 17.8734C12.7689 16.4809 14.0002 15.2457 14.0689 15.1246C14.2002 14.8703 14.2314 14.3436 14.1189 14.065C13.8939 13.4838 13.0564 13.1568 12.4377 13.4172Z" fill="#A59DD2"/>
<path d="M17.0312 15.7967C16.7375 15.9299 16.475 16.1842 16.3813 16.4264C16.3438 16.5232 16.3125 16.7533 16.3125 16.941C16.3125 17.3709 16.4938 17.6918 16.8625 17.9521L17.1375 18.1338L21.7688 18.1519C25.1313 18.1641 26.475 18.1519 26.6562 18.1035C27.225 17.94 27.5625 17.5041 27.5625 16.9289C27.5625 16.3719 27.3375 16.0207 26.8438 15.7967C26.6062 15.6877 26.3375 15.6816 21.9375 15.6816C17.5375 15.6816 17.2688 15.6877 17.0312 15.7967Z" fill="#A59DD2"/>
</g>
<defs>
<clipPath id="clip0_161_3221">
<rect width="32" height="31" fill="white"/>
</clipPath>
</defs>
</svg>
