<svg width="39" height="39" viewBox="0 0 39 39" fill="none" xmlns="http://www.w3.org/2000/svg">
<g clip-path="url(#clip0_161_3246)">
<path d="M0.502961 0.906464C0.388703 0.982635 0.221125 1.15022 0.144953 1.26447C0.0078436 1.47775 0.000226411 1.86623 0.000226411 13.7338C0.000226411 27.1934 -0.0378595 26.1879 0.442023 26.5459C0.647687 26.6983 0.784797 26.6983 8.35628 26.7211L16.0725 26.7363V27.8408V28.9377L11.4489 28.9606L6.81761 28.9834L6.54339 29.1586C6.16253 29.3947 5.99495 29.768 6.03304 30.2936C6.06351 30.644 6.10921 30.7506 6.35296 30.9867L6.62718 31.2686L14.8157 31.2914L22.9965 31.3067L23.0194 33.5385C23.0422 35.6408 23.0498 35.7856 23.2098 36.1817C23.5602 37.0272 24.2914 37.7584 25.1369 38.1088C25.5559 38.2764 25.5711 38.2764 30.8117 38.2992C36.7075 38.3221 36.616 38.3297 37.4616 37.7813C38.01 37.4309 38.4061 36.9739 38.7184 36.334L38.9621 35.8389V26.2412V16.6436L38.7032 16.1104C38.3604 15.4172 37.7586 14.8078 37.0578 14.4651C36.5475 14.2137 36.4866 14.2061 35.5192 14.1832L34.5137 14.1528L34.4908 7.86096C34.468 1.71389 34.468 1.55392 34.3157 1.31018C34.2319 1.17307 34.0567 0.990253 33.9272 0.906464C33.691 0.761738 33.3559 0.761738 17.2075 0.761738C1.18851 0.761738 0.716242 0.769356 0.502961 0.906464ZM32.1448 8.60744V14.1604L28.816 14.1832L25.4797 14.2061L24.9465 14.4651C24.2457 14.8078 23.644 15.4096 23.3012 16.1104L23.0422 16.6436L23.0194 20.5055L22.9965 24.375H12.6448H2.28538V13.711V3.04689H17.2151H32.1448V8.60744ZM36.1057 16.6436C36.2504 16.735 36.4332 16.9178 36.5246 17.0625C36.677 17.3291 36.677 17.4129 36.677 26.2412V35.1533L36.5094 35.4199C36.159 35.9836 36.4637 35.9531 30.9869 35.9531C26.3176 35.9531 26.0815 35.9455 25.8682 35.8084C25.7539 35.7322 25.5864 35.5647 25.5102 35.4504C25.3731 35.2371 25.3655 34.9172 25.3655 26.2412C25.3655 17.6262 25.3731 17.2453 25.5102 17.0397C25.6701 16.7883 25.9063 16.6131 26.1881 16.5293C26.3024 16.4912 28.519 16.4684 31.1164 16.476C35.7172 16.4912 35.8467 16.4988 36.1057 16.6436ZM23.0041 27.8408V28.9453H20.6809H18.3576V27.8408V26.7363H20.6809H23.0041V27.8408Z" fill="#A59DD2"/>
<path d="M5.00449 5.70528L4.68457 6.00997V8.82833V11.6543L4.97402 11.9361L5.25586 12.2256L7.98281 12.2484C11.0297 12.2789 11.0373 12.2713 11.3725 11.7381C11.54 11.4715 11.54 11.4182 11.54 8.83595C11.54 6.26896 11.54 6.2004 11.3725 5.94142C11.0373 5.4006 11.0678 5.40821 8.04375 5.40821H5.32441L5.00449 5.70528ZM9.2168 8.83595V9.97853H8.1123H7.00781V8.83595V7.69337H8.1123H9.2168V8.83595Z" fill="#A59DD2"/>
<path d="M14.2674 5.56817C13.7875 5.87286 13.7799 5.94903 13.8027 8.95021L13.8256 11.6543L14.115 11.9361L14.3969 12.2256L17.1238 12.2484C20.1707 12.2789 20.1783 12.2713 20.5135 11.7381C20.6811 11.4715 20.6811 11.4182 20.6811 8.83595C20.6811 6.26896 20.6811 6.2004 20.5135 5.94142C20.1783 5.4006 20.2088 5.40821 17.2 5.40821C14.633 5.40821 14.5035 5.41583 14.2674 5.56817ZM18.3578 8.83595V9.97853H17.2533H16.1488V8.83595V7.69337H17.2533H18.3578V8.83595Z" fill="#A59DD2"/>
<path d="M23.4305 5.55293C23.3162 5.6291 23.1486 5.79668 23.0725 5.91094C22.9354 6.1166 22.9277 6.31465 22.9277 8.86641V11.601L23.2629 11.9285L23.5904 12.2637H26.3174C28.8768 12.2637 29.0596 12.2561 29.2805 12.1189C29.41 12.0352 29.5852 11.8523 29.6689 11.7152C29.8137 11.4791 29.8213 11.3268 29.8213 8.83594C29.8213 6.26894 29.8213 6.20039 29.6537 5.94141C29.3186 5.40059 29.349 5.4082 26.3402 5.4082C23.8342 5.4082 23.6361 5.41582 23.4305 5.55293ZM27.498 8.83594V9.97852H26.3936H25.2891V8.83594V7.69336H26.3936H27.498V8.83594Z" fill="#A59DD2"/>
<path d="M5.12676 14.7088C4.64688 15.0135 4.63926 15.0897 4.66212 18.0908L4.68497 20.7949L4.97442 21.0768L5.25626 21.3662L7.98321 21.3891C11.0301 21.4195 11.0377 21.4119 11.3729 20.8787C11.5404 20.6121 11.5404 20.5588 11.5404 17.9766C11.5404 15.4096 11.5404 15.341 11.3729 15.082C11.0377 14.5412 11.0682 14.5488 8.05938 14.5488C5.49239 14.5488 5.3629 14.5565 5.12676 14.7088ZM9.21719 17.9385V19.043H8.1127H7.00821V17.9385V16.834H8.1127H9.21719V17.9385Z" fill="#A59DD2"/>
<path d="M28.4426 18.7383C27.8789 18.8678 27.5742 19.2715 27.5742 19.9037C27.5742 20.3074 27.5971 20.3684 27.8637 20.6578C28.1303 20.9397 28.2064 20.9777 28.5797 21.0082C29.3643 21.0691 29.8746 20.6273 29.8746 19.8809C29.8746 19.1039 29.2043 18.5631 28.4426 18.7383Z" fill="#A59DD2"/>
<path d="M33.0207 18.7383C31.9848 18.9592 31.7715 20.4065 32.7008 20.9092C32.8912 21.0082 33.0664 21.0387 33.394 21.0082C33.7748 20.9778 33.8662 20.932 34.11 20.6883C34.3766 20.4217 34.3918 20.3912 34.3918 19.8961C34.3918 19.3629 34.27 19.0963 33.9348 18.883C33.7215 18.7535 33.295 18.685 33.0207 18.7383Z" fill="#A59DD2"/>
<path d="M28.4426 23.3086C27.8789 23.4381 27.5742 23.8418 27.5742 24.474C27.5742 24.8777 27.5971 24.9387 27.8713 25.2357C28.1684 25.548 28.1836 25.5557 28.6939 25.5557C29.2652 25.5557 29.509 25.4338 29.7451 25.0377C29.9203 24.7406 29.9127 24.1541 29.7375 23.8418C29.4861 23.4229 28.9377 23.1943 28.4426 23.3086Z" fill="#A59DD2"/>
<path d="M33.0207 23.3086C31.9848 23.5447 31.7715 24.9768 32.7008 25.4795C32.8912 25.5785 33.0664 25.609 33.394 25.5785C33.7748 25.5481 33.8662 25.5024 34.11 25.2586C34.3766 24.992 34.3918 24.9615 34.3918 24.4664C34.3918 24.0779 34.3537 23.9104 34.2395 23.7504C33.9577 23.3772 33.4778 23.202 33.0207 23.3086Z" fill="#A59DD2"/>
<path d="M30.728 27.8789C30.1339 28.0084 29.8597 28.4045 29.8597 29.1129V29.6309H29.4026C28.8085 29.6309 28.4276 29.8213 28.1991 30.225C27.9935 30.5982 27.9858 30.9334 28.1915 31.3523C28.3896 31.7713 28.8161 31.9922 29.4255 31.9922H29.8597V32.5254C29.8597 33.0434 29.8673 33.0738 30.1567 33.3861C30.4538 33.6984 30.469 33.7061 30.9794 33.7061C31.7868 33.7061 32.0991 33.3938 32.1905 32.5025L32.2439 31.9922H32.6247C33.6606 31.9922 34.2624 31.1086 33.8206 30.2402C33.6226 29.8441 33.2036 29.6309 32.6552 29.6309H32.2439L32.1981 29.1357C32.1677 28.8615 32.0915 28.534 32.0153 28.4045C31.7716 27.9932 31.2231 27.7646 30.728 27.8789Z" fill="#A59DD2"/>
</g>
<defs>
<clipPath id="clip0_161_3246">
<rect width="39" height="39" fill="white"/>
</clipPath>
</defs>
</svg>
