<svg width="37" height="37" viewBox="0 0 37 37" fill="none" xmlns="http://www.w3.org/2000/svg">
<g clip-path="url(#clip0_161_3238)">
<path d="M13.557 0.137302C13.2246 0.354099 13.0801 0.643162 13.0801 1.06953C13.0801 1.2791 13.1162 1.5248 13.1596 1.60429C13.2102 1.69101 13.8244 2.36308 14.5398 3.10019L15.8334 4.44433L8.22383 4.48046C-0.173438 4.52383 0.455273 4.48046 0.137305 4.96465C0.00722656 5.15976 0 5.65117 0 18.5723C0 31.5801 0.00722656 31.9848 0.137305 32.1871C0.20957 32.2955 0.368555 32.4545 0.476953 32.5268C0.679297 32.6568 0.953906 32.6641 7.9709 32.6641H15.248V33.748V34.832H13.427C11.7576 34.832 11.5842 34.8465 11.3891 34.9693C11.0566 35.1934 10.9121 35.468 10.9121 35.916C10.9121 36.3641 11.0566 36.6387 11.3891 36.8627C11.5914 36.9928 11.8588 37 18.5 37C25.1412 37 25.4086 36.9928 25.6109 36.8627C25.9434 36.6387 26.0879 36.3641 26.0879 35.916C26.0879 35.468 25.9434 35.1934 25.6109 34.9693C25.4158 34.8465 25.2424 34.832 23.5803 34.832H21.752V33.748V32.6641H29.0363C36.0461 32.6641 36.3207 32.6568 36.523 32.5268C36.6314 32.4545 36.7904 32.2955 36.8627 32.1871C36.9928 31.9848 37 31.5801 37 18.5723C37 5.65117 36.9928 5.15976 36.8627 4.96465C36.5447 4.48046 37.1734 4.52383 28.7762 4.48046L21.1666 4.44433L22.4602 3.10019C23.1756 2.36308 23.7898 1.69101 23.8404 1.60429C23.8838 1.5248 23.9199 1.2791 23.9199 1.06953C23.9199 0.643162 23.7754 0.354099 23.443 0.137302C23.1684 -0.0433617 22.5107 -0.0505905 22.2506 0.130074C22.1494 0.195114 21.275 1.0623 20.3211 2.05957C19.36 3.04961 18.5361 3.86621 18.5 3.86621C18.4566 3.86621 17.64 3.04961 16.6861 2.05957C15.725 1.0623 14.8578 0.195114 14.7494 0.130074C14.4893 -0.0505905 13.8316 -0.0433617 13.557 0.137302ZM34.832 16.4043V26.1602H18.5H2.16797V16.4043V6.64844H18.5H34.832V16.4043ZM34.832 29.4121V30.4961H18.5H2.16797V29.4121V28.3281H18.5H34.832V29.4121ZM19.584 33.748V34.832H18.5H17.416V33.748V32.6641H18.5H19.584V33.748Z" fill="#A59DD2"/>
<path d="M7.05312 8.95373C6.71348 9.17775 6.57617 9.45236 6.57617 9.90764C6.57617 10.2401 6.6123 10.3629 6.78574 10.5942C7.03145 10.9194 8.98262 12.8561 9.25 13.0367C9.50293 13.2029 10.1678 13.1885 10.4352 13.0151C10.7748 12.791 10.9121 12.5164 10.9121 12.0612C10.9121 11.7287 10.876 11.6059 10.7025 11.3746C10.4568 11.0494 8.50566 9.11271 8.23828 8.93205C7.98535 8.76584 7.32051 8.78029 7.05312 8.95373Z" fill="#A59DD2"/>
<path d="M17.8566 8.97538C17.6543 9.10546 17.4736 9.4162 16.7221 10.941L15.8404 12.7549L13.8965 13.0295C11.8947 13.3185 11.6635 13.3836 11.4033 13.7377C11.2443 13.9545 11.1576 14.4242 11.2299 14.7205C11.266 14.8506 11.8008 15.4432 12.7402 16.3826L14.1928 17.8424L13.882 19.6635C13.5351 21.6724 13.5279 22.0699 13.8097 22.3734C14.0988 22.6842 14.3662 22.7853 14.7709 22.742C15.0672 22.7131 15.4791 22.5324 16.8015 21.8314C17.7121 21.3545 18.4781 20.957 18.507 20.957C18.5287 20.957 19.2947 21.3545 20.2053 21.8314C21.6217 22.583 21.9179 22.7131 22.2576 22.742C22.7201 22.7781 23.0381 22.6191 23.2693 22.2433C23.4717 21.9109 23.4572 21.658 23.1103 19.6346L22.8068 17.8424L24.2594 16.3826C25.1988 15.4432 25.7336 14.8506 25.7697 14.7205C25.842 14.4242 25.7553 13.9545 25.5963 13.7377C25.3289 13.3764 25.1049 13.3185 23.1031 13.0295L21.1664 12.7549L20.2775 10.941C19.5043 9.38007 19.3453 9.10546 19.1285 8.96815C18.7888 8.75858 18.1963 8.75858 17.8566 8.97538ZM19.0201 13.5064C19.3742 14.2435 19.5621 14.5543 19.7283 14.6699C19.9017 14.7928 20.2197 14.8723 21.0869 15.0023C21.7156 15.0963 22.2287 15.1758 22.2359 15.1758C22.2431 15.1758 21.8963 15.5226 21.4627 15.9418C20.3859 16.9969 20.3787 17.0113 20.6244 18.406C20.7256 18.9986 20.8123 19.5045 20.8123 19.5406C20.8123 19.5695 20.3787 19.3672 19.8439 19.0853C18.5359 18.3916 18.4709 18.3916 17.1629 19.0853C16.6281 19.3672 16.1873 19.5695 16.1873 19.5406C16.1873 19.5045 16.274 18.9986 16.3752 18.406C16.6209 17.0113 16.6137 16.9969 15.5369 15.9418C15.1033 15.5226 14.7564 15.1758 14.7637 15.1758C14.7709 15.1758 15.284 15.0963 15.9127 15.0023C16.7799 14.8723 17.0978 14.7928 17.2713 14.6699C17.4375 14.5543 17.6254 14.2435 17.9795 13.5064C18.2396 12.9572 18.4781 12.5019 18.4998 12.5019C18.5215 12.5019 18.7599 12.9572 19.0201 13.5064Z" fill="#A59DD2"/>
<path d="M28.6464 9.02598C28.3212 9.27168 26.3845 11.2229 26.2038 11.4902C26.0376 11.7432 26.052 12.408 26.2255 12.6754C26.4495 13.0078 26.7241 13.1523 27.1722 13.1523C27.4251 13.1523 27.6419 13.109 27.7503 13.0367C28.0177 12.8561 29.9688 10.9193 30.2145 10.5941C30.388 10.3629 30.4241 10.24 30.4241 9.90762C30.4241 9.20664 30.0339 8.81641 29.3329 8.81641C29.0005 8.81641 28.8776 8.85254 28.6464 9.02598Z" fill="#A59DD2"/>
<path d="M9.13438 19.8658C8.80918 20.1115 6.87246 22.0627 6.6918 22.3301C6.61953 22.4385 6.57617 22.6553 6.57617 22.9082C6.57617 23.3563 6.7207 23.6309 7.05312 23.8549C7.32051 24.0283 7.98535 24.0428 8.23828 23.8766C8.50566 23.6959 10.4568 21.7592 10.7025 21.434C10.876 21.2028 10.9121 21.0799 10.9121 20.7475C10.9121 20.0465 10.5219 19.6563 9.8209 19.6563C9.48848 19.6563 9.36563 19.6924 9.13438 19.8658Z" fill="#A59DD2"/>
<path d="M26.5648 19.7936C26.2252 20.0176 26.0879 20.2922 26.0879 20.7475C26.0879 21.0799 26.124 21.2028 26.2975 21.434C26.5432 21.7592 28.4943 23.6959 28.7617 23.8766C29.0146 24.0428 29.6795 24.0283 29.9469 23.8549C30.2865 23.6309 30.4238 23.3563 30.4238 22.901C30.4238 22.5686 30.3877 22.4457 30.2143 22.2145C29.9686 21.8893 28.0174 19.9526 27.75 19.7719C27.4971 19.6057 26.8322 19.6201 26.5648 19.7936Z" fill="#A59DD2"/>
</g>
<defs>
<clipPath id="clip0_161_3238">
<rect width="37" height="37" fill="white"/>
</clipPath>
</defs>
</svg>
