<svg width="647" height="423" viewBox="0 0 647 423" fill="none" xmlns="http://www.w3.org/2000/svg">
<g clip-path="url(#clip0_18_690)">
<path d="M25.3834 274.919C-6.63495 209.354 76.9243 182.358 119.874 212.512C162.824 242.667 184.69 244.872 176.101 213.984C155.167 138.707 178.444 59.5341 292.457 14.6686C406.473 -30.1946 500.687 36.9677 518.256 93.7791C535.825 150.59 543.439 166.586 556.324 157.763C604.786 124.569 668.184 121.91 640.072 230.572C611.961 339.233 546.376 404.872 546.376 404.872C546.376 404.872 80.8292 403.001 64.4307 400.059C48.0321 397.118 26.9476 388.293 4.30117 336.807C-18.3476 285.324 57.4018 340.484 25.3834 274.919Z" fill="#C0CEED"/>
<path d="M323.836 423C485.75 423 617.007 414.884 617.007 404.872C617.007 394.861 485.75 386.745 323.836 386.745C161.923 386.745 30.6657 394.861 30.6657 404.872C30.6657 414.884 161.923 423 323.836 423Z" fill="#A1B5E5"/>
<path d="M354.252 209.275H347.435L347.1 212.126C345.063 214.046 343.789 216.775 343.789 219.801C343.789 222.802 345.047 225.511 347.057 227.43L347.608 230.318H354.473V230.314C360.158 230.195 364.732 225.532 364.732 219.803C364.732 213.997 360.039 209.275 354.252 209.275Z" fill="#E2410F"/>
<path d="M354.252 188.252C344.966 188.252 336.195 192.358 330.19 199.528C329.967 199.796 329.776 200.079 329.612 200.373L325.781 200.088L327.604 208.161H334.113V208.156C334.142 208.156 334.172 208.161 334.199 208.161C335.7 208.161 337.181 207.525 338.223 206.294C342.218 201.501 348.065 198.758 354.25 198.758C358.941 198.758 363.431 200.332 367.07 203.179L368.195 208.161H374.306C375.506 208.161 376.699 207.766 377.671 206.928C379.888 205.059 380.178 201.739 378.317 199.528C372.319 192.358 363.548 188.252 354.252 188.252Z" fill="#E2410F"/>
<path d="M410.4 172.496C396.376 155.766 375.915 146.161 354.252 146.161C332.594 146.161 312.135 155.766 298.113 172.496C297.888 172.768 297.695 173.056 297.53 173.354L293.711 173.071L295.532 181.145H302.043V181.14C302.068 181.14 302.093 181.145 302.12 181.145C303.621 181.145 305.102 180.511 306.13 179.255C318.153 164.908 335.702 156.675 354.255 156.675C370.937 156.675 386.775 163.318 398.537 175.077L399.694 181.145H406.558V181.138C407.702 181.102 408.832 180.691 409.752 179.907C411.969 178.042 412.266 174.725 410.4 172.496Z" fill="#E2410F"/>
<path d="M354.252 167.204C338.788 167.204 324.174 174.057 314.163 186.006C313.933 186.277 313.738 186.565 313.573 186.866L309.747 186.581L311.57 194.654H318.079V194.652C318.111 194.652 318.142 194.654 318.174 194.654C319.655 194.654 321.136 194.018 322.178 192.785C330.192 183.211 341.876 177.714 354.255 177.714C364.772 177.714 374.779 181.677 382.467 188.733L383.597 194.652H390.461V194.647C391.614 194.622 392.764 194.209 393.718 193.418C395.94 191.552 396.21 188.236 394.36 186.003C384.342 174.057 369.721 167.204 354.252 167.204Z" fill="#E2410F"/>
<path d="M347.433 209.275C341.655 209.275 336.967 213.995 336.967 219.801C336.967 225.603 341.653 230.318 347.433 230.318C353.219 230.318 357.912 225.603 357.912 219.801C357.912 213.997 353.219 209.275 347.433 209.275Z" fill="#FF550D"/>
<path d="M347.433 188.252C338.146 188.252 329.378 192.358 323.371 199.528C321.516 201.741 321.802 205.061 324.023 206.928C324.998 207.766 326.191 208.161 327.381 208.161C328.883 208.161 330.364 207.525 331.406 206.294C335.401 201.501 341.248 198.758 347.433 198.758C353.627 198.758 359.476 201.501 363.469 206.294C364.507 207.527 365.994 208.161 367.489 208.161C368.688 208.161 369.881 207.766 370.851 206.928C373.068 205.059 373.359 201.739 371.497 199.528C365.499 192.358 356.728 188.252 347.433 188.252Z" fill="#FF550D"/>
<path d="M403.581 172.496C389.555 155.766 369.096 146.161 347.433 146.161C325.774 146.161 305.316 155.766 291.294 172.496C289.437 174.722 289.725 178.042 291.944 179.907C292.914 180.729 294.107 181.145 295.298 181.145C296.799 181.145 298.28 180.511 299.306 179.255C311.329 164.908 328.878 156.675 347.431 156.675C366.008 156.675 383.541 164.908 395.559 179.276C396.586 180.509 398.067 181.145 399.57 181.145C400.767 181.145 401.963 180.729 402.926 179.907C405.15 178.042 405.447 174.725 403.581 172.496Z" fill="#FF550D"/>
<path d="M347.433 167.204C331.968 167.204 317.354 174.057 307.341 186.006C305.46 188.238 305.757 191.554 307.974 193.421C308.964 194.258 310.159 194.654 311.352 194.654C312.833 194.654 314.314 194.018 315.356 192.785C323.368 183.211 335.054 177.714 347.433 177.714C359.821 177.714 371.499 183.209 379.519 192.785C380.556 194.018 382.044 194.654 383.529 194.654C384.718 194.654 385.913 194.238 386.896 193.421C389.118 191.554 389.388 188.238 387.538 186.006C377.522 174.057 362.902 167.204 347.433 167.204Z" fill="#FF550D"/>
<path d="M587.775 252.054L579.99 301.073L575.358 330.23L565.655 391.305C564.782 396.804 558.894 401.294 552.572 401.28L501.974 401.166L491.126 401.141C490.174 401.137 489.265 401.033 488.412 400.838C486.965 400.51 485.67 399.924 484.588 399.135C484.185 398.841 483.811 398.522 483.471 398.178L481.313 395.995L479.868 394.535L478.875 393.535L478.889 393.517L479.947 392.264L480.807 391.244L480.82 391.251L481.18 391.446C481.194 391.332 481.196 391.219 481.218 391.107L490.061 335.293L497 291.524L497.889 285.921L497.937 285.611L498.319 283.201V283.199L503.275 251.926C503.509 250.459 504.101 249.059 504.961 247.801C504.961 247.801 504.961 247.799 504.963 247.799C505.641 246.813 506.48 245.912 507.446 245.126C507.714 244.906 507.993 244.697 508.276 244.502V244.497C508.328 244.463 508.38 244.427 508.432 244.387H508.434C508.49 244.353 508.537 244.317 508.591 244.286C509.145 243.922 509.73 243.594 510.336 243.309C510.54 243.21 510.75 243.12 510.959 243.03C512.073 242.568 513.25 242.24 514.468 242.067H514.47C515.091 241.981 515.719 241.936 516.359 241.936L521.722 241.945H521.724L525.87 241.952H526.705L529.946 241.959H530.711L533.459 241.961H533.466L536.514 241.968L548.636 241.984L553.781 241.993L559.714 242.001H559.824L574.388 242.024L576.904 242.026L577.879 241.55L577.881 241.548L580.733 240.146C580.762 240.171 580.785 240.2 580.809 240.225C580.812 240.229 580.812 240.229 580.816 240.231C580.823 240.243 580.832 240.247 580.839 240.258L585.396 244.861V244.863C587.269 246.692 588.223 249.239 587.775 252.054Z" fill="#3259B3"/>
<path d="M545.575 397.406C545.188 397.406 545.125 397.659 545.437 397.976C545.75 398.293 546.32 398.549 546.707 398.551C547.094 398.551 547.157 398.297 546.844 397.981C546.529 397.664 545.962 397.408 545.575 397.406Z" fill="#002CA7"/>
<path d="M543.371 397.399C542.982 397.397 542.921 397.653 543.236 397.969C543.549 398.286 544.119 398.542 544.503 398.544C544.891 398.547 544.954 398.291 544.639 397.974C544.328 397.659 543.758 397.399 543.371 397.399Z" fill="#002CA7"/>
<path d="M541.168 397.392C540.781 397.39 540.72 397.646 541.033 397.963C541.346 398.279 541.913 398.538 542.302 398.538C542.689 398.54 542.75 398.284 542.437 397.967C542.124 397.65 541.555 397.394 541.168 397.392Z" fill="#002CA7"/>
<path d="M538.964 397.385C538.577 397.385 538.517 397.639 538.829 397.956C539.142 398.273 539.709 398.529 540.099 398.531C540.486 398.533 540.547 398.277 540.234 397.96C539.921 397.644 539.351 397.388 538.964 397.385Z" fill="#002CA7"/>
<path d="M536.761 397.379C536.374 397.379 536.311 397.632 536.624 397.949C536.937 398.266 537.506 398.522 537.893 398.524C538.28 398.524 538.341 398.27 538.028 397.954C537.718 397.637 537.148 397.381 536.761 397.379Z" fill="#002CA7"/>
<path d="M534.558 397.372C534.171 397.37 534.107 397.626 534.42 397.942C534.733 398.259 535.303 398.515 535.69 398.517C536.077 398.517 536.14 398.264 535.827 397.947C535.514 397.63 534.947 397.374 534.558 397.372Z" fill="#002CA7"/>
<path d="M532.354 397.365C531.967 397.365 531.906 397.619 532.219 397.936C532.532 398.252 533.099 398.508 533.486 398.511C533.876 398.511 533.936 398.257 533.621 397.94C533.311 397.623 532.744 397.365 532.354 397.365Z" fill="#002CA7"/>
<path d="M547.296 399.149C546.909 399.146 546.846 399.402 547.161 399.719C547.474 400.036 548.041 400.292 548.429 400.294C548.816 400.297 548.879 400.04 548.564 399.724C548.253 399.407 547.686 399.151 547.296 399.149Z" fill="#002CA7"/>
<path d="M545.093 399.142C544.706 399.142 544.645 399.396 544.958 399.713C545.271 400.029 545.84 400.288 546.227 400.288C546.615 400.288 546.678 400.034 546.365 399.717C546.05 399.4 545.482 399.144 545.093 399.142Z" fill="#002CA7"/>
<path d="M542.89 399.135C542.503 399.135 542.44 399.389 542.755 399.706C543.068 400.022 543.637 400.279 544.022 400.281C544.411 400.283 544.472 400.027 544.157 399.71C543.846 399.394 543.279 399.137 542.89 399.135Z" fill="#002CA7"/>
<path d="M540.689 399.128C540.301 399.128 540.238 399.382 540.553 399.699C540.866 400.014 541.433 400.272 541.821 400.274C542.21 400.274 542.271 400.02 541.958 399.704C541.643 399.387 541.076 399.131 540.689 399.128Z" fill="#002CA7"/>
<path d="M538.485 399.122C538.098 399.122 538.037 399.376 538.348 399.692C538.661 400.009 539.23 400.267 539.617 400.267C540.004 400.267 540.067 400.011 539.754 399.697C539.439 399.38 538.872 399.122 538.485 399.122Z" fill="#002CA7"/>
<path d="M536.282 399.115C535.892 399.115 535.831 399.369 536.147 399.686C536.459 400.002 537.027 400.258 537.414 400.261C537.801 400.263 537.864 400.007 537.549 399.69C537.236 399.373 536.669 399.115 536.282 399.115Z" fill="#002CA7"/>
<path d="M534.078 399.108C533.691 399.108 533.628 399.362 533.943 399.679C534.256 399.996 534.823 400.252 535.21 400.254C535.597 400.254 535.66 400 535.348 399.683C535.035 399.367 534.465 399.11 534.078 399.108Z" fill="#002CA7"/>
<path d="M530.241 397.358C529.854 397.358 529.793 397.612 530.103 397.929C530.416 398.246 530.986 398.504 531.373 398.504C531.76 398.506 531.823 398.25 531.508 397.933C531.197 397.617 530.628 397.361 530.241 397.358Z" fill="#002CA7"/>
<path d="M531.965 399.101C531.578 399.099 531.517 399.355 531.83 399.672C532.143 399.989 532.71 400.245 533.099 400.247C533.486 400.247 533.549 399.993 533.236 399.677C532.921 399.36 532.352 399.104 531.965 399.101Z" fill="#002CA7"/>
<path d="M528.127 397.352C527.74 397.352 527.679 397.605 527.992 397.922C528.305 398.239 528.872 398.497 529.262 398.497C529.649 398.5 529.71 398.243 529.397 397.927C529.084 397.61 528.517 397.354 528.127 397.352Z" fill="#002CA7"/>
<path d="M529.851 399.095C529.462 399.093 529.401 399.349 529.714 399.665C530.027 399.982 530.596 400.24 530.984 400.24C531.371 400.243 531.434 399.987 531.119 399.67C530.808 399.353 530.241 399.097 529.851 399.095Z" fill="#002CA7"/>
<path d="M504.923 397.233C504.536 397.23 504.475 397.486 504.788 397.803C505.101 398.12 505.668 398.376 506.055 398.378C506.442 398.38 506.503 398.124 506.19 397.808C505.879 397.491 505.31 397.233 504.923 397.233Z" fill="#002CA7"/>
<path d="M502.721 397.226C502.334 397.226 502.271 397.48 502.586 397.796C502.899 398.113 503.466 398.369 503.854 398.371C504.241 398.371 504.302 398.118 503.989 397.801C503.676 397.484 503.109 397.226 502.721 397.226Z" fill="#002CA7"/>
<path d="M500.516 397.217C500.127 397.215 500.066 397.471 500.381 397.787C500.694 398.102 501.261 398.36 501.648 398.362C502.035 398.365 502.098 398.109 501.785 397.792C501.472 397.477 500.905 397.219 500.516 397.217Z" fill="#002CA7"/>
<path d="M498.315 397.212C497.928 397.21 497.864 397.466 498.177 397.783C498.49 398.1 499.057 398.358 499.447 398.358C499.834 398.36 499.895 398.104 499.582 397.787C499.269 397.468 498.702 397.212 498.315 397.212Z" fill="#002CA7"/>
<path d="M496.111 397.206C495.722 397.203 495.661 397.459 495.974 397.776C496.287 398.093 496.854 398.349 497.241 398.351C497.63 398.351 497.691 398.097 497.378 397.781C497.066 397.462 496.498 397.206 496.111 397.206Z" fill="#002CA7"/>
<path d="M493.908 397.197C493.518 397.197 493.458 397.45 493.773 397.767C494.086 398.084 494.653 398.34 495.04 398.342C495.427 398.345 495.49 398.088 495.175 397.772C494.862 397.455 494.295 397.199 493.908 397.197Z" fill="#002CA7"/>
<path d="M491.704 397.19C491.317 397.19 491.254 397.444 491.567 397.76C491.88 398.077 492.449 398.333 492.836 398.336C493.224 398.338 493.284 398.082 492.972 397.765C492.659 397.448 492.092 397.192 491.704 397.19Z" fill="#002CA7"/>
<path d="M506.647 398.976C506.26 398.973 506.199 399.23 506.512 399.546C506.825 399.863 507.394 400.121 507.781 400.121C508.168 400.124 508.231 399.867 507.916 399.551C507.603 399.234 507.034 398.976 506.647 398.976Z" fill="#002CA7"/>
<path d="M504.443 398.969C504.056 398.967 503.993 399.223 504.308 399.54C504.621 399.856 505.188 400.112 505.575 400.115C505.963 400.115 506.026 399.861 505.71 399.544C505.4 399.227 504.83 398.969 504.443 398.969Z" fill="#002CA7"/>
<path d="M502.24 398.962C501.85 398.96 501.79 399.216 502.103 399.533C502.415 399.85 502.985 400.108 503.372 400.108C503.759 400.108 503.82 399.854 503.507 399.537C503.196 399.221 502.627 398.962 502.24 398.962Z" fill="#002CA7"/>
<path d="M500.036 398.953C499.647 398.951 499.589 399.207 499.901 399.524C500.214 399.841 500.784 400.097 501.169 400.099C501.558 400.099 501.616 399.843 501.306 399.528C500.993 399.214 500.424 398.956 500.036 398.953Z" fill="#002CA7"/>
<path d="M497.833 398.947C497.446 398.944 497.383 399.2 497.698 399.517C498.011 399.834 498.578 400.092 498.965 400.092C499.352 400.094 499.415 399.838 499.1 399.522C498.79 399.207 498.222 398.949 497.833 398.947Z" fill="#002CA7"/>
<path d="M495.632 398.94C495.242 398.94 495.182 399.194 495.495 399.51C495.807 399.827 496.375 400.083 496.764 400.085C497.151 400.085 497.212 399.832 496.899 399.515C496.586 399.198 496.019 398.942 495.632 398.94Z" fill="#002CA7"/>
<path d="M493.428 398.933C493.039 398.931 492.978 399.187 493.293 399.504C493.606 399.82 494.173 400.076 494.561 400.079C494.948 400.079 495.008 399.825 494.696 399.508C494.383 399.191 493.816 398.935 493.428 398.933Z" fill="#002CA7"/>
<path d="M489.591 397.183C489.204 397.183 489.143 397.437 489.456 397.754C489.769 398.07 490.336 398.327 490.723 398.329C491.112 398.329 491.173 398.073 490.86 397.758C490.548 397.442 489.978 397.185 489.591 397.183Z" fill="#002CA7"/>
<path d="M491.315 398.926C490.928 398.924 490.867 399.18 491.18 399.497C491.493 399.814 492.06 400.07 492.449 400.072C492.837 400.074 492.897 399.818 492.584 399.501C492.269 399.187 491.702 398.929 491.315 398.926Z" fill="#002CA7"/>
<path d="M487.478 397.176C487.088 397.176 487.027 397.43 487.343 397.747C487.655 398.064 488.223 398.32 488.61 398.322C488.997 398.322 489.058 398.068 488.745 397.751C488.434 397.437 487.865 397.179 487.478 397.176Z" fill="#002CA7"/>
<path d="M489.199 398.92C488.812 398.917 488.751 399.176 489.064 399.49C489.377 399.807 489.947 400.063 490.332 400.065C490.721 400.065 490.782 399.811 490.469 399.495C490.156 399.178 489.589 398.922 489.199 398.92Z" fill="#002CA7"/>
<path d="M582.792 247.015L560.675 386.266C559.797 391.765 553.911 396.253 547.589 396.237L486.244 396.103H486.145C485.864 396.103 485.587 396.094 485.31 396.071C484.144 395.993 483.046 395.759 482.044 395.388C481.257 395.103 480.528 394.726 479.873 394.281C479.521 394.047 479.193 393.791 478.887 393.517C478.884 393.517 478.884 393.517 478.884 393.515C478.558 393.225 478.259 392.915 477.986 392.585C477.899 392.477 477.806 392.365 477.721 392.248C477.561 392.037 477.415 391.819 477.278 391.599C477.271 391.579 477.259 391.561 477.246 391.545C477.176 391.426 477.106 391.302 477.039 391.177C476.969 391.053 476.908 390.925 476.85 390.797C476.8 390.68 476.749 390.563 476.701 390.44C476.695 390.431 476.688 390.415 476.683 390.402C476.636 390.283 476.589 390.159 476.548 390.035C476.546 390.022 476.544 390.013 476.539 390.004C476.497 389.869 476.454 389.732 476.413 389.593C476.107 388.499 476.035 387.306 476.231 386.068L498.292 246.885C499.165 241.382 505.051 236.887 511.376 236.9L572.891 236.994C573.017 236.994 573.146 236.997 573.267 237.001C573.324 237.001 573.375 237.006 573.429 237.008C573.517 237.012 573.609 237.012 573.695 237.021C573.783 237.024 573.868 237.03 573.96 237.039C574.132 237.055 574.305 237.071 574.478 237.093C574.586 237.107 574.694 237.123 574.8 237.14C574.861 237.149 574.924 237.158 574.985 237.172C575.014 237.176 575.045 237.181 575.07 237.188C575.162 237.197 575.246 237.217 575.338 237.235C575.385 237.244 575.432 237.257 575.48 237.264C575.597 237.289 575.707 237.316 575.815 237.343C575.867 237.356 575.916 237.367 575.964 237.381C576.069 237.408 576.175 237.437 576.281 237.466C576.29 237.471 576.297 237.473 576.299 237.473C576.445 237.513 576.587 237.563 576.733 237.608C576.862 237.653 576.994 237.7 577.12 237.754C577.145 237.76 577.172 237.769 577.19 237.778C577.319 237.826 577.44 237.88 577.564 237.929C577.571 237.931 577.577 237.936 577.584 237.938C577.719 238.001 577.859 238.064 577.987 238.127C579.056 238.648 579.983 239.335 580.731 240.148C580.76 240.173 580.782 240.202 580.807 240.227C580.809 240.231 580.809 240.231 580.814 240.234C580.821 240.245 580.83 240.249 580.836 240.261C582.432 242.042 583.206 244.414 582.792 247.015Z" fill="#5378CF"/>
<path d="M579.454 245.872L579.144 247.797L557.33 385.12C557.024 387.064 555.8 388.901 554.085 390.3C552.124 391.907 549.531 392.944 546.932 392.944L517.461 392.872H517.146L515.834 392.868H515.796L514.688 392.866L511.389 392.859H510.991L507.536 392.852L505.965 392.848L500.131 392.832L493.865 392.816L485.463 392.798C485.159 392.798 484.862 392.785 484.572 392.753C482.875 392.589 481.441 391.965 480.552 390.986C479.449 389.761 479.411 388.254 479.573 387.207L494.534 292.838L500.356 256.102C500.356 256.102 501.661 247.871 501.682 247.795C502.114 245.557 503.748 243.489 505.933 242.08C507.727 240.914 509.894 240.193 512.066 240.193L515.202 240.2L517.277 240.207L521.999 240.213L559.988 240.272H560.51L566.936 240.281L573.58 240.29C574.082 240.292 574.568 240.328 575.027 240.407C576.049 240.571 576.952 240.914 577.674 241.406C577.978 241.611 578.246 241.842 578.48 242.094C579.583 243.318 579.621 244.825 579.454 245.872Z" fill="#E7F3F9"/>
<path d="M508.558 243.03L508.468 243.52L508.274 244.497V244.502L508.069 245.553L507.975 246.043H515.1L515.537 243.828L515.69 243.033H508.558V243.03ZM508.589 244.286L508.783 243.309H515.357L514.983 245.218L514.878 245.766H508.299L508.589 244.286Z" fill="white"/>
<path d="M510.27 245.903H514.988L515.521 243.167H510.804L510.27 245.903Z" fill="white"/>
<path d="M507.358 245.548H508.204L508.6 243.52H507.754L507.358 245.548Z" fill="white"/>
<path d="M575.943 245.757H576.891L577.179 244.29H576.229L575.943 245.757Z" fill="white"/>
<path d="M573.947 245.757H574.895L575.32 243.576H574.37L573.947 245.757Z" fill="white"/>
<path d="M571.996 245.757H572.943L573.542 242.682H572.592L571.996 245.757Z" fill="white"/>
<path d="M564.267 245.391C564.314 245.391 564.366 245.373 564.411 245.335C564.764 245.034 565.109 244.883 565.412 244.895C565.914 244.908 566.205 245.324 566.209 245.328C566.261 245.405 566.378 245.411 566.466 245.346C566.556 245.279 566.587 245.164 566.535 245.086C566.52 245.063 566.162 244.544 565.498 244.526C565.086 244.513 564.643 244.699 564.197 245.079C564.112 245.153 564.089 245.27 564.148 245.339C564.177 245.373 564.22 245.391 564.267 245.391Z" fill="white"/>
<path d="M563.871 244.614C563.918 244.614 563.97 244.596 564.012 244.558C564.55 244.1 565.081 243.868 565.592 243.868C565.592 243.868 565.592 243.868 565.595 243.868C566.468 243.87 567.008 244.551 567.013 244.558C567.069 244.63 567.186 244.632 567.274 244.562C567.361 244.493 567.386 244.376 567.328 244.302C567.303 244.27 566.7 243.502 565.669 243.5C565.667 243.5 565.664 243.5 565.662 243.5C565.05 243.5 564.422 243.769 563.796 244.302C563.711 244.376 563.688 244.493 563.749 244.562C563.781 244.596 563.823 244.614 563.871 244.614Z" fill="white"/>
<path d="M567.996 243.864C568.041 243.864 568.091 243.848 568.131 243.814C568.219 243.745 568.248 243.628 568.192 243.554C568.156 243.504 567.316 242.372 565.831 242.347C565.815 242.347 565.799 242.347 565.786 242.347C564.89 242.347 563.963 242.752 563.027 243.549C562.941 243.621 562.921 243.74 562.979 243.81C563.038 243.879 563.155 243.879 563.24 243.805C564.105 243.068 564.946 242.691 565.754 242.716C567.085 242.736 567.866 243.792 567.872 243.801C567.902 243.846 567.947 243.864 567.996 243.864Z" fill="white"/>
<path d="M564.733 245.879C564.685 246.121 564.845 246.319 565.088 246.319C565.331 246.319 565.568 246.121 565.617 245.879C565.664 245.636 565.505 245.438 565.262 245.438C565.016 245.438 564.782 245.636 564.733 245.879Z" fill="white"/>
<path d="M526.444 241.415C525.15 242.404 524.776 243.886 525.604 244.724C526.435 245.562 528.157 245.445 529.449 244.457C530.743 243.468 531.119 241.986 530.288 241.148C529.462 240.31 527.74 240.427 526.444 241.415Z" fill="#002381"/>
<path d="M526.853 241.831C525.87 242.581 525.548 243.673 526.135 244.266C526.723 244.859 527.997 244.733 528.98 243.983C529.966 243.23 530.286 242.139 529.701 241.546C529.113 240.95 527.839 241.078 526.853 241.831Z" fill="#002CA7"/>
<path d="M552.908 241.321C552.872 241.312 552.84 241.312 552.795 241.305H552.745C552.736 241.305 552.727 241.296 552.721 241.296L535.152 241.271C535.127 241.271 535.096 241.28 535.071 241.28C534.605 241.298 534.085 241.471 533.639 241.817C532.827 242.437 532.561 243.343 533.056 243.846C533.203 243.987 533.394 244.077 533.612 244.127C533.666 244.142 533.727 244.151 533.792 244.16H534.265L551.391 244.234C551.406 244.234 551.438 244.228 551.463 244.228C551.96 244.234 552.516 244.055 552.993 243.682C553.52 243.277 553.817 242.759 553.828 242.305C553.833 242.042 553.74 241.802 553.551 241.62C553.38 241.451 553.155 241.361 552.908 241.321Z" fill="#002381"/>
<path d="M536.52 242.285C536.05 242.294 535.534 242.473 535.086 242.821C534.58 243.21 534.281 243.713 534.26 244.158L551.386 244.232C551.402 244.232 551.433 244.225 551.458 244.225C551.955 244.232 552.511 244.052 552.989 243.68C553.515 243.275 553.812 242.756 553.824 242.303L536.601 242.278C536.576 242.278 536.543 242.278 536.52 242.285Z" fill="#002CA7"/>
<path d="M526.732 242.61C526.331 242.916 526.201 243.36 526.439 243.603C526.68 243.846 527.198 243.792 527.598 243.486C527.999 243.179 528.132 242.736 527.891 242.493C527.652 242.253 527.133 242.302 526.732 242.61Z" fill="#002381"/>
<path d="M528.37 242.127C528.145 242.298 528.073 242.547 528.206 242.682C528.341 242.819 528.629 242.79 528.854 242.619C529.079 242.446 529.154 242.199 529.019 242.062C528.886 241.927 528.596 241.957 528.37 242.127Z" fill="#002381"/>
<path d="M522.928 397.675C522.825 397.554 522.676 397.48 522.532 397.48H512.505C512.175 397.48 512.051 397.844 512.285 398.122L513.626 399.715C513.727 399.836 513.878 399.91 514.02 399.91H524.045C524.376 399.91 524.499 399.546 524.265 399.268L522.928 397.675Z" fill="#002CA7"/>
<path d="M487.28 386.515H549.849C550.616 386.515 551.267 385.954 551.377 385.197L553.139 373.112C553.274 372.182 552.552 371.348 551.611 371.348H489.042C488.274 371.348 487.624 371.91 487.514 372.667L485.751 384.752C485.614 385.682 486.337 386.515 487.28 386.515Z" fill="#BFD8F6"/>
<path d="M489.778 367.649H517.243C518.006 367.649 518.654 367.094 518.769 366.341L522.631 341.176C522.775 340.244 522.051 339.401 521.105 339.401H493.64C492.877 339.401 492.229 339.956 492.114 340.709L488.25 365.874C488.108 366.809 488.833 367.649 489.778 367.649Z" fill="#5378CF"/>
<path d="M495.024 335.589H505.933C506.696 335.589 507.345 335.035 507.459 334.282L508.976 324.407C509.12 323.473 508.396 322.633 507.45 322.633H496.543C495.78 322.633 495.132 323.188 495.017 323.94L493.501 333.815C493.356 334.749 494.079 335.589 495.024 335.589Z" fill="#007FE0"/>
<path d="M511.576 335.589H522.485C523.248 335.589 523.896 335.035 524.011 334.282L525.528 324.407C525.672 323.473 524.947 322.633 524.002 322.633H513.095C512.332 322.633 511.684 323.188 511.569 323.94L510.052 333.815C509.908 334.749 510.631 335.589 511.576 335.589Z" fill="#BFD8F6"/>
<path d="M497.477 319.683H508.387C509.15 319.683 509.798 319.128 509.913 318.376L511.43 308.501C511.574 307.569 510.849 306.727 509.904 306.727H498.997C498.234 306.727 497.586 307.281 497.471 308.034L495.954 317.909C495.807 318.841 496.53 319.683 497.477 319.683Z" fill="#3259B3"/>
<path d="M514.029 319.683H524.938C525.701 319.683 526.349 319.128 526.464 318.376L527.981 308.501C528.123 307.569 527.4 306.727 526.455 306.727H515.548C514.785 306.727 514.137 307.281 514.022 308.034L512.505 317.909C512.359 318.841 513.084 319.683 514.029 319.683Z" fill="#0266E7"/>
<path d="M536.27 297.984H547.177C547.94 297.984 548.588 297.429 548.703 296.677L550.22 286.802C550.364 285.87 549.64 285.027 548.694 285.027H537.785C537.022 285.027 536.374 285.582 536.259 286.335L534.742 296.209C534.6 297.142 535.325 297.984 536.27 297.984Z" fill="#007FE0"/>
<path d="M552.822 297.984H563.729C564.492 297.984 565.14 297.429 565.255 296.677L566.772 286.802C566.916 285.87 566.191 285.027 565.246 285.027H554.337C553.574 285.027 552.926 285.582 552.811 286.335L551.294 296.209C551.152 297.142 551.877 297.984 552.822 297.984Z" fill="#D90429"/>
<path d="M538.721 282.076H549.628C550.391 282.076 551.04 281.521 551.154 280.768L552.671 270.894C552.815 269.959 552.091 269.119 551.145 269.119H540.236C539.473 269.119 538.825 269.674 538.71 270.426L537.193 280.301C537.051 281.236 537.776 282.076 538.721 282.076Z" fill="#3259B3"/>
<path d="M555.273 282.076H566.18C566.943 282.076 567.591 281.521 567.706 280.768L569.223 270.894C569.367 269.959 568.642 269.119 567.697 269.119H556.788C556.025 269.119 555.377 269.674 555.262 270.426L553.745 280.301C553.605 281.236 554.328 282.076 555.273 282.076Z" fill="#BFD8F6"/>
<path d="M514.974 303.654H519.575L514.182 294.156H509.501L514.974 303.654Z" fill="#829DDC"/>
<path d="M522.309 252.898L468.63 252.757C462.697 252.743 457.876 257.535 457.863 263.456L457.822 281.685C457.809 287.606 462.607 292.418 468.543 292.431L505.816 292.537L519.575 303.656L517.347 292.564L522.222 292.575C528.154 292.588 532.975 287.799 532.987 281.876L533.027 263.647C533.041 257.723 528.242 252.912 522.309 252.898Z" fill="#829DDC"/>
<path d="M517.709 252.898L464.03 252.757C458.097 252.743 453.276 257.535 453.263 263.456L453.222 281.685C453.209 287.606 458.009 292.418 463.942 292.431L501.216 292.537L514.974 303.656L512.744 292.564L517.621 292.575C523.554 292.588 528.375 287.799 528.386 281.876L528.427 263.647C528.44 257.723 523.642 252.912 517.709 252.898Z" fill="#92A9E0"/>
<path d="M518.026 258.721L493.26 258.775C492.819 258.775 492.499 259.091 492.546 259.482C492.593 259.871 492.99 260.185 493.431 260.185L518.197 260.129C518.638 260.129 518.958 259.812 518.911 259.424C518.861 259.033 518.465 258.719 518.026 258.721Z" fill="white"/>
<path d="M489.339 258.784L487.154 258.802C486.712 258.804 486.393 259.118 486.442 259.509C486.49 259.898 486.883 260.212 487.325 260.212L489.512 260.194C489.953 260.194 490.273 259.878 490.223 259.487C490.174 259.098 489.78 258.781 489.339 258.784Z" fill="white"/>
<path d="M481.306 258.815L462.648 258.867C462.207 258.869 461.89 259.184 461.937 259.575C461.984 259.963 462.378 260.278 462.819 260.278L481.48 260.226C481.921 260.226 482.24 259.909 482.193 259.518C482.144 259.128 481.747 258.813 481.306 258.815Z" fill="white"/>
<path d="M513.309 263.213L500.759 263.243C500.318 263.243 499.998 263.559 500.048 263.95C500.095 264.339 500.489 264.653 500.932 264.653L513.482 264.626C513.923 264.624 514.243 264.31 514.196 263.921C514.144 263.528 513.75 263.211 513.309 263.213Z" fill="white"/>
<path d="M494.792 263.254L480.073 263.31C479.632 263.31 479.312 263.627 479.359 264.018C479.407 264.406 479.803 264.721 480.244 264.721L494.963 264.667C495.405 264.665 495.722 264.35 495.675 263.959C495.627 263.568 495.233 263.254 494.792 263.254Z" fill="white"/>
<path d="M475.409 263.319L462.61 263.348C462.169 263.348 461.849 263.665 461.898 264.056C461.946 264.444 462.342 264.759 462.783 264.759L475.583 264.732C476.024 264.73 476.343 264.415 476.296 264.024C476.244 263.633 475.848 263.319 475.409 263.319Z" fill="white"/>
<path d="M512.319 267.924L487.014 267.994C486.573 267.994 486.253 268.31 486.301 268.701C486.348 269.09 486.744 269.404 487.185 269.404L512.487 269.335C512.929 269.332 513.248 269.018 513.201 268.627C513.154 268.236 512.76 267.922 512.319 267.924Z" fill="white"/>
<path d="M482.711 268.012L462.936 268.054C462.495 268.054 462.175 268.371 462.223 268.762C462.27 269.15 462.666 269.467 463.105 269.465L482.879 269.422C483.321 269.422 483.64 269.105 483.593 268.715C483.546 268.326 483.152 268.012 482.711 268.012Z" fill="white"/>
<path d="M492.683 274.692L469.468 274.766C469.026 274.768 468.707 275.083 468.754 275.474C468.801 275.862 469.197 276.177 469.639 276.177L492.855 276.103C493.296 276.1 493.613 275.786 493.568 275.395C493.518 275.007 493.125 274.69 492.683 274.692Z" fill="white"/>
<path d="M508.663 279.115L463.719 279.236C463.278 279.239 462.959 279.553 463.006 279.944C463.053 280.333 463.449 280.647 463.89 280.647L508.834 280.526C509.276 280.526 509.593 280.209 509.546 279.82C509.498 279.427 509.105 279.113 508.663 279.115Z" fill="white"/>
<path d="M493.525 284.668L468.97 284.744C468.529 284.744 468.209 285.061 468.257 285.452C468.304 285.84 468.7 286.155 469.139 286.155L493.696 286.076C494.137 286.074 494.457 285.76 494.41 285.371C494.362 284.982 493.966 284.668 493.525 284.668Z" fill="white"/>
<path d="M517.608 274.636L496.836 274.683C496.395 274.683 496.078 275 496.125 275.391C496.172 275.779 496.566 276.096 497.009 276.094L517.779 276.049C518.22 276.049 518.537 275.732 518.492 275.341C518.443 274.95 518.049 274.636 517.608 274.636Z" fill="white"/>
<path d="M547.558 301.715L598.927 301.562C605.349 301.549 610.566 306.733 610.579 313.142L610.622 332.869C610.636 339.278 605.443 344.485 599.022 344.498L565.408 344.611L550.515 356.644L552.928 344.638L547.65 344.649C541.229 344.665 536.012 339.48 535.998 333.071L535.955 313.342C535.942 306.936 541.136 301.729 547.558 301.715Z" fill="#28468D"/>
<path d="M545.395 356.644H550.517L552.991 347.735L547.789 348.982L545.395 356.644Z" fill="#28468D"/>
<path d="M542.435 301.715L593.805 301.562C600.226 301.549 605.443 306.733 605.457 313.142L605.502 332.869C605.515 339.278 600.323 344.485 593.899 344.498L560.285 344.611L545.395 356.644L547.807 344.638L542.532 344.649C536.111 344.665 530.893 339.48 530.88 333.071L530.837 313.342C530.821 306.936 536.014 301.729 542.435 301.715Z" fill="#486DB5"/>
<path d="M592.979 308.059L573.684 308.101C573.339 308.101 573.092 308.445 573.128 308.865C573.166 309.287 573.474 309.629 573.816 309.627L593.112 309.584C593.454 309.584 593.704 309.24 593.665 308.82C593.627 308.4 593.323 308.059 592.979 308.059Z" fill="white"/>
<path d="M570.63 308.108L564.152 308.122C563.808 308.122 563.56 308.465 563.596 308.885C563.634 309.308 563.943 309.647 564.285 309.647L570.765 309.633C571.109 309.633 571.356 309.292 571.32 308.87C571.282 308.45 570.974 308.108 570.63 308.108Z" fill="white"/>
<path d="M559.599 308.133L541.719 308.173C541.375 308.173 541.127 308.517 541.166 308.937C541.204 309.359 541.51 309.699 541.854 309.699L559.736 309.658C560.078 309.658 560.328 309.317 560.29 308.894C560.249 308.472 559.941 308.133 559.599 308.133Z" fill="white"/>
<path d="M589.308 312.92L579.531 312.942C579.189 312.942 578.939 313.286 578.977 313.706C579.016 314.128 579.324 314.467 579.666 314.467L589.445 314.445C589.787 314.445 590.037 314.104 589.999 313.681C589.961 313.261 589.652 312.92 589.308 312.92Z" fill="white"/>
<path d="M574.881 312.951L555.296 312.994C554.951 312.994 554.704 313.335 554.74 313.758C554.778 314.18 555.086 314.519 555.428 314.519L575.014 314.476C575.358 314.476 575.606 314.135 575.57 313.713C575.534 313.293 575.225 312.951 574.881 312.951Z" fill="white"/>
<path d="M551.661 313.003L541.688 313.025C541.346 313.028 541.096 313.367 541.134 313.791C541.17 314.214 541.479 314.553 541.823 314.553L551.793 314.53C552.138 314.528 552.385 314.189 552.347 313.767C552.313 313.342 552.005 313.003 551.661 313.003Z" fill="white"/>
<path d="M588.54 318.017L564.053 318.07C563.709 318.073 563.461 318.414 563.497 318.836C563.535 319.259 563.844 319.598 564.186 319.598L588.676 319.544C589.018 319.544 589.267 319.2 589.229 318.78C589.191 318.356 588.883 318.017 588.54 318.017Z" fill="white"/>
<path d="M557.353 318.086L541.947 318.12C541.605 318.12 541.355 318.461 541.393 318.884C541.429 319.306 541.737 319.645 542.082 319.645L557.488 319.611C557.832 319.611 558.08 319.27 558.041 318.848C558.005 318.425 557.697 318.084 557.353 318.086Z" fill="white"/>
<path d="M573.245 325.328L547.038 325.387C546.693 325.387 546.446 325.73 546.482 326.15C546.52 326.573 546.826 326.912 547.171 326.912L573.378 326.854C573.72 326.854 573.97 326.512 573.934 326.09C573.897 325.67 573.589 325.328 573.245 325.328Z" fill="white"/>
<path d="M585.7 330.126L542.566 330.221C542.223 330.221 541.974 330.562 542.01 330.987C542.046 331.409 542.354 331.748 542.698 331.748L585.833 331.652C586.177 331.652 586.425 331.31 586.387 330.888C586.351 330.466 586.042 330.124 585.7 330.126Z" fill="white"/>
<path d="M573.909 336.126L546.66 336.187C546.315 336.187 546.068 336.528 546.104 336.951C546.14 337.373 546.448 337.712 546.792 337.712L574.044 337.652C574.386 337.652 574.636 337.31 574.597 336.888C574.561 336.465 574.253 336.126 573.909 336.126Z" fill="white"/>
<path d="M592.664 325.286L576.481 325.322C576.139 325.322 575.889 325.665 575.928 326.085C575.966 326.508 576.272 326.847 576.616 326.847L592.799 326.811C593.141 326.811 593.391 326.469 593.355 326.047C593.317 325.627 593.008 325.286 592.664 325.286Z" fill="white"/>
<path d="M304.872 223.847H298.741L294.451 352.333H309.164L304.872 223.847Z" fill="#3259B3"/>
<path d="M300.58 223.847H294.451L290.159 352.333H304.872L300.58 223.847Z" fill="#5378CF"/>
<path d="M415.217 223.847H409.086L404.796 352.333H419.509L415.217 223.847Z" fill="#3259B3"/>
<path d="M410.927 223.847H404.796L400.504 352.333H415.217L410.927 223.847Z" fill="#5378CF"/>
<path d="M452.612 352.333H293.225C289.84 352.333 287.094 355.074 287.094 358.452V382.926C287.094 386.304 289.837 389.045 293.225 389.045H452.612C455.997 389.045 458.743 386.304 458.743 382.926V358.452C458.743 355.072 455.997 352.333 452.612 352.333Z" fill="#3259B3"/>
<path d="M434.834 352.333H275.447C272.062 352.333 269.316 355.074 269.316 358.452V382.926C269.316 386.304 272.059 389.045 275.447 389.045H434.834C438.219 389.045 440.965 386.304 440.965 382.926V358.452C440.965 355.072 438.219 352.333 434.834 352.333Z" fill="#5378CF"/>
<path d="M422.574 363.345H287.706C283.644 363.345 280.351 366.631 280.351 370.686C280.351 374.74 283.644 378.029 287.706 378.029H422.572C426.635 378.029 429.927 374.743 429.927 370.686C429.93 366.633 426.637 363.345 422.574 363.345Z" fill="#E9F5FB"/>
<path d="M446.481 389.043H299.353V399.443C299.353 400.456 300.177 401.278 301.192 401.278H444.64C445.655 401.278 446.479 400.456 446.479 399.443V389.043H446.481Z" fill="#3259B3"/>
<path opacity="0.2" d="M446.484 389.043H299.356V392.713H446.484V389.043Z" fill="#1C0600"/>
<path d="M428.703 389.043H281.575V399.443C281.575 400.456 282.399 401.278 283.414 401.278H426.862C427.877 401.278 428.701 400.456 428.701 399.443V389.043H428.703Z" fill="#5378CF"/>
<path opacity="0.2" d="M428.705 389.043H281.577V392.713H428.705V389.043Z" fill="#1C0600"/>
<path d="M290.772 370.688C290.772 372.377 289.399 373.747 287.706 373.747C286.014 373.747 284.641 372.377 284.641 370.688C284.641 368.999 286.014 367.629 287.706 367.629C289.399 367.629 290.772 368.999 290.772 370.688Z" fill="#FF550D"/>
<path d="M303.033 370.688C303.033 372.377 301.66 373.747 299.968 373.747C298.275 373.747 296.902 372.377 296.902 370.688C296.902 368.999 298.275 367.629 299.968 367.629C301.66 367.629 303.033 368.999 303.033 370.688Z" fill="#FF550D"/>
<path d="M315.293 370.688C315.293 372.377 313.92 373.747 312.227 373.747C310.535 373.747 309.162 372.377 309.162 370.688C309.162 368.999 310.535 367.629 312.227 367.629C313.92 367.629 315.293 368.999 315.293 370.688Z" fill="#FF550D"/>
<path d="M327.555 370.688C327.555 372.377 326.182 373.747 324.489 373.747C322.797 373.747 321.424 372.377 321.424 370.688C321.424 368.999 322.797 367.629 324.489 367.629C326.182 367.629 327.555 368.999 327.555 370.688Z" fill="#FF550D"/>
<path d="M339.814 370.688C339.814 372.377 338.441 373.747 336.749 373.747C335.056 373.747 333.683 372.377 333.683 370.688C333.683 368.999 335.056 367.629 336.749 367.629C338.443 367.629 339.814 368.999 339.814 370.688Z" fill="#D90429"/>
<path d="M352.076 370.688C352.076 372.377 350.703 373.747 349.011 373.747C347.318 373.747 345.945 372.377 345.945 370.688C345.945 368.999 347.318 367.629 349.011 367.629C350.703 367.629 352.076 368.999 352.076 370.688Z" fill="#FF550D"/>
<path d="M419.007 333.909C412.658 331.67 373.406 332.779 357.018 336.106C350.046 337.521 350.622 346.273 356.897 348.679C373.656 355.11 395.075 355.4 409.824 354.144C422.781 353.043 425.86 336.326 419.007 333.909Z" fill="#002382"/>
<path d="M403.032 388.304L400.477 391.675C400.477 391.675 401.681 392.704 402.194 393.389C403.187 394.71 400.779 401.274 402.568 401.97C403.412 402.298 404.828 400.366 405.447 398.787C406.021 397.322 407.117 394.571 407.452 393.668C407.882 392.515 408.985 390.694 408.724 390.101C408.039 388.564 406.066 389.404 404.972 388.975C404.031 388.609 403.032 388.304 403.032 388.304Z" fill="#002CAA"/>
<path d="M400.268 391.734C400.268 391.734 401.389 392.383 402.192 393.389C402.192 393.389 402.446 393.955 403.209 393.403C403.835 392.949 404.972 388.975 404.972 388.975C404.035 388.591 402.158 387.877 402.158 387.877L400.268 391.734Z" fill="white"/>
<path d="M426.952 327.417C420.274 326.55 378.751 336.982 363.422 343.651C356.899 346.489 359.294 354.926 365.933 355.972C383.669 358.769 407.542 358.547 421.703 354.245C434.143 350.467 434.161 328.356 426.952 327.417Z" fill="#3259B3"/>
<path d="M362.614 357.691C384.214 377.483 400.295 392.212 400.295 392.212C401.938 391.85 403.63 390.125 404.776 388.481C404.776 388.481 391.594 369.94 375.983 349.445C365.69 335.929 353.804 349.618 362.614 357.691Z" fill="#3259B3"/>
<path d="M347.41 394.209L343.217 393.598C343.217 393.598 342.893 395.146 342.54 395.927C341.86 397.432 334.937 398.488 335.187 400.389C335.304 401.285 337.683 401.593 339.368 401.373C340.933 401.168 343.874 400.8 344.829 400.66C346.046 400.481 348.18 400.568 348.574 400.054C349.596 398.717 347.908 397.394 347.755 396.233C347.624 395.231 347.41 394.209 347.41 394.209Z" fill="#002CAA"/>
<path d="M343.069 393.448C343.069 393.448 343.039 394.741 342.542 395.93C342.542 395.93 342.168 396.424 343.021 396.826C343.721 397.156 347.757 396.235 347.757 396.235C347.642 395.231 347.365 393.245 347.365 393.245L343.069 393.448Z" fill="white"/>
<path d="M350.005 343.38C345.722 372.33 342.54 393.883 342.54 393.883C343.762 395.038 346.492 395.469 348.45 394.688C348.45 394.688 356.278 373.714 364.502 349.312C369.926 333.224 351.752 331.571 350.005 343.38Z" fill="#002382"/>
<path d="M426.869 263.4C428.87 269.77 430.553 269.986 432.901 271.574C444.487 279.432 430.501 298.065 427.661 291.663C426.554 289.167 433.353 285.283 423.155 281.718C411.881 277.781 415.336 272.264 415.577 268.56C416.486 254.518 410.117 258.343 408.784 261.268C407.994 263 407.04 262.364 406.61 260.999C404.866 255.446 420.229 242.264 426.869 263.4Z" fill="#002CAA"/>
<path d="M366.865 326.526C367.597 326.827 368.409 327.062 369.192 327.125C369.141 327.599 368.992 328.199 368.051 328.255C367.673 328.278 365.958 326.946 365.913 326.568C365.834 325.908 366.474 326.332 366.865 326.526Z" fill="white"/>
<path d="M364.036 329.816C364.187 329.722 366.303 328.377 367.309 327.887C368.155 327.465 369.109 327.211 370.048 326.69C370.097 326.678 371.846 329.181 372.224 330.077C370.822 330.803 363.581 334.873 363.897 333.022C363.919 332.887 362.62 333.552 362.551 332.703C362.551 332.703 362.164 332.654 361.974 332.281C361.738 331.816 361.851 331.396 362.242 331.043C362.539 330.776 363.622 330.115 364.036 329.816Z" fill="white"/>
<path d="M389.239 311.531C389.35 311.013 391.418 295.509 395.517 287.793C397.688 283.706 405.224 282.478 405.224 290.306C405.224 295.338 399.408 309.164 396.016 313.852C392.809 318.412 378.229 327.314 371.659 330.416L369.726 326.845C372.382 325.654 378.432 320.553 383.293 316.453C385.517 314.577 387.628 312.798 389.239 311.531Z" fill="white"/>
<path d="M390.453 299.952C391.008 295.284 392.685 290.877 393.799 288.797C397.497 281.891 403.563 286.521 403.545 291.144C403.534 294.415 403.57 298.678 402.595 302.566L390.453 299.952Z" fill="#E2410F"/>
<path d="M410.29 270.673C410.063 272.76 410.871 278.513 411.627 279.575C410.043 283.453 403.792 283.666 403.279 281.429C404.186 278.971 402.984 274.506 402.957 274.081C404.504 274.256 409.784 271.073 410.29 270.673Z" fill="white"/>
<path d="M392.523 335.062C395.942 339.671 411.107 341.863 424.985 335.953L425.624 327.262L428.365 347.347C429.657 347.72 431.057 347.859 431.861 347.135C435.572 306.342 432.205 286.043 418.388 281.027C416.844 280.472 411.985 279.575 411.985 279.575C411.985 279.575 408.746 282.851 406.513 282.851C403.455 282.851 403.639 281.429 403.639 281.429C403.639 281.429 399.523 282.595 398.548 283.206C395.721 284.982 395.204 288.608 395.118 292.103C395.093 293.291 395.114 294.469 395.114 295.549C395.114 296.733 395.042 298.173 394.922 299.819C394.52 305.408 393.567 313.398 392.991 322.136C392.872 323.958 392.764 325.807 392.69 327.68C392.582 330.117 392.523 332.591 392.523 335.062Z" fill="#FF550D"/>
<path d="M406.23 282.608C408.46 282.608 411.983 279.575 411.983 279.575C411.983 279.575 414.481 279.982 415.257 280.112C416.972 280.395 418.386 281.029 418.386 281.029C412.28 284.257 403.101 292.826 403.101 292.826C403.101 292.826 399.149 287.611 398.661 283.145C399.869 282.475 403.635 281.429 403.635 281.429C403.635 281.429 404.035 282.608 406.23 282.608Z" fill="#E2410F"/>
<path d="M400.943 263.451C404.38 262.715 407.252 265.06 407.983 268.456C407.992 268.49 408.744 271.985 408.744 271.985C409.295 274.546 406.203 279.425 403.867 279.434C398.337 279.452 395.129 270.022 395.073 268.89C394.916 265.734 397.742 264.137 400.943 263.451Z" fill="white"/>
<path d="M395.94 263.454C395.94 263.454 401.776 257.027 407.551 259.86C416.248 264.123 410.162 273.722 410.162 273.722C408.442 271.615 404.947 263.339 397.652 265.545C397.652 265.545 394.247 268.555 397.09 274.023C394.279 273.587 390.831 266.03 395.94 263.454Z" fill="#002CAA"/>
<path d="M392.69 327.678C400.279 324.472 410.738 319.178 413.684 315.838C415.726 313.589 418.71 308.908 421.161 304.244L421.874 304.536C424.064 300.374 425.174 295.789 425.433 293.449C426.29 285.665 418.667 286.065 416.065 289.888C414.22 292.591 411.776 296.088 410.378 299.844L411.148 300.158C411.148 300.163 411.143 300.172 411.143 300.176C408.825 306.426 407.317 312.477 407.211 312.792C405.467 313.874 403.176 315.413 400.761 317.03C398.278 318.695 395.514 320.548 392.994 322.134C392.872 323.956 392.764 325.807 392.69 327.678Z" fill="#E2410F"/>
<path d="M409.541 268.935C409.808 269.748 409.235 271.307 408.503 271.792C407.866 271.004 406.581 269.413 405.933 268.369C406.297 267.91 406.867 267.589 407.195 267.484C408.055 267.198 409.255 268.077 409.541 268.935Z" fill="white"/>
<path d="M405.701 257.926C406.07 257.789 406.518 257.746 407.04 257.885C409.007 258.42 409.379 259.57 409.196 260.785C409.196 260.785 406.772 259.258 404.323 259.166C404.323 259.168 404.778 258.262 405.701 257.926Z" fill="#002382"/>
<path d="M421.755 328.567C421.755 328.57 421.757 328.572 421.757 328.576C421.757 329.356 421.118 329.994 420.337 329.994H386.908C386.124 329.994 385.487 329.356 385.487 328.576C385.487 328.574 385.487 328.57 385.487 328.567H421.755Z" fill="#0066E9"/>
<path d="M381.877 299.15L388.845 328.192C388.96 328.655 388.859 329.994 387.124 329.994L358.801 329.639V297.243L379.312 297.249C380.502 297.218 381.562 298.002 381.877 299.15Z" fill="#0066E9"/>
<path d="M343.395 297.234H379.6C379.975 297.234 380.304 297.483 380.403 297.842L387.86 328.938C388.006 329.468 387.608 329.992 387.056 329.992H353.343C351.495 329.992 349.875 328.761 349.382 326.984L342.591 298.285C342.445 297.757 342.844 297.234 343.395 297.234Z" fill="#007FE2"/>
<path d="M376.471 328.204H385.692L383.829 319.775L376.471 328.204Z" fill="#0066E9"/>
<path d="M380.961 306.799L379.118 298.458H376.5C367.844 308.373 359.19 318.286 350.534 328.201H362.274L380.961 306.799Z" fill="#0066E9"/>
<path d="M382.836 322.435C383.529 322.815 384.313 323.138 385.085 323.289C384.979 323.754 384.769 324.333 383.824 324.286C383.448 324.266 381.889 322.754 381.884 322.374C381.882 321.709 382.469 322.201 382.836 322.435Z" fill="white"/>
<path d="M387.169 326.833C394.042 324.463 409.511 317.215 413.203 313.032C415.264 310.756 418.294 305.994 420.76 301.279C422.946 297.115 424.69 292.986 424.951 290.641C425.809 282.86 418.183 283.255 415.582 287.08C413.738 289.785 412.055 293.61 410.657 297.366C408.343 303.618 406.831 309.669 406.723 309.986C404.979 311.066 402.69 312.607 400.272 314.225C395.186 317.637 388.913 321.835 385.976 322.943C385.953 322.954 385.933 322.963 385.913 322.967C385.821 323.001 385.726 323.037 385.641 323.064V323.073L387.155 326.8L387.169 326.833Z" fill="white"/>
<path d="M385.812 323.003C384.932 323.233 383.518 323.799 382.629 324.171C381.576 324.6 379.33 325.822 379.172 325.91C378.731 326.184 377.531 326.728 377.261 327.035C377.088 327.233 376.838 327.959 376.903 328.275C376.991 328.696 377.461 328.745 377.461 328.745C377.466 329.3 378.837 329.026 378.805 329.16C378.686 329.715 379.408 330.05 381.144 329.05C381.247 328.99 385.994 327.377 387.468 326.737C387.153 325.798 385.866 322.997 385.812 323.003Z" fill="white"/>
<path d="M421.393 301.731C423.58 297.566 424.692 292.986 424.951 290.641C425.809 282.86 418.183 283.255 415.581 287.08C413.738 289.785 411.294 293.28 409.896 297.038L421.393 301.731Z" fill="#FF550D"/>
<path d="M191.815 397.666C191.815 399.663 190.195 401.28 188.196 401.28H147.211V394.052H188.196C190.195 394.052 191.815 395.669 191.815 397.666Z" fill="#3259B3"/>
<path d="M126.692 361.525H168.05L169.383 375.286C169.585 377.371 168.842 379.437 167.359 380.918L154.229 394.052H114.135L127.218 378.316L126.692 361.525Z" fill="#5378CF"/>
<path d="M168.633 367.559H126.883L126.691 361.525H168.05L168.633 367.559Z" fill="#3259B3"/>
<path d="M122.764 375.807L121.303 361.525H128.578L129.91 375.286C130.113 377.371 129.37 379.437 127.887 380.918L114.727 394.052H148.721C150.722 394.052 152.343 395.669 152.343 397.666C152.343 399.663 150.722 401.28 148.721 401.28H114.196C110.912 401.28 108.033 399.025 107.315 395.694C106.802 393.308 107.711 390.833 109.44 389.108L122.764 375.807Z" fill="#3259B3"/>
<path d="M31.2194 231.891L41.5996 350.579C42.1465 356.844 47.4041 361.656 53.706 361.656H235.22C235.326 361.656 235.432 361.656 235.535 361.653C242.512 361.474 247.936 355.456 247.326 348.47L236.948 229.782C236.402 223.517 231.144 218.707 224.842 218.707H43.3281C36.1979 218.707 30.5982 224.802 31.2194 231.891Z" fill="#3259B3"/>
<path d="M36.1304 231.844L46.5151 350.626C47.0665 356.866 52.3039 361.656 58.5788 361.656H240.189C246.086 361.656 250.93 357.477 252.057 352.021C252.289 350.912 252.361 349.739 252.249 348.528L241.864 229.746C241.313 223.505 236.075 218.707 229.8 218.707H48.1918C48.0883 218.707 47.9825 218.707 47.879 218.712C40.9334 218.885 35.5272 224.891 36.1304 231.844Z" fill="#5378CF"/>
<path d="M245.04 349.157L235.209 236.725H43.8232L43.8367 236.866L53.733 349.991C53.9536 352.52 56.0422 354.422 58.5923 354.422H240.198C242.051 354.422 243.232 353.45 243.775 352.855C244.315 352.268 245.193 351.006 245.04 349.157Z" fill="#BDD6F4"/>
<path d="M235.2 236.601L234.655 230.372C234.434 227.843 232.344 225.938 229.796 225.938H48.2031C46.3373 225.938 45.1534 226.924 44.611 227.511C44.0663 228.106 43.193 229.357 43.3438 231.217L43.8232 236.723H235.209L235.2 236.601Z" fill="#E7F3F9"/>
<path d="M51.4779 234.326C52.8327 234.326 53.9311 233.093 53.9311 231.572C53.9311 230.051 52.8327 228.818 51.4779 228.818C50.123 228.818 49.0246 230.051 49.0246 231.572C49.0246 233.093 50.123 234.326 51.4779 234.326Z" fill="#BDD6F4"/>
<path d="M61.9008 231.572C61.9008 233.093 60.8025 234.326 59.4498 234.326C58.0949 234.326 56.9966 233.093 56.9966 231.572C56.9966 230.051 58.0949 228.818 59.4498 228.818C60.8025 228.818 61.9008 230.051 61.9008 231.572Z" fill="#BDD6F4"/>
<path d="M69.8705 231.572C69.8705 233.093 68.7722 234.326 67.4195 234.326C66.0668 234.326 64.9685 233.093 64.9685 231.572C64.9685 230.051 66.0668 228.818 67.4195 228.818C68.7722 228.818 69.8705 230.051 69.8705 231.572Z" fill="#BDD6F4"/>
<path d="M163.274 346.542H125.233C123.133 346.542 121.27 344.831 121.074 342.719L117.515 304.48C117.32 302.369 118.875 300.657 120.991 300.657H159.304C161.42 300.657 163.283 302.369 163.463 304.48L166.747 342.719C166.932 344.831 165.376 346.542 163.274 346.542Z" fill="#E9F5FB"/>
<path d="M166.34 346.542H128.299C126.199 346.542 124.335 344.831 124.139 342.719L120.581 304.48C120.385 302.369 121.94 300.657 124.056 300.657H162.37C164.485 300.657 166.349 302.369 166.529 304.48L169.813 342.719C169.997 344.831 168.442 346.542 166.34 346.542Z" fill="white"/>
<path d="M147.211 314.51C146.919 311.217 144.008 308.546 140.713 308.546C137.416 308.546 134.988 311.215 135.287 314.51C135.586 317.803 138.496 320.474 141.787 320.474C145.073 320.474 147.504 317.803 147.211 314.51Z" fill="#FF550D"/>
<path d="M158.615 315.952L143.556 334.307L131.868 324.697L126.782 330.099L127.945 342.712L166.007 342.719L164.091 320.539L158.615 315.952Z" fill="#FF550D"/>
<path d="M158.672 291.849H120.358C118.242 291.849 116.368 290.138 116.172 288.026L112.613 249.787C112.418 247.676 113.973 245.964 116.089 245.964H154.402C156.518 245.964 158.393 247.676 158.588 249.787L162.147 288.026C162.345 290.138 160.787 291.849 158.672 291.849Z" fill="#3259B3"/>
<path d="M161.737 291.849H123.424C121.308 291.849 119.433 290.138 119.237 288.026L115.679 249.787C115.483 247.676 117.038 245.964 119.154 245.964H157.467C159.583 245.964 161.458 247.676 161.654 249.787L165.212 288.026C165.408 290.138 163.853 291.849 161.737 291.849Z" fill="#5378CF"/>
<path d="M157.296 268.825C156.387 259.532 148.105 252.036 138.798 252.081C129.491 252.126 122.685 259.696 123.595 268.989C124.504 278.282 132.786 285.778 142.093 285.733C151.397 285.685 158.206 278.118 157.296 268.825Z" fill="white"/>
<path d="M148.877 268.11L135.778 259.489C135.138 259.069 134.355 259.5 134.427 260.23L136.126 277.592C136.198 278.322 137.065 278.744 137.621 278.32L149.021 269.579C149.491 269.216 149.417 268.465 148.877 268.11Z" fill="#3259B3"/>
<path d="M58.5023 261.196C60.0327 255.686 63.7216 250.87 69.3934 248.102C78.646 243.594 90.5701 246.386 97.6846 254.74C107.011 265.723 105.085 281.346 94.1307 288.442C89.7396 291.292 84.6058 292.292 79.5845 291.67C72.8865 290.841 66.3797 287.114 62.1124 280.948C57.8406 274.784 56.749 267.529 58.5023 261.196Z" fill="#E2410F"/>
<path d="M61.0703 261.196C62.6008 255.686 66.2897 250.87 71.9614 248.102C81.214 243.594 93.1382 246.386 100.253 254.74C109.58 265.723 107.653 281.346 96.6988 288.442C92.3077 291.292 87.1739 292.292 82.1526 291.67C75.4545 290.841 68.9477 287.114 64.6804 280.948C60.4064 274.784 59.3148 267.529 61.0703 261.196Z" fill="#FF550D"/>
<path d="M91.5447 268.326C91.6685 268.131 91.8868 268.027 92.1276 268.047L94.322 268.247C94.0812 266.365 93.4083 264.613 92.3189 263.034C90.5656 260.493 87.9683 258.714 85.0064 258.024C82.0423 257.333 79.0759 257.815 76.6564 259.381C75.8866 259.878 74.8063 259.628 74.2459 258.82C73.6854 258.011 73.8565 256.951 74.6262 256.452C81.1758 252.218 90.3743 254.361 95.1143 261.228C96.6425 263.445 97.5743 265.976 97.8174 268.566L100.264 268.791C100.505 268.813 100.716 268.957 100.833 269.175C100.95 269.393 100.946 269.642 100.82 269.838L96.6223 276.473C96.5097 276.653 96.3184 276.754 96.1046 276.754C96.0843 276.754 96.0618 276.754 96.0416 276.752C95.8008 276.729 95.5892 276.586 95.4722 276.368L91.5334 268.986C91.4164 268.768 91.4209 268.521 91.5447 268.326Z" fill="white"/>
<path d="M65.6617 267.973L69.8345 261.338C69.9583 261.142 70.1721 261.037 70.4175 261.059C70.6583 261.082 70.8721 261.225 70.9891 261.443L74.9549 268.825C75.0719 269.043 75.0674 269.29 74.9436 269.487C74.8198 269.685 74.6015 269.788 74.3629 269.766L72.1685 269.566C72.4161 271.448 73.0935 273.2 74.1874 274.78C75.9429 277.32 78.538 279.099 81.4909 279.789C84.4438 280.481 87.4012 279.998 89.8162 278.432C90.5837 277.936 91.6617 278.187 92.2177 278.994C92.7736 279.8 92.6003 280.863 91.8328 281.361C89.5641 282.833 86.9781 283.533 84.3695 283.533C79.4765 283.533 74.5025 281.065 71.4033 276.586C69.8705 274.369 68.9275 271.837 68.6732 269.247L66.2267 269.022C65.9858 269 65.772 268.856 65.655 268.638C65.5334 268.418 65.5379 268.171 65.6617 267.973Z" fill="white"/>
<path d="M103.298 323.599C103.273 323.154 103.233 322.696 103.174 322.237L107.522 319.742L107.468 319.51C107.169 318.214 106.755 316.929 106.239 315.689L106.147 315.467L101.02 315.552C100.579 314.735 100.077 313.942 99.5234 313.191L101.918 308.793L101.952 305.662H98.6119L94.3558 308.299C93.5748 307.787 92.7556 307.329 91.9161 306.933L91.7112 301.8L90.7052 300.657H87.3607L85.1212 305.145L82.9763 300.657H79.6318L79.4022 300.698C78.1193 300.927 76.8499 301.273 75.6345 301.72L75.4162 301.8L75.8056 306.933C75.0111 307.329 74.2459 307.787 73.5234 308.299L72.3035 305.662H68.9612L68.7879 305.815C67.8314 306.666 66.9446 307.607 66.1569 308.614L66.0151 308.793L68.9207 313.191C68.4548 313.944 68.043 314.737 67.6986 315.552L65.898 315.467H62.5625L62.495 315.689C62.1236 316.929 61.858 318.216 61.7095 319.51L61.6825 319.742L66.3189 322.237C66.3144 322.696 66.3257 323.154 66.3527 323.599C66.3797 324.043 66.4247 324.502 66.4855 324.96L62.1574 327.453L62.2137 327.685C62.522 328.981 62.9429 330.266 63.4673 331.506L63.5618 331.728H66.8906L68.6754 331.643C69.1188 332.46 69.6229 333.253 70.1789 334.004L67.8156 338.402L67.9777 338.582C68.8847 339.588 69.8795 340.531 70.9328 341.38L71.1219 341.533H74.4439L75.3442 338.896C76.1229 339.408 76.9399 339.866 77.7772 340.262L77.9955 345.395L78.2206 345.475C79.481 345.925 80.7819 346.268 82.0828 346.497L82.3168 346.538H85.6366L87.2504 342.05L89.9895 346.538H93.3092L94.178 345.395L93.8021 340.262C94.5921 339.866 95.3574 339.408 96.0776 338.896L100.604 341.533H103.926L103.55 338.402L100.678 334.004C101.146 333.253 101.558 332.46 101.909 331.643L107.032 331.728L107.099 331.506C107.48 330.266 107.752 328.979 107.912 327.685L107.941 327.453L103.325 324.96C103.332 324.502 103.323 324.043 103.298 323.599ZM85.4858 335.071C79.1726 335.071 73.7462 329.933 73.3681 323.599C72.99 317.262 77.82 312.127 84.1579 312.127C90.4959 312.127 95.92 317.262 96.2757 323.599C96.6313 329.935 91.8013 335.071 85.4858 335.071Z" fill="#3259B3"/>
<path d="M106.631 323.599C106.606 323.154 106.566 322.696 106.507 322.237L110.856 319.742L110.802 319.51C110.502 318.214 110.09 316.929 109.575 315.689L109.483 315.467L104.356 315.552C103.914 314.735 103.413 313.942 102.861 313.191L105.258 308.793L105.096 308.614C104.191 307.607 103.199 306.664 102.141 305.815L101.952 305.662L97.6958 308.299C96.9148 307.787 96.0956 307.329 95.2561 306.933L95.0535 301.8L94.8262 301.72C93.5568 301.27 92.2491 300.927 90.9392 300.698L90.7029 300.657L88.4612 305.145C87.5362 305.078 86.6494 305.078 85.7311 305.145L82.974 300.657L82.7445 300.698C81.4616 300.927 80.1922 301.273 78.9746 301.72L78.7562 301.8L79.1411 306.933C78.3466 307.329 77.5814 307.787 76.8589 308.299L72.3013 305.662L72.128 305.815C71.1714 306.666 70.2846 307.607 69.4946 308.614L69.3529 308.793L72.2562 313.191C71.7881 313.944 71.3785 314.737 71.0319 315.552L65.8958 315.467L65.8283 315.689C65.4546 316.929 65.1891 318.216 65.0405 319.51L65.0113 319.742L69.6454 322.237C69.6409 322.696 69.6499 323.154 69.6769 323.599C69.704 324.043 69.7467 324.502 69.8097 324.96L65.4817 327.453L65.5379 327.685C65.8463 328.981 66.2671 330.266 66.7893 331.506L66.8838 331.728L71.9974 331.643C72.4408 332.46 72.945 333.253 73.5009 334.004L71.1354 338.402L71.2974 338.582C72.2022 339.588 73.197 340.531 74.2526 341.38L74.4417 341.533L78.664 338.896C79.4427 339.408 80.2597 339.866 81.097 340.262L81.313 345.395L81.5381 345.475C82.7985 345.925 84.0994 346.268 85.4003 346.497L85.6344 346.538L87.8558 342.05C88.7763 342.117 89.6564 342.117 90.5701 342.05L93.307 346.538L93.5365 346.497C94.8104 346.268 96.0708 345.925 97.2817 345.475L97.4978 345.395L97.1264 340.262C97.9164 339.866 98.6816 339.408 99.4019 338.896L103.928 341.533L104.099 341.38C105.058 340.531 105.942 339.59 106.735 338.582L106.876 338.402L104.007 334.004C104.475 333.253 104.889 332.46 105.238 331.643L110.36 331.728L110.428 331.506C110.808 330.266 111.083 328.979 111.243 327.685L111.272 327.453L106.658 324.96C106.663 324.502 106.654 324.043 106.631 323.599ZM88.8123 335.071C82.4991 335.071 77.0772 329.933 76.7014 323.599C76.3277 317.262 81.16 312.127 87.4979 312.127C93.8336 312.127 99.2578 317.262 99.6089 323.599C99.96 329.935 95.1278 335.071 88.8123 335.071Z" fill="#5378CF"/>
<path d="M243.115 346.504C243.091 347.697 243.653 405.344 243.653 405.344C242.271 406.638 239.937 406.557 239.89 406.442C239.89 406.442 230.559 348.164 230.572 345.417C232.22 346.518 242.197 347.538 243.115 346.504Z" fill="white"/>
<path d="M245.398 316.804C245.227 345.707 244.034 404.149 244.034 404.149C242.785 403.291 240.397 403.551 239.019 404.832C239.019 404.832 236.289 383.595 231.686 361.957C227.712 343.279 226.901 325.366 225.328 324.291L225.083 320.685C230.421 319.998 235.684 318.89 240.984 317.781C242.53 317.459 243.995 317.152 245.398 316.804Z" fill="#002382"/>
<path d="M243.653 404.192C243.653 404.192 243.748 404.578 244.468 405.203C245.728 406.294 250.979 409.012 251.103 410.814C251.164 411.724 249.3 412.669 247.741 412.84C246.179 413.008 244.801 413.013 243.93 412.575C242.845 412.031 240.685 409.583 240.311 409.046C239.661 408.109 239.453 406.371 239.658 405.519C240.201 403.25 243.653 404.192 243.653 404.192Z" fill="#002CA7"/>
<path d="M243.676 406.541C245.202 407.687 250.18 409.639 250.284 411.155C250.336 411.923 248.767 412.719 247.452 412.862C246.138 413.004 244.977 413.008 244.245 412.64C243.331 412.182 241.504 410.126 241.196 409.666C239.517 407.159 242.195 405.429 243.676 406.541Z" fill="#002381"/>
<path d="M254.947 308.209C255.289 308.4 256.415 307.113 256.484 306.733C256.379 305.77 255.816 305.835 255.848 304.916C255.703 305.711 255.379 306.518 254.999 307.234C254.76 307.614 254.394 307.962 254.947 308.209Z" fill="white"/>
<path d="M255.978 307.077C256.091 308.22 256.635 310.739 256.674 310.914C256.811 311.419 256.998 312.733 257.218 313.084C257.358 313.308 257.995 313.758 258.319 313.785C258.749 313.823 258.933 313.38 258.933 313.38C259.473 313.537 259.599 312.133 259.723 312.201C260.227 312.475 260.756 311.871 260.284 309.907C260.254 309.791 260.052 304.741 259.852 303.133C258.85 303.173 255.863 304.166 255.857 304.217C255.825 305.134 255.872 306.113 255.978 307.077Z" fill="white"/>
<path d="M247.257 276.761C247.223 277.107 247.241 277.428 247.302 277.689C248.393 282.451 255.501 299.374 255.848 304.516C257.464 304.056 258.841 303.782 259.91 303.775C259.17 295.329 254.952 274.508 251.623 273.838C248.573 273.225 247.41 275.233 247.257 276.761Z" fill="#FF5B8A"/>
<path d="M224.39 264.301C227.721 267.36 240.667 274.119 246.242 278.538C253.079 283.958 254.425 277.26 252.888 274.95C248.832 268.872 234.806 254.118 231.43 255.888C229.969 256.659 223.789 263.746 224.39 264.301Z" fill="#FF5B8A"/>
<path d="M221.227 264.813C226.692 267.549 229.566 269.139 233.933 271.774C238.324 274.425 242.866 277.165 245.605 279.335C246.077 279.71 246.536 280.038 247 280.328C247.646 282.332 248.612 284.998 249.631 287.81C251.855 293.954 254.625 301.598 254.826 304.581L260.93 303.683C260.279 296.25 256.955 279.03 253.691 274.315C250.376 269.373 240.786 258.101 237.047 253.871C235.9 252.573 220.897 264.649 221.227 264.813Z" fill="#E2410F"/>
<path d="M222.54 344.642C222.639 347.387 215.133 405.928 215.133 405.928C215.087 406.045 212.758 406.2 211.336 404.946C211.336 404.946 210.095 347.311 210.035 346.118C210.984 347.12 220.926 345.79 222.54 344.642Z" fill="white"/>
<path d="M227.847 303.341C227.847 303.341 227.804 318.401 227.12 323.363C225.74 333.348 225.927 343.591 222.54 362.383C218.614 384.152 215.619 404.07 215.619 404.07C214.201 402.835 212.139 402.869 210.917 403.765C210.917 403.765 205.801 304.882 206.521 300.821C209.029 302.025 220.145 303.566 227.847 303.341Z" fill="#002382"/>
<path d="M209.472 306.226C217.178 306.064 224.858 306.015 232.524 305.055C237.266 304.462 241.684 303.299 245.708 301.513C246.732 308.58 247.38 315.624 247.212 321.534C247.059 321.918 243.989 323.257 242.834 323.63C236.422 325.71 219.868 324.699 204.714 322.192C203.917 316.574 204.439 312.65 204.244 306.232C205.95 306.295 207.692 306.262 209.472 306.226Z" fill="#E2410F"/>
<path d="M223.674 241.431C223.359 243.567 224.309 250.452 225.045 251.571C223.269 255.495 216.697 253.552 216.258 251.234C217.284 248.745 216.019 245.09 216.006 244.652C217.588 244.892 223.138 241.824 223.674 241.431Z" fill="white"/>
<path d="M217.858 233.74C220.989 233.955 222.873 236.676 222.659 239.771C222.657 239.802 222.438 242.985 222.438 242.985C222.276 245.322 218.416 248.745 216.409 248.174C211.66 246.824 211.241 237.942 211.473 236.959C212.119 234.211 214.941 233.54 217.858 233.74Z" fill="white"/>
<path d="M204.685 264C204.277 259.723 205.333 255.758 210.046 253.882C211.617 253.255 216.256 251.232 216.256 251.232C216.256 251.232 217.399 252.415 220.435 252.606C223.163 252.779 224.833 251.11 224.833 251.11C224.833 251.11 227.559 251.25 232.978 251.926C237.329 252.469 240.187 258.267 240.613 260.906C241.018 263.418 247.819 297.175 247.239 317.338C247.088 317.722 245.326 318.47 244.833 318.765L242.816 306.727L242.548 319.616C236.003 321.231 221.338 320.559 211.615 320.51L208.583 306.307L207.894 320.532C206.958 320.555 205.052 320.582 204.318 320.636C201.198 298.721 204.784 265.037 204.685 264Z" fill="#FF550D"/>
<path d="M210.516 404.83C211.099 404.189 211.313 403.866 211.313 403.866C211.313 403.866 214.644 402.965 215.38 404.911C215.704 405.771 215.409 407.584 214.793 408.541C214.437 409.091 212.353 411.605 211.286 412.182C210.429 412.647 209.051 412.683 207.487 412.564C205.923 412.445 204.03 411.555 204.064 410.645C204.127 408.839 209.393 406.063 210.516 404.83Z" fill="#002CA7"/>
<path d="M211.351 406.144C212.796 404.985 215.526 406.631 213.926 409.19C213.634 409.657 211.873 411.771 210.973 412.256C210.253 412.647 209.092 412.678 207.775 412.577C206.458 412.476 204.863 411.728 204.89 410.96C204.946 409.441 209.861 407.334 211.351 406.144Z" fill="#002381"/>
<path d="M209.695 234.75C211.727 230.089 219.429 226.659 223.978 230.242C227.993 233.405 227.439 239.075 224.977 242.846C223.708 244.789 226.102 244.401 226.102 244.401C226.102 244.401 224.185 246.537 221.986 247.249C214.588 249.65 209.837 239.733 209.837 239.733C209.837 239.733 212.862 238.81 211.921 238.879C207.44 239.198 206.47 237.192 206.931 234.881C206.782 235.802 208.178 238.225 209.695 234.75Z" fill="#28468D"/>
<path d="M157.269 250.167C156.873 250.23 156.783 251.986 156.968 252.339C157.668 253.051 158.082 252.638 158.642 253.401C158.253 252.669 157.999 251.811 157.85 250.989C157.798 250.533 157.873 250.016 157.269 250.167Z" fill="white"/>
<path d="M157.157 251.737C156.338 250.886 154.292 249.196 154.148 249.08C153.713 248.758 152.725 247.815 152.325 247.671C152.068 247.579 151.269 247.62 150.988 247.804C150.616 248.049 150.749 248.52 150.749 248.52C150.214 248.736 151.008 249.953 150.866 249.976C150.283 250.075 150.241 250.901 151.875 252.186C151.974 252.265 155.359 256.214 156.545 257.386C157.328 256.717 159.111 254.017 159.081 253.97C158.521 253.211 157.857 252.449 157.157 251.737Z" fill="white"/>
<path d="M182.54 268.681C182.277 268.438 182.005 268.252 181.752 268.14C177.161 266.075 162.797 256.353 158.357 253.444C157.731 255.053 157.101 256.349 156.443 257.227C163.841 261.868 179.617 276.377 182.232 274.065C184.629 271.952 183.702 269.752 182.54 268.681Z" fill="white"/>
<path d="M208.151 255.167C203.823 257.144 180.29 266.055 179.77 266.25C177.721 265.536 162.241 254.893 159.666 253.206L155.883 258.116C161.643 262.91 174.661 275.206 180.542 275.46C186.675 275.815 208.835 274.548 211.038 269.698C213.233 264.876 208.495 255.012 208.151 255.167Z" fill="#FF550D"/>
<path d="M201.451 208.064C204.465 208.064 206.908 205.625 206.908 202.617C206.908 199.609 204.465 197.17 201.451 197.17C198.436 197.17 195.993 199.609 195.993 202.617C195.993 205.625 198.436 208.064 201.451 208.064Z" fill="#3259B3"/>
<path d="M206.911 180.823C206.911 183.831 204.466 186.271 201.453 186.271C198.437 186.271 195.995 183.831 195.995 180.823C195.995 177.813 198.439 175.376 201.453 175.376C204.466 175.376 206.911 177.815 206.911 180.823Z" fill="#3259B3"/>
<path d="M201.451 164.479C204.465 164.479 206.908 162.04 206.908 159.032C206.908 156.023 204.465 153.585 201.451 153.585C198.436 153.585 195.993 156.023 195.993 159.032C195.993 162.04 198.436 164.479 201.451 164.479Z" fill="#3259B3"/>
<path d="M206.755 138.568C207.492 135.65 205.72 132.689 202.797 131.954C199.874 131.218 196.907 132.987 196.17 135.904C195.433 138.821 197.205 141.782 200.128 142.518C203.051 143.254 206.018 141.485 206.755 138.568Z" fill="#3259B3"/>
<path d="M201.451 120.894C204.465 120.894 206.908 118.455 206.908 115.447C206.908 112.438 204.465 109.999 201.451 109.999C198.436 109.999 195.993 112.438 195.993 115.447C195.993 118.455 198.436 120.894 201.451 120.894Z" fill="#3259B3"/>
<path d="M228.51 161.115C229.664 158.336 228.342 155.149 225.557 153.998C222.772 152.846 219.579 154.166 218.425 156.946C217.272 159.725 218.594 162.912 221.379 164.063C224.164 165.215 227.357 163.895 228.51 161.115Z" fill="#3259B3"/>
<path d="M245.296 164.479C248.311 164.479 250.754 162.04 250.754 159.032C250.754 156.023 248.311 153.585 245.296 153.585C242.282 153.585 239.838 156.023 239.838 159.032C239.838 162.04 242.282 164.479 245.296 164.479Z" fill="#3259B3"/>
<path d="M267.13 164.479C264.114 164.479 261.672 162.04 261.672 159.032C261.672 156.022 264.117 153.585 267.13 153.585C270.146 153.585 272.588 156.024 272.588 159.032C272.59 162.04 270.146 164.479 267.13 164.479Z" fill="#3259B3"/>
<path d="M522.55 175.376C522.55 172.366 524.994 169.929 528.008 169.929C531.022 169.929 533.466 172.368 533.466 175.376C533.466 178.384 531.022 180.823 528.008 180.823C524.994 180.823 522.55 178.384 522.55 175.376Z" fill="#3259B3"/>
<path d="M522.55 197.167C522.55 194.157 524.994 191.72 528.008 191.72C531.022 191.72 533.466 194.16 533.466 197.167C533.466 200.175 531.022 202.615 528.008 202.615C524.994 202.617 522.55 200.177 522.55 197.167Z" fill="#3259B3"/>
<path d="M522.55 218.961C522.55 215.951 524.994 213.514 528.008 213.514C531.022 213.514 533.466 215.953 533.466 218.961C533.466 221.969 531.022 224.408 528.008 224.408C524.994 224.408 522.55 221.969 522.55 218.961Z" fill="#3259B3"/>
<path d="M506.001 202.615C509.015 202.615 511.459 200.176 511.459 197.167C511.459 194.159 509.015 191.72 506.001 191.72C502.987 191.72 500.543 194.159 500.543 197.167C500.543 200.176 502.987 202.615 506.001 202.615Z" fill="#3259B3"/>
<path d="M484.165 202.615C487.179 202.615 489.623 200.176 489.623 197.167C489.623 194.159 487.179 191.72 484.165 191.72C481.15 191.72 478.707 194.159 478.707 197.167C478.707 200.176 481.15 202.615 484.165 202.615Z" fill="#3259B3"/>
<path d="M462.331 191.72C465.347 191.72 467.789 194.16 467.789 197.167C467.789 200.175 465.344 202.615 462.331 202.615C459.317 202.615 456.873 200.175 456.873 197.167C456.873 194.16 459.317 191.72 462.331 191.72Z" fill="#3259B3"/>
<path d="M440.497 202.615C443.511 202.615 445.955 200.176 445.955 197.167C445.955 194.159 443.511 191.72 440.497 191.72C437.482 191.72 435.039 194.159 435.039 197.167C435.039 200.176 437.482 202.615 440.497 202.615Z" fill="#3259B3"/>
<path d="M418.748 202.615C421.763 202.615 424.206 200.176 424.206 197.167C424.206 194.159 421.763 191.72 418.748 191.72C415.734 191.72 413.29 194.159 413.29 197.167C413.29 200.176 415.734 202.615 418.748 202.615Z" fill="#3259B3"/>
<path d="M576.319 134.817C574.969 134.769 573.661 134.922 572.412 135.23C572.531 134.545 572.621 133.851 572.648 133.136C572.95 124.672 566.319 117.565 557.837 117.264C553.916 117.125 550.299 118.477 547.499 120.793C544.317 112.767 536.615 106.965 527.421 106.637C515.031 106.196 504.628 115.865 504.187 128.23C504.16 129.001 504.171 129.765 504.221 130.517C502.082 129.327 499.645 128.601 497.032 128.509C488.216 128.197 480.816 135.075 480.503 143.872C480.19 152.67 487.082 160.056 495.895 160.368L576.709 163.237L576.711 163.167C583.929 162.72 589.765 156.869 590.026 149.508C590.307 141.672 584.17 135.095 576.319 134.817Z" fill="#3259B3"/>
<path d="M567.499 134.471C566.148 134.471 564.845 134.671 563.607 135.021C563.702 134.334 563.769 133.635 563.769 132.921C563.769 124.45 556.889 117.583 548.402 117.583C544.479 117.583 540.911 119.061 538.197 121.476C534.731 113.569 526.827 108.043 517.626 108.043C505.229 108.043 495.177 118.075 495.177 130.448C495.177 131.218 495.216 131.98 495.292 132.73C493.113 131.618 490.651 130.978 488.036 130.978C479.215 130.978 472.065 138.114 472.065 146.918C472.065 155.721 479.215 162.857 488.036 162.857H568.901V162.788C576.099 162.085 581.721 156.031 581.721 148.663C581.721 140.826 575.354 134.471 567.499 134.471Z" fill="#5378CF"/>
<path d="M275.946 207.521C275.948 207.336 275.84 207.164 275.694 207.042C275.694 207.042 275.291 206.71 274.569 206.132C274.443 206.034 274.287 205.98 274.13 205.98C273.916 205.98 273.716 206.076 273.581 206.243C273.464 206.389 273.412 206.568 273.43 206.752C273.43 206.755 273.43 206.757 273.43 206.759C273.45 206.946 273.545 207.114 273.691 207.231C274.256 207.68 274.621 207.979 274.744 208.08L274.794 208.123C274.938 208.242 275.12 208.3 275.307 208.282C275.496 208.264 275.665 208.174 275.784 208.031C275.908 207.891 275.964 207.707 275.946 207.521Z" fill="white"/>
<path d="M247.885 190.15C246.856 189.862 245.888 189.669 245.01 189.577L244.934 189.573C244.574 189.573 244.272 189.842 244.234 190.199C244.229 190.249 244.229 190.298 244.234 190.348C244.268 190.671 244.524 190.938 244.86 190.977C245.665 191.062 246.554 191.242 247.504 191.507C247.878 191.608 248.265 191.39 248.371 191.019C248.479 190.646 248.26 190.258 247.885 190.15Z" fill="white"/>
<path d="M250.106 192.385C250.905 192.695 251.76 193.066 252.649 193.481C253 193.645 253.421 193.495 253.588 193.144C253.752 192.794 253.599 192.374 253.25 192.21C252.35 191.788 251.465 191.408 250.619 191.075L250.615 191.073C250.534 191.042 250.448 191.028 250.363 191.028C250.072 191.028 249.816 191.203 249.708 191.475C249.665 191.583 249.651 191.695 249.663 191.803C249.69 192.055 249.852 192.286 250.106 192.385Z" fill="white"/>
<path d="M242.285 191.06C242.469 191.019 242.625 190.911 242.728 190.754C242.832 190.597 242.863 190.406 242.825 190.224C242.755 189.905 242.465 189.672 242.139 189.672C242.089 189.672 242.037 189.676 241.988 189.687C240.865 189.932 239.922 190.431 239.183 191.17C239.051 191.302 238.976 191.478 238.979 191.666C238.979 191.691 238.979 191.716 238.983 191.738C238.999 191.898 239.071 192.048 239.188 192.165C239.323 192.297 239.503 192.369 239.692 192.367C239.879 192.365 240.054 192.291 240.183 192.16C240.721 191.615 241.43 191.246 242.285 191.06Z" fill="white"/>
<path d="M254.279 189.481C254.279 190.096 254.234 190.709 254.144 191.307C254.135 191.365 254.135 191.424 254.139 191.482C254.171 191.794 254.412 192.057 254.736 192.107C254.922 192.136 255.109 192.089 255.26 191.976C255.411 191.864 255.51 191.7 255.537 191.516C255.636 190.853 255.688 190.17 255.688 189.481C255.688 189.18 255.679 188.874 255.656 188.564C255.634 188.198 255.325 187.906 254.909 187.908C254.722 187.919 254.549 188.005 254.425 188.146C254.301 188.288 254.238 188.467 254.252 188.656C254.27 188.935 254.279 189.211 254.279 189.481Z" fill="white"/>
<path d="M249.726 176.169C249.732 175.983 249.663 175.803 249.534 175.666C248.864 174.958 248.148 174.296 247.403 173.694C247.277 173.592 247.122 173.536 246.96 173.536C246.743 173.536 246.543 173.633 246.413 173.799C246.293 173.945 246.239 174.127 246.26 174.313V174.316C246.28 174.502 246.37 174.671 246.516 174.787C247.216 175.351 247.887 175.971 248.51 176.632C248.641 176.769 248.816 176.847 249.005 176.852C249.192 176.856 249.372 176.787 249.505 176.659C249.642 176.531 249.721 176.355 249.726 176.169Z" fill="white"/>
<path d="M259.752 196.545C259.669 196.682 259.638 196.837 259.653 196.985C259.676 197.194 259.791 197.392 259.982 197.513C260.781 198.008 261.571 198.511 262.345 199.016C262.503 199.119 262.692 199.155 262.876 199.115C263.061 199.077 263.219 198.967 263.318 198.812C263.421 198.654 263.457 198.468 263.419 198.284C263.381 198.1 263.273 197.942 263.115 197.839C262.332 197.327 261.533 196.817 260.723 196.318L260.718 196.316C260.603 196.249 260.477 196.213 260.351 196.213C260.106 196.213 259.883 196.336 259.752 196.545Z" fill="white"/>
<path d="M234.702 169.36C234.734 168.974 234.45 168.633 234.063 168.599C233.131 168.516 232.164 168.473 231.187 168.471H231.184C230.797 168.471 230.482 168.788 230.482 169.174C230.482 169.199 230.484 169.223 230.487 169.248C230.502 169.408 230.572 169.556 230.689 169.67C230.822 169.803 231 169.877 231.187 169.877C232.114 169.879 233.039 169.92 233.955 170.001C234.34 170.016 234.669 169.736 234.702 169.36Z" fill="white"/>
<path d="M238.643 196.855L238.641 196.777C238.641 196.312 238.684 195.815 238.767 195.299C238.826 194.939 238.9 194.6 238.992 194.285C239.044 194.106 239.024 193.915 238.934 193.751C238.844 193.587 238.695 193.468 238.513 193.414C238.447 193.394 238.38 193.385 238.315 193.385C238.006 193.385 237.729 193.591 237.639 193.89C237.534 194.258 237.444 194.656 237.376 195.074C237.279 195.667 237.232 196.24 237.232 196.777V196.871C237.232 196.893 237.234 196.914 237.237 196.934C237.27 197.271 237.545 197.538 237.883 197.563L238.022 197.601L238.085 197.549C238.407 197.482 238.648 197.194 238.643 196.855Z" fill="white"/>
<path d="M224.88 169.718C224.941 170.097 225.301 170.36 225.684 170.304C226.575 170.165 227.5 170.059 228.427 169.985C228.616 169.971 228.787 169.884 228.909 169.742C229.031 169.601 229.091 169.419 229.076 169.23C229.053 168.837 228.745 168.583 228.317 168.585C227.372 168.66 226.413 168.77 225.468 168.916C225.283 168.945 225.119 169.044 225.006 169.194C224.903 169.336 224.855 169.506 224.874 169.682C224.876 169.693 224.878 169.704 224.88 169.718Z" fill="white"/>
<path d="M245.024 172.025C244.198 171.524 243.331 171.072 242.447 170.686C242.357 170.645 242.256 170.625 242.161 170.625C241.882 170.625 241.63 170.789 241.517 171.045C241.466 171.16 241.45 171.281 241.461 171.398C241.486 171.64 241.639 171.865 241.878 171.971C242.71 172.337 243.521 172.759 244.293 173.226C244.623 173.424 245.058 173.318 245.258 172.988C245.461 172.66 245.355 172.227 245.024 172.025Z" fill="white"/>
<path d="M253.032 180.848C253.081 180.666 253.057 180.477 252.964 180.316C252.818 180.06 252.665 179.801 252.505 179.543C252.15 178.97 251.776 178.415 251.393 177.892C251.263 177.712 251.049 177.604 250.82 177.602C250.673 177.604 250.531 177.649 250.408 177.739C250.198 177.892 250.099 178.139 250.124 178.379C250.138 178.498 250.18 178.617 250.255 178.721C250.619 179.215 250.973 179.741 251.306 180.28C251.456 180.527 251.603 180.769 251.742 181.012C251.936 181.347 252.366 181.463 252.703 181.273C252.865 181.178 252.982 181.028 253.032 180.848Z" fill="white"/>
<path d="M240.198 170.555C240.311 170.185 240.102 169.792 239.73 169.679C238.835 169.408 237.889 169.176 236.921 168.994C236.874 168.985 236.827 168.981 236.791 168.983C236.453 168.983 236.161 169.223 236.098 169.556C236.084 169.623 236.082 169.691 236.089 169.758C236.12 170.059 236.345 170.32 236.658 170.378C237.565 170.549 238.459 170.769 239.321 171.029C239.692 171.135 240.086 170.924 240.198 170.555Z" fill="white"/>
<path d="M255.19 185.664C254.959 184.757 254.643 183.829 254.254 182.906C254.144 182.645 253.889 182.477 253.61 182.477C253.516 182.474 253.424 182.495 253.334 182.533C253.16 182.605 253.025 182.742 252.955 182.915C252.91 183.022 252.895 183.137 252.906 183.252C252.913 183.319 252.931 183.389 252.958 183.454C253.32 184.314 253.613 185.177 253.826 186.015C253.874 186.199 253.991 186.354 254.155 186.45C254.317 186.545 254.506 186.569 254.682 186.522C254.864 186.477 255.017 186.363 255.114 186.201C255.208 186.035 255.238 185.846 255.19 185.664Z" fill="white"/>
<path d="M251.445 198.219L251.441 198.214C251.306 198.07 251.119 197.99 250.928 197.992C250.75 197.992 250.579 198.057 250.448 198.178C249.795 198.778 249.075 199.31 248.31 199.762C248.065 199.906 247.941 200.175 247.968 200.44C247.977 200.537 248.008 200.633 248.06 200.723C248.256 201.054 248.686 201.168 249.023 200.973C249.876 200.472 250.675 199.879 251.402 199.212C251.686 198.951 251.706 198.506 251.445 198.219Z" fill="white"/>
<path d="M254.763 194.375C254.774 194.346 254.783 194.319 254.792 194.29C254.794 194.299 254.796 194.306 254.799 194.312C254.855 194.492 254.977 194.638 255.141 194.723C255.913 195.132 256.734 195.588 257.583 196.076C257.747 196.17 257.936 196.195 258.119 196.148C258.301 196.098 258.452 195.981 258.544 195.822C258.638 195.66 258.663 195.469 258.616 195.29C258.566 195.108 258.452 194.955 258.287 194.86C257.45 194.378 256.613 193.913 255.8 193.483C255.701 193.43 255.586 193.403 255.469 193.4C255.208 193.4 254.97 193.544 254.848 193.773C254.821 193.823 254.801 193.877 254.787 193.931C254.778 193.899 254.767 193.868 254.754 193.836C254.679 193.665 254.544 193.533 254.371 193.463C254.29 193.43 254.202 193.412 254.106 193.412C253.817 193.412 253.561 193.587 253.453 193.854C253.126 194.67 252.703 195.451 252.192 196.181C252.093 196.325 252.055 196.491 252.073 196.653C252.093 196.851 252.197 197.037 252.37 197.158C252.526 197.266 252.712 197.307 252.897 197.273C253.081 197.239 253.244 197.136 253.349 196.983C253.923 196.168 254.398 195.29 254.763 194.375Z" fill="white"/>
<path d="M272.613 204.863C272.588 204.677 272.494 204.511 272.343 204.396C271.67 203.879 270.909 203.307 270.083 202.696C269.962 202.606 269.815 202.556 269.66 202.556C269.437 202.556 269.228 202.664 269.097 202.842C268.992 202.983 268.944 203.156 268.96 203.331C268.962 203.343 268.962 203.352 268.965 203.363C268.992 203.549 269.091 203.713 269.241 203.825C270.063 204.432 270.817 205 271.485 205.515C271.794 205.748 272.235 205.69 272.471 205.384C272.588 205.234 272.647 205.043 272.613 204.863Z" fill="white"/>
<path d="M267.792 201.033C267.049 200.505 266.273 199.962 265.472 199.414L265.469 199.411C265.35 199.331 265.213 199.29 265.073 199.29C264.844 199.29 264.625 199.403 264.49 199.596C264.393 199.737 264.355 199.903 264.371 200.063C264.391 200.261 264.495 200.452 264.673 200.571C265.467 201.114 266.237 201.651 266.973 202.177C267.126 202.285 267.313 202.329 267.497 202.298C267.682 202.267 267.846 202.165 267.954 202.013C268.181 201.698 268.107 201.258 267.792 201.033Z" fill="white"/>
<path d="M246.773 201.305C246.681 201.009 246.408 200.811 246.093 200.811C246.023 200.813 245.954 200.822 245.888 200.842C245.004 201.119 244.139 201.267 243.322 201.28C243.133 201.283 242.958 201.359 242.827 201.492C242.695 201.626 242.625 201.804 242.627 201.995C242.627 202.015 242.629 202.035 242.632 202.055C242.668 202.395 242.944 202.655 243.343 202.687C244.299 202.671 245.296 202.502 246.309 202.186C246.681 202.069 246.89 201.671 246.773 201.305Z" fill="white"/>
<path d="M241.229 201.752C241.31 201.581 241.317 201.39 241.252 201.213C241.187 201.036 241.058 200.896 240.887 200.818C240.14 200.472 239.568 199.939 239.19 199.239C239.066 199.009 238.83 198.868 238.571 198.868C238.461 198.868 238.346 198.895 238.236 198.951C237.977 199.09 237.842 199.369 237.871 199.643C237.88 199.73 237.907 199.82 237.95 199.901C238.474 200.876 239.264 201.611 240.295 202.089C240.646 202.258 241.065 202.105 241.229 201.752Z" fill="white"/>
<path d="M222.931 170.836C223.113 170.794 223.271 170.681 223.37 170.522C223.469 170.362 223.498 170.171 223.456 169.992C223.381 169.673 223.098 169.45 222.769 169.45H222.765C222.708 169.45 222.654 169.459 222.607 169.47C221.741 169.677 221.23 169.837 221.171 169.855C220.991 169.913 220.847 170.037 220.761 170.203C220.698 170.326 220.674 170.461 220.687 170.596C220.692 170.645 220.703 170.692 220.719 170.74C220.836 171.106 221.23 171.31 221.608 171.193C221.61 171.189 222.092 171.036 222.931 170.836Z" fill="white"/>
<path d="M281.546 199.063L276.516 207.633L276.264 208.033L279.131 211.157L275.888 209.136L275.519 208.936L267.405 215.124L289.97 220.345L281.546 199.063ZM270.259 214.507L275.613 210.425L286.221 217.038L277.814 207.88L281.33 201.891L287.945 218.599L270.259 214.507Z" fill="white"/>
<path d="M366.433 63.8446L362.51 61.6701C362.53 61.322 362.542 60.9715 362.542 60.6346C362.542 60.2954 362.53 59.9472 362.51 59.599L366.433 57.4246C366.575 57.346 366.654 57.1843 366.624 57.0248L366.584 56.7867C366.368 55.5826 366.048 54.3876 365.63 53.233L365.558 53.0286C365.506 52.8826 365.375 52.7905 365.191 52.7748L360.703 52.8489C360.392 52.2312 360.043 51.6269 359.661 51.0541L361.965 47.2174C362.049 47.0781 362.035 46.8984 361.929 46.7749L361.79 46.6086C360.993 45.6652 360.109 44.7846 359.166 43.9894L358.999 43.8502C358.873 43.7446 358.695 43.7311 358.556 43.8142L354.709 46.11C354.129 45.7281 353.525 45.3799 352.911 45.0722L352.985 40.5953C352.987 40.4313 352.886 40.2853 352.731 40.2291L352.524 40.155C351.362 39.7349 350.156 39.4137 348.941 39.1981L348.727 39.1599C348.565 39.1329 348.405 39.2071 348.324 39.3508L346.145 43.2661C345.448 43.2235 344.766 43.2235 344.068 43.2661L341.889 39.3508C341.811 39.2071 341.648 39.1307 341.489 39.1599L341.275 39.1981C340.059 39.4137 338.853 39.7349 337.69 40.155L337.487 40.2291C337.334 40.2853 337.233 40.4313 337.235 40.5953L337.309 45.0722C336.692 45.3799 336.089 45.7303 335.511 46.11L331.667 43.8097C331.527 43.7244 331.347 43.7401 331.223 43.8457L331.057 43.985C330.111 44.7824 329.227 45.6629 328.432 46.6041L328.291 46.7704C328.185 46.8962 328.171 47.0736 328.255 47.2151L330.562 51.0518C330.181 51.6269 329.83 52.2311 329.519 52.8466L325.027 52.7725C324.861 52.7815 324.719 52.8803 324.667 53.0241L324.593 53.2285C324.172 54.3876 323.85 55.5916 323.634 56.8069L323.596 57.0203C323.566 57.1798 323.645 57.3415 323.787 57.4201L327.71 59.5945C327.69 59.9405 327.678 60.2887 327.678 60.6301C327.678 60.9738 327.69 61.322 327.71 61.6656L323.787 63.8401C323.645 63.9187 323.566 64.0804 323.596 64.2399L323.634 64.4533C323.85 65.6641 324.172 66.8681 324.593 68.0317L324.667 68.2361C324.726 68.3956 324.885 68.5057 325.034 68.4877L329.519 68.4136C329.83 69.0313 330.181 69.6355 330.562 70.2084L328.255 74.0451C328.171 74.1843 328.185 74.364 328.291 74.4876L328.432 74.6538C329.229 75.595 330.111 76.4778 331.059 77.273L331.226 77.4123C331.352 77.5178 331.529 77.5313 331.669 77.4482L335.513 75.148C336.092 75.5299 336.697 75.878 337.311 76.188L337.237 80.6649C337.235 80.8289 337.336 80.9749 337.489 81.0311L337.694 81.1052C338.86 81.5253 340.066 81.8465 341.279 82.0621L341.493 82.1003C341.657 82.1318 341.817 82.0509 341.894 81.9094L344.072 77.9941C344.77 78.0367 345.452 78.0367 346.15 77.9941L348.329 81.9094C348.396 82.0329 348.527 82.107 348.662 82.107C348.684 82.107 348.707 82.1048 348.729 82.1003L348.943 82.0621C350.158 81.8465 351.365 81.5253 352.526 81.1052L352.733 81.0311C352.888 80.9749 352.99 80.8289 352.987 80.6649L352.913 76.188C353.53 75.878 354.135 75.5299 354.712 75.148L358.556 77.4482C358.695 77.5336 358.875 77.5178 358.999 77.4123L359.166 77.273C360.109 76.4778 360.993 75.5972 361.792 74.6516L361.932 74.4853C362.035 74.3595 362.051 74.1821 361.965 74.0428L359.661 70.2061C360.041 69.6311 360.392 69.029 360.703 68.4113L365.193 68.4854C365.364 68.4832 365.504 68.3866 365.558 68.2316L365.63 68.0294C366.048 66.8726 366.372 65.6686 366.588 64.4511L366.627 64.2377C366.651 64.0849 366.575 63.9232 366.433 63.8446ZM364.493 67.1084L360.079 67.0366C359.926 67.0478 359.791 67.1332 359.733 67.2545L359.647 67.4342C359.262 68.2518 358.803 69.047 358.279 69.7995L358.166 69.9613C358.079 70.0848 358.074 70.2488 358.151 70.3768L360.415 74.1461C359.861 74.7684 359.267 75.3614 358.646 75.9117L354.869 73.6519C354.738 73.5733 354.574 73.5801 354.45 73.6677L354.291 73.78C353.543 74.3011 352.747 74.7616 351.921 75.148L351.743 75.2311C351.606 75.2962 351.52 75.4333 351.522 75.5838L351.594 79.982C350.802 80.2471 349.99 80.4627 349.179 80.6267L347.037 76.7788C346.962 76.6485 346.823 76.5699 346.67 76.5834L346.474 76.5991C345.551 76.6755 344.655 76.6755 343.737 76.5991L343.541 76.5834C343.397 76.5699 343.244 76.6463 343.172 76.7788L341.032 80.6267C340.222 80.4627 339.409 80.2471 338.617 79.982L338.691 75.5838C338.693 75.4333 338.608 75.2962 338.47 75.2311L338.293 75.148C337.464 74.7594 336.668 74.2989 335.923 73.78L335.761 73.6677C335.637 73.5801 335.473 73.5756 335.344 73.6519L331.568 75.9117C330.946 75.3636 330.352 74.7684 329.799 74.1461L332.063 70.3768C332.142 70.2465 332.135 70.0848 332.049 69.9613L331.937 69.8018C331.415 69.056 330.953 68.2586 330.566 67.4364L330.483 67.259C330.42 67.1242 330.269 67.0366 330.129 67.0388L325.723 67.1107C325.459 66.3267 325.243 65.5158 325.077 64.7004L328.932 62.5642C329.063 62.4923 329.141 62.3485 329.128 62.198L329.112 62.0026C329.074 61.5376 329.054 61.0771 329.054 60.6368C329.054 60.1943 329.074 59.7361 329.112 59.2711L329.128 59.0756C329.141 58.9251 329.065 58.7814 328.932 58.7095L325.077 56.5733C325.243 55.7579 325.459 54.9492 325.723 54.163L330.127 54.2349C330.273 54.2483 330.418 54.154 330.483 54.0147L330.566 53.8373C330.953 53.0129 331.415 52.2177 331.937 51.4719L332.049 51.3102C332.135 51.1866 332.142 51.0226 332.063 50.8946L329.799 47.1253C330.348 46.5053 330.942 45.9123 331.568 45.3597L335.344 47.6195C335.475 47.6981 335.637 47.6914 335.761 47.606L335.923 47.4937C336.672 46.9725 337.469 46.512 338.293 46.1257L338.47 46.0426C338.608 45.9797 338.693 45.8404 338.691 45.6899L338.617 41.2916C339.407 41.0288 340.217 40.8109 341.032 40.6469L343.172 44.4926C343.246 44.6252 343.388 44.7015 343.539 44.688L343.737 44.6723C344.662 44.5959 345.558 44.5959 346.476 44.6723L346.672 44.688C346.823 44.7015 346.965 44.6229 347.039 44.4926L349.182 40.6469C349.994 40.8109 350.807 41.0266 351.597 41.2916L351.525 45.6899C351.522 45.8404 351.608 45.9774 351.745 46.0426L351.923 46.1279C352.744 46.5121 353.543 46.9725 354.293 47.4959L354.455 47.6082C354.579 47.6959 354.741 47.7003 354.874 47.624L358.65 45.3642C359.274 45.9145 359.868 46.5076 360.419 47.1298L358.155 50.8991C358.076 51.0271 358.083 51.1911 358.169 51.3147L358.281 51.4764C358.806 52.2267 359.267 53.0241 359.652 53.844L359.737 54.0215C359.803 54.1585 359.949 54.2528 360.091 54.2394L364.498 54.1675C364.761 54.9559 364.979 55.7668 365.143 56.5778L361.29 58.714C361.157 58.7859 361.081 58.9296 361.094 59.0801L361.11 59.2778C361.148 59.7383 361.169 60.1988 361.169 60.6436C361.169 61.0906 361.148 61.5511 361.11 62.0116L361.094 62.207C361.083 62.3575 361.16 62.499 361.29 62.5732L365.143 64.7094C364.975 65.5113 364.756 66.3222 364.493 67.1084Z" fill="white"/>
<path d="M345.108 51.4113C340.012 51.4113 335.869 55.5467 335.869 60.6323C335.869 65.718 340.012 69.8534 345.108 69.8534C350.201 69.8534 354.345 65.718 354.345 60.6323C354.347 55.549 350.201 51.4113 345.108 51.4113ZM345.108 68.4809C340.771 68.4809 337.244 64.961 337.244 60.6323C337.244 56.306 340.771 52.786 345.108 52.786C349.443 52.786 352.969 56.306 352.969 60.6323C352.969 64.961 349.443 68.4809 345.108 68.4809Z" fill="white"/>
<path d="M260.353 123.751L260.441 123.843L260.509 123.778C261.765 124.028 263.045 124.16 264.335 124.16C265.91 124.16 267.495 123.971 269.048 123.599C271.938 122.904 274.524 121.606 276.716 119.879L276.811 119.906L276.849 119.775C282.689 115.092 285.647 107.302 283.776 99.5654C282.527 94.3921 279.336 90.0141 274.787 87.2376C272.775 86.0111 270.605 85.162 268.364 84.7038L268.285 84.6229L268.226 84.6791C265.44 84.131 262.541 84.1826 259.698 84.8655C256.851 85.5506 254.245 86.8243 252.012 88.5809L251.929 88.5562L251.893 88.673C250.111 90.0972 248.571 91.8358 247.347 93.8373C244.565 98.3771 243.721 103.726 244.97 108.899C246.219 114.072 249.411 118.45 253.959 121.226C255.944 122.44 258.11 123.289 260.353 123.751ZM251.985 98.0356C254.745 98.0087 258.116 97.7077 261.879 96.8294L263.545 103.726L252.724 106.329C252.116 103.33 251.94 100.5 251.985 98.0356ZM276.961 110.554C273.243 110.577 269.863 111.008 266.869 111.657L265.197 104.736L276.043 102.126C276.664 104.714 277.029 107.535 276.961 110.554ZM264.877 103.404L263.21 96.5014C266.133 95.7287 269.268 94.5898 272.509 92.9679C273.698 95.1626 274.859 97.802 275.701 100.801L264.877 103.404ZM263.865 105.058L265.532 111.967C261.569 112.949 258.35 114.285 255.985 115.476C254.583 112.857 253.637 110.215 253.018 107.666L263.865 105.058ZM255.44 117.298C256.356 118.854 257.43 120.398 258.695 121.9C257.302 121.451 255.953 120.838 254.673 120.056C254.058 119.681 253.473 119.27 252.913 118.834C253.453 118.468 254.299 117.924 255.44 117.298ZM261.053 122.489C259.273 120.607 257.83 118.646 256.656 116.66C258.929 115.514 262.026 114.229 265.85 113.286L268.053 122.41C265.715 122.884 263.347 122.904 261.053 122.489ZM267.189 112.978C270.067 112.358 273.317 111.947 276.898 111.922C276.752 114.18 276.358 116.536 275.649 118.971C273.826 120.364 271.719 121.438 269.39 122.089L267.189 112.978ZM278.271 111.934C279.223 111.954 280.2 112.003 281.197 112.082C280.277 114.043 279.021 115.84 277.479 117.376C277.907 115.51 278.161 113.695 278.271 111.934ZM281.762 110.756C280.592 110.653 279.448 110.592 278.334 110.568C278.404 107.43 278.021 104.494 277.378 101.807L282.584 100.556C283.302 104.08 282.959 107.594 281.762 110.756ZM277.036 100.48C276.165 97.3662 274.963 94.6257 273.729 92.3435C274.771 91.7864 275.822 91.1732 276.88 90.5082C279.453 92.8354 281.312 95.8297 282.262 99.2217L277.036 100.48ZM273.056 91.1439C271.904 89.1672 270.781 87.606 269.939 86.5368C271.375 86.9905 272.764 87.6083 274.069 88.4057C274.663 88.7696 275.231 89.165 275.775 89.585C274.861 90.1466 273.954 90.6655 273.056 91.1439ZM267.682 85.9797C268.184 86.5278 269.962 88.5742 271.836 91.7729C268.704 93.3296 265.681 94.4146 262.885 95.1559L260.689 86.0561C261.918 85.8067 263.165 85.6719 264.407 85.6719C265.508 85.6719 266.604 85.782 267.682 85.9797ZM261.553 95.4883C257.824 96.3599 254.553 96.6339 252.033 96.6654C252.228 92.8938 252.886 90.2117 253.081 89.4907C254.934 88.0777 257.052 87.0175 259.352 86.375L261.553 95.4883ZM250.666 96.6564C249.264 96.6249 248.188 96.5239 247.506 96.4385C247.806 95.7961 248.139 95.1671 248.515 94.5538C249.318 93.242 250.268 92.0515 251.337 90.9979C251.074 92.3547 250.783 94.3068 250.666 96.6564ZM246.953 97.7459C247.633 97.8424 248.902 97.9862 250.619 98.0289C250.574 100.592 250.761 103.535 251.393 106.648L246.156 107.908C245.456 104.471 245.737 100.976 246.953 97.7459ZM251.691 107.987C252.332 110.64 253.316 113.387 254.772 116.114C253.352 116.891 252.363 117.547 251.826 117.924C249.271 115.602 247.423 112.616 246.478 109.24L251.691 107.987Z" fill="white"/>
<path d="M444.019 86.3211C439.313 78.4164 429.038 75.8062 421.118 80.5032C412.701 85.4945 412.552 95.504 415.217 103.209C416.936 108.171 422.253 119.867 422.478 120.362C422.581 120.591 422.784 120.759 423.029 120.82C423.097 120.836 423.164 120.845 423.232 120.845C423.412 120.845 423.587 120.786 423.734 120.676C424.17 120.344 434.463 112.518 438.318 109.083C444.399 103.665 449.09 94.8391 444.019 86.3211ZM437.217 107.852C434.035 110.685 426.135 116.761 423.558 118.733C422.232 115.788 418.197 106.751 416.783 102.67C413.605 93.4891 415.541 85.7326 421.964 81.9251C424.37 80.4987 427.015 79.8203 429.628 79.8203C434.769 79.8203 439.783 82.4462 442.597 87.1657C447.152 94.8212 442.806 102.87 437.217 107.852Z" fill="white"/>
<path d="M432.221 84.7712C427.332 83.5267 422.338 86.4896 421.091 91.3731C419.847 96.2565 422.813 101.239 427.704 102.481C428.458 102.672 429.221 102.766 429.977 102.766C431.602 102.766 433.204 102.331 434.638 101.479C436.74 100.233 438.23 98.2445 438.833 95.8792C440.08 90.9979 437.114 86.0134 432.221 84.7712ZM437.231 95.4726C436.738 97.4111 435.516 99.0397 433.794 100.062C432.072 101.084 430.053 101.374 428.113 100.882C424.107 99.8641 421.676 95.7826 422.696 91.7819C423.558 88.399 426.617 86.1414 429.963 86.1414C430.573 86.1414 431.195 86.2155 431.811 86.3728C435.82 87.3904 438.251 91.4719 437.231 95.4726Z" fill="white"/>
<path d="M369.91 275.263H332.592C328.113 275.263 324.471 271.626 324.471 267.158C324.471 262.688 328.113 259.053 332.592 259.053C333.467 259.053 334.318 259.19 335.137 259.464C335.187 253.393 340.152 248.469 346.247 248.469C350.338 248.469 354.072 250.713 356.006 254.257C357.309 253.359 358.855 252.871 360.449 252.871C364.772 252.871 368.29 256.382 368.29 260.698C368.29 260.709 368.29 260.72 368.29 260.731C368.614 260.686 368.94 260.664 369.262 260.664C373.295 260.664 376.577 263.939 376.577 267.962C376.577 271.505 374.076 274.474 370.66 275.128V275.229L369.91 275.263ZM332.592 260.549C328.941 260.549 325.97 263.514 325.97 267.158C325.97 270.801 328.941 273.767 332.592 273.767H369.64L369.838 273.737C372.825 273.445 375.078 270.963 375.078 267.964C375.078 264.766 372.469 262.162 369.264 262.162C368.738 262.162 368.202 262.238 367.671 262.387L366.568 262.699L366.723 261.565C366.771 261.232 366.791 260.956 366.791 260.698C366.791 257.207 363.946 254.367 360.449 254.367C358.9 254.367 357.403 254.938 356.237 255.976L355.465 256.661L355.051 255.715C353.521 252.22 350.062 249.962 346.244 249.962C340.944 249.962 336.634 254.266 336.634 259.554C336.634 259.88 336.65 260.21 336.683 260.534L336.821 261.902L335.596 261.275C334.653 260.794 333.643 260.549 332.592 260.549Z" fill="white"/>
</g>
<defs>
<clipPath id="clip0_18_690">
<rect width="647" height="423" fill="white"/>
</clipPath>
</defs>
</svg>
