<svg width="666" height="368" viewBox="0 0 666 368" fill="none" xmlns="http://www.w3.org/2000/svg">
<g clip-path="url(#clip0_159_2962)">
<path d="M81.4494 368C81.4494 368 10.8724 309.787 84.8093 253.705C158.746 197.623 79.5261 165.265 128.293 113.782C177.06 62.2993 229.725 132.306 262.566 84.0111C304.774 21.9444 413.422 -18.5358 464.402 60.7351C506.61 126.365 599.574 71.7421 599.574 194.27C599.574 281.365 710.07 258.847 646.04 368H81.4494Z" fill="#F1EEFD"/>
<mask id="mask0_159_2962" style="mask-type:luminance" maskUnits="userSpaceOnUse" x="51" y="16" width="615" height="352">
<path d="M81.4494 368C81.4494 368 10.8724 309.787 84.8093 253.705C158.746 197.623 79.5261 165.265 128.293 113.782C177.06 62.2993 229.725 132.306 262.566 84.0111C304.774 21.9444 413.422 -18.5358 464.402 60.7351C506.61 126.365 599.574 71.7421 599.574 194.27C599.574 281.365 710.07 258.847 646.04 368H81.4494Z" fill="white"/>
</mask>
<g mask="url(#mask0_159_2962)">
<path d="M289.117 133.29H288.322V238.029H289.117V133.29Z" fill="white"/>
<path d="M276.309 133.29H275.515V238.029H276.309V133.29Z" fill="white"/>
<path d="M263.504 133.29H262.709V238.029H263.504V133.29Z" fill="white"/>
<path d="M250.698 133.29H249.903V238.029H250.698V133.29Z" fill="white"/>
<path d="M237.89 133.29H237.096V238.029H237.89V133.29Z" fill="white"/>
<path d="M225.085 133.29H224.29V238.029H225.085V133.29Z" fill="white"/>
<path d="M212.279 133.29H211.484V238.029H212.279V133.29Z" fill="white"/>
<path d="M199.472 133.29H198.677V238.029H199.472V133.29Z" fill="white"/>
<path d="M186.666 133.29H185.871V238.029H186.666V133.29Z" fill="white"/>
<path d="M173.858 133.29H173.063V238.029H173.858V133.29Z" fill="white"/>
<path d="M161.053 133.29H160.258V238.029H161.053V133.29Z" fill="white"/>
<path d="M148.247 133.29H147.452V238.029H148.247V133.29Z" fill="white"/>
<path d="M135.439 133.29H134.645V238.029H135.439V133.29Z" fill="white"/>
<path d="M122.634 133.29H121.839V238.029H122.634V133.29Z" fill="white"/>
<path d="M109.826 133.29H109.031V238.029H109.826V133.29Z" fill="white"/>
<path d="M97.0203 133.29H96.2256V238.029H97.0203V133.29Z" fill="white"/>
<path d="M84.2147 133.29H83.4199V238.029H84.2147V133.29Z" fill="white"/>
<path d="M288.719 224.144H83.8174V224.939H288.719V224.144Z" fill="white"/>
<path d="M288.719 211.335H83.8174V212.13H288.719V211.335Z" fill="white"/>
<path d="M288.719 198.523H83.8174V199.318H288.719V198.523Z" fill="white"/>
<path d="M288.719 185.713H83.8174V186.508H288.719V185.713Z" fill="white"/>
<path d="M288.719 172.904H83.8174V173.699H288.719V172.904Z" fill="white"/>
<path d="M288.719 160.092H83.8174V160.887H288.719V160.092Z" fill="white"/>
<path d="M288.719 147.282H83.8174V148.077H288.719V147.282Z" fill="white"/>
<path d="M388.635 0H380.731V368H388.635V0Z" fill="#D3DDF8"/>
<path d="M464.672 0H456.769V368H464.672V0Z" fill="#D3DDF8"/>
<path d="M540.71 0H532.806V368H540.71V0Z" fill="#D3DDF8"/>
<path d="M612.794 187.719V180.279L382.275 180.279V187.719L612.794 187.719Z" fill="#D3DDF8"/>
<path d="M612.793 83.6566V25.551L382.274 25.551V83.6566L612.793 83.6566Z" fill="#D3DDF8"/>
<path d="M612.793 367.974V347.715L382.274 347.715V367.974L612.793 367.974Z" fill="#D3DDF8"/>
<path d="M290.271 368V232.883L47.4712 232.883L47.4712 368L290.271 368Z" fill="#D3DDF8"/>
<path d="M213.007 367.999L213.007 230.834H209.689L209.689 367.999H213.007Z" fill="#B3C0EC"/>
<path d="M295.213 232.884V223.925L46.8413 223.925V232.884L295.213 232.884Z" fill="#B3C0EC"/>
<path d="M290.271 132.788V4.63597L47.4722 4.63597L47.4722 132.788L290.271 132.788Z" fill="#D3DDF8"/>
<path d="M213.007 132.789L213.007 32.295H209.689L209.689 132.789H213.007Z" fill="#B3C0EC"/>
<path d="M126.744 132.788L126.744 32.2942H123.426L123.426 132.788H126.744Z" fill="#B3C0EC"/>
<path d="M312.336 32.3392H311.277V94.1137H312.336V32.3392Z" fill="#D3DDF8"/>
<path d="M317.218 127.675H306.396V99.5278C306.396 96.5385 308.818 94.1157 311.806 94.1157C314.794 94.1157 317.216 96.5405 317.216 99.5278V127.675H317.218Z" fill="#D3DDF8"/>
<path d="M354.979 18.1303H353.92V111.707H354.979V18.1303Z" fill="#D3DDF8"/>
<path d="M359.859 145.267H349.036V117.119C349.036 114.13 351.458 111.707 354.446 111.707C357.435 111.707 359.857 114.13 359.857 117.119V145.267H359.859Z" fill="#D3DDF8"/>
<path d="M334.701 6.9365H333.642V68.7131H334.701V6.9365Z" fill="#D3DDF8"/>
<path d="M339.582 102.273H328.76V74.1251C328.76 71.1359 331.182 68.713 334.17 68.713C337.158 68.713 339.58 71.1359 339.58 74.1251V102.273H339.582Z" fill="#D3DDF8"/>
</g>
<path d="M76.9512 242.746C76.9512 242.746 54.8488 250.173 57.857 275.663C60.8652 301.153 56.5337 332.214 56.5337 332.214H69.1327C69.1327 332.214 91.5768 301.946 75.0398 279.268C58.5007 256.587 76.9512 242.746 76.9512 242.746Z" fill="#02126A"/>
<path d="M75.2007 244.334C71.1792 247.655 59.4783 259.723 72.0873 279.702C87.0685 303.439 62.6455 332.133 62.6455 332.133L56.5973 331.726C56.5576 332.034 56.5317 332.212 56.5317 332.212H69.1307C69.1307 332.212 91.5749 301.944 75.0378 279.266C61.7653 261.065 71.0262 248.563 75.2007 244.334Z" fill="#6F8FE4"/>
<g opacity="0.44">
<path d="M76.0611 243.505C76.6055 243.008 76.9512 242.746 76.9512 242.746C76.9512 242.746 74.9643 243.419 72.2681 245.037C74.0483 244.173 75.4292 243.7 76.0611 243.505Z" fill="#4900BC"/>
</g>
<path d="M52.7643 304.021C53.9445 281.401 53.0325 278.575 44.2424 271.104C35.4523 263.635 23.064 251.354 23.064 251.354C31.5024 268.065 31.3335 275.661 32.921 287.956C34.1529 297.494 48.4745 316.531 54.8386 324.592C53.4279 321.325 52.1762 315.253 52.7643 304.021Z" fill="#1D3599"/>
<path d="M57.857 328.343C57.857 328.343 56.6787 326.922 54.8389 324.592C56.2655 327.909 57.857 328.343 57.857 328.343Z" fill="url(#paint0_linear_159_2962)"/>
<path d="M48.4885 293.501C44.1015 312.293 53.432 324.922 53.432 324.922H62.6314C62.5996 318.445 63.0645 312.234 66.1124 305.951C66.2734 305.619 66.4661 305.311 66.6727 305.017C65.3753 304.409 63.9328 303.795 62.3274 303.179C45.3393 296.651 52.8776 274.707 48.4885 293.501Z" fill="#02126A"/>
<path d="M72.3392 298.226C63.0007 302.952 65.7009 323.209 65.7009 323.209L74.4771 326.359C74.4771 326.359 72.9015 317.133 78.8642 309.93C84.8269 302.727 88.7649 305.488 88.7649 305.488C88.7649 305.488 81.6756 293.501 72.3392 298.226Z" fill="#1D3599"/>
<path d="M27.5646 288.662C11.8859 288.662 3.11768 298.112 3.11768 298.112C3.11768 298.112 9.22146 295.012 20.1395 295.413C31.0576 295.815 30.2648 305.093 39.041 313.756C47.8172 322.42 55.129 323.658 55.129 323.658C55.129 323.658 43.5056 306.844 34.9917 295.411C33.4896 293.402 34.9499 288.662 27.5646 288.662Z" fill="#1D3599"/>
<path d="M0.0794764 301.342C0.0158953 301.509 0 301.602 0 301.602C0 301.602 0.0238429 301.509 0.0794764 301.342Z" fill="#FAF9FC"/>
<path d="M40.2768 298.79C37.3521 294.851 40.39 285.173 21.7131 287.423C4.65548 289.478 0.645893 299.603 0.0776367 301.342C0.508796 300.219 3.23881 295.646 19.6864 291.923C38.5879 287.646 28.5739 297.439 37.1255 303.628C45.6752 309.817 52.6512 321.408 52.6512 321.408C52.6512 321.408 57.4894 329.511 56.3628 322.758C55.2382 316.008 43.2015 302.729 40.2768 298.79Z" fill="#6F8FE4"/>
<path d="M98.2151 307.229C89.6654 289.785 79.3255 290.921 72.4508 294.737C62.6971 300.152 64.2985 322.758 64.2985 322.758L65.7013 323.209C65.7013 323.209 65.9258 318.82 66.6729 311.28C67.42 303.739 71.0997 293.036 83.0272 307.903C94.9546 322.772 111.827 325.445 111.827 325.445C111.827 325.445 106.765 324.674 98.2151 307.229Z" fill="#6F8FE4"/>
<path d="M75.6057 285.513C72.9194 283.542 70.1914 283.88 68.0853 284.756C65.4248 285.863 62.4286 285.499 59.9707 284.015C50.98 278.573 50.2905 286.054 50.2905 286.054L50.5329 288.079C50.5468 288.093 50.5468 288.119 50.5468 288.147C51.1946 291.901 53.3007 299.706 62.3193 303.179C63.9247 303.801 78.0735 309.93 78.0735 309.93C76.1601 302.165 81.1134 289.566 75.6057 285.513Z" fill="#6F8FE4"/>
<path d="M51.9536 368H66.9627C72.4803 368 76.9528 363.526 76.9528 358.007V321.295H41.9634V358.007C41.9634 363.526 46.4359 368 51.9536 368Z" fill="#002382"/>
<path d="M80.3623 321.297H38.5518V326.361H80.3623V321.297Z" fill="#FF550D"/>
<path d="M593.535 294.266H309.691V351.696H593.535V294.266Z" fill="#02126A"/>
<path d="M351.111 258.922V346.71C351.111 349.464 348.468 351.698 345.214 351.698H288.342C285.088 351.698 282.449 349.464 282.449 346.71V271.746C282.449 264.664 288.189 258.922 295.269 258.922H351.111Z" fill="#002382"/>
<path d="M474.554 196.128H368.952L356.385 305.512H461.987C469.454 305.512 475.51 300.39 475.51 294.068L487.529 211.354C488.631 203.764 483.136 196.591 475.48 196.154C475.174 196.138 474.866 196.128 474.554 196.128Z" fill="#3259B3"/>
<path d="M452.237 294.07C452.237 300.39 446.185 305.514 438.714 305.514H344.773C337.306 305.514 331.25 300.392 331.25 294.07L343.817 207.574C343.817 201.252 349.871 196.13 357.34 196.13H451.279C451.591 196.13 451.899 196.138 452.205 196.156C459.861 196.593 465.358 203.766 464.254 211.357L452.237 294.07Z" fill="#5378CF"/>
<path d="M311.236 334.625H445.817C449.096 334.625 451.756 332.731 451.756 330.392V297.415C451.756 295.839 449.004 294.034 445.817 293.183C397.051 286.567 315.631 293.183 315.631 293.183C313.35 293.746 312.057 294.34 311.123 295.282C310.163 296.248 309.692 297.572 309.692 298.909V333.137C309.692 333.135 309.537 334.625 311.236 334.625Z" fill="#002382"/>
<path d="M309.692 297.78H443.22C447.935 297.78 451.756 301.461 451.756 306.001V330.392C451.756 332.731 449.096 334.625 445.817 334.625H311.236C309.537 334.625 309.692 333.135 309.692 333.135V297.78Z" fill="#1D3599"/>
<path d="M291.883 368L298.714 351.756H307.599L297.617 368H291.883Z" fill="#02126A"/>
<path d="M345.841 368L352.672 351.756H361.555L351.571 368H345.841Z" fill="#151618"/>
<path d="M521.61 196.128C515.41 196.128 510.199 200.777 509.49 206.936L499.728 291.915C498.895 299.16 504.558 305.512 511.848 305.512H603.768C610.967 305.512 616.856 300.75 617.267 294.741C617.297 294.294 617.323 293.847 617.387 293.404L629.312 211.325C630.421 203.689 624.834 196.525 617.13 196.146C616.866 196.136 521.61 196.128 521.61 196.128Z" fill="#3259B3"/>
<path d="M594.014 294.07C594.014 300.39 587.964 305.514 580.491 305.514H486.552C479.083 305.514 473.027 300.392 473.027 294.07L485.597 207.574C485.597 201.252 491.653 196.13 499.121 196.13H593.061C593.372 196.13 593.68 196.138 593.986 196.156C601.64 196.593 607.138 203.764 606.035 211.353L594.014 294.07Z" fill="#5378CF"/>
<path d="M429.134 233.504C422.486 236.616 421.105 233.412 398.544 234.402C385.067 234.994 377.594 232.722 373.777 230.82C372.249 230.059 370.425 231.083 370.427 232.714C370.431 236.268 370.282 242.096 369.591 250.392C366.781 284.062 355.223 284.253 361.58 287.256C367.95 290.268 440.106 296.23 431.523 288.958C422.963 281.707 432.874 254.657 435.262 244.032C437.239 235.225 434.861 230.822 429.134 233.504Z" fill="#2647C8"/>
<path d="M392.373 237.403C368.933 239.542 345.389 237.952 336.102 237.139C333.908 236.948 332.052 238.554 331.997 240.649C331.627 254.468 326.112 274.413 323.622 282.771C322.994 284.873 324.466 287.074 326.745 287.461C354.713 292.205 376.241 291.528 384.519 290.981C386.526 290.848 388.061 289.294 388.036 287.384C387.839 272.793 393.625 251.896 396.599 242.155C397.374 239.627 395.153 237.149 392.373 237.403Z" fill="url(#paint1_linear_159_2962)"/>
<path d="M575.999 368L566.015 351.756H574.898L581.729 368H575.999Z" fill="#02126A"/>
<path d="M621.686 368L611.704 351.756H620.586L627.419 368H621.686Z" fill="#151618"/>
<path d="M451.235 334.627H315.708C312.386 334.627 309.692 331.932 309.692 328.609V271.744C309.692 264.662 303.952 258.92 296.872 258.92H295.267C288.187 258.92 282.447 264.662 282.447 271.744V346.708C282.447 349.464 285.086 351.696 288.34 351.696H451.233V334.627H451.235Z" fill="#3259B3"/>
<path d="M456.199 334.625H587.597C590.875 334.625 593.538 332.731 593.538 330.392V297.415C593.538 295.839 590.782 294.034 587.597 293.183C538.828 286.567 457.411 293.183 457.411 293.183C453.761 294.082 452.646 295.067 451.472 297.415V330.392C451.472 330.392 454.498 334.625 456.199 334.625Z" fill="#002382"/>
<path d="M459.968 297.78H593.538V330.392C593.538 332.731 590.875 334.625 587.597 334.625H456.199C456.163 334.625 456.125 334.625 456.089 334.625C453.504 334.584 451.472 332.469 451.472 329.978V305.963C451.472 301.443 455.275 297.78 459.968 297.78Z" fill="#1D3599"/>
<path d="M623.093 258.922C629.642 258.922 634.953 264.233 634.953 270.786V346.71C634.953 349.464 632.314 351.698 629.061 351.698H572.186C568.934 351.698 566.291 349.464 566.291 346.71V270.786C566.291 264.235 571.6 258.922 578.151 258.922H623.093Z" fill="#002382"/>
<path d="M581.567 258.922H578.262C571.65 258.922 566.291 264.282 566.291 270.897V328.609C566.291 331.932 563.597 334.627 560.275 334.627H439.697V351.696H585.087C589.755 351.696 593.538 347.912 593.538 343.241V270.895C593.538 264.282 588.177 258.922 581.567 258.922Z" fill="#3259B3"/>
<path d="M433.218 155.123C433.218 155.123 431.827 166.402 425.304 171.592C418.781 176.781 426.554 156.27 426.554 156.27L433.218 155.123Z" fill="#02126A"/>
<path d="M323.597 187.466C323.597 187.466 324.487 183.664 326.611 184.61C328.735 185.556 327.771 190.523 327.771 190.523L323.597 187.466Z" fill="#FBBCBE"/>
<path d="M408.044 203.533C402.28 208.777 375.146 218.41 369.712 220.67C363.161 223.393 357.221 216.902 360.594 211.346C363.467 206.612 395.767 189.903 399.985 188.822C407.603 186.87 415.256 196.973 408.044 203.533Z" fill="#FBBCBE"/>
<path d="M384.952 217.653C394.163 213.648 408.741 203.736 411.662 201.077C418.874 194.516 411.221 184.413 403.603 186.365C401.227 186.973 386.792 193.421 375.87 200.111C374.318 203.641 378.095 214.636 384.952 217.653Z" fill="#FF550D"/>
<path d="M425.73 171.445C425.73 171.445 423.526 183.789 429.03 183.913C434.536 184.038 444.705 185.441 448.207 190.308C451.708 195.174 455.873 237.928 451.317 269.015C451.317 269.015 414.335 280.495 396.22 261.78C396.22 261.78 390.51 200.004 396.053 191.596C400.679 184.584 411.795 185.163 411.795 185.163C411.795 185.163 414.931 182.525 413.848 176.616C411.199 162.183 425.73 171.445 425.73 171.445Z" fill="#FF550D"/>
<path d="M425.497 173.14C425.61 172.117 425.73 171.445 425.73 171.445C425.73 171.445 414.049 164.001 413.544 172.87L425.497 173.14Z" fill="url(#paint2_linear_159_2962)"/>
<path d="M448.207 190.308C447.486 189.307 446.483 188.456 445.296 187.729L435.022 229.962L396.218 261.78C414.332 280.495 451.315 269.015 451.315 269.015C455.871 237.928 451.708 195.174 448.207 190.308Z" fill="#E2410F"/>
<path d="M433.408 184.223C429.079 191.928 421.495 196.174 414.789 194.019C410.938 192.785 408.083 189.666 406.525 185.576C409.48 185.039 411.795 185.163 411.795 185.163C411.795 185.163 414.928 182.527 413.845 176.616C411.199 162.183 425.731 171.447 425.731 171.447C425.731 171.447 423.525 183.789 429.029 183.913C430.285 183.94 431.793 184.036 433.408 184.223Z" fill="#FBBCBE"/>
<path d="M433.408 184.223C429.079 191.928 421.495 196.174 414.789 194.019C410.938 192.785 408.083 189.666 406.525 185.576C409.48 185.039 411.795 185.163 411.795 185.163C411.795 185.163 414.928 182.527 413.845 176.616C411.199 162.183 425.731 171.447 425.731 171.447C425.731 171.447 423.525 183.789 429.029 183.913C430.285 183.94 431.793 184.036 433.408 184.223Z" fill="#FBBCBE"/>
<path d="M429.03 183.913C423.524 183.787 425.731 171.447 425.731 171.447C425.731 171.447 424.982 170.97 423.858 170.401L423.729 176.153C423.55 184.04 417.013 190.291 409.129 190.112C410.639 191.934 412.544 193.3 414.792 194.019C421.497 196.174 429.083 191.928 433.411 184.223C431.794 184.036 430.285 183.94 429.03 183.913Z" fill="#DA91A7"/>
<path d="M404.023 161.246L404.013 161.723L408.526 161.825L408.536 161.349L404.023 161.246Z" fill="#02126A"/>
<path d="M406.802 152.732L406.412 169.974C406.297 175.058 410.547 179.28 415.906 179.401C421.265 179.522 425.699 175.499 425.815 170.413L425.825 169.992C425.825 169.992 431.384 169.726 431.511 164.085C431.638 158.442 427.887 160.66 427.887 160.66L428.056 153.213L406.802 152.732Z" fill="#FBBCBE"/>
<path d="M427.885 160.66L428.054 153.213L420.507 153.042C420.507 153.098 420.513 153.151 420.511 153.207L420.07 172.723C419.993 176.133 416.742 178.828 413.434 178.638C412.407 178.578 411.467 178.266 410.65 177.775C412.151 178.757 413.949 179.357 415.904 179.401C421.262 179.522 425.697 175.497 425.813 170.413L425.822 169.992C425.822 169.992 431.382 169.726 431.509 164.085C431.636 158.442 427.885 160.66 427.885 160.66Z" fill="#DA91A7"/>
<path d="M427.746 160.843C427.746 160.843 426.008 165.862 425.064 159.698C424.12 153.535 422.219 153.764 415.35 154.06C408.481 154.356 398.882 151.579 402.775 143.208C406.599 134.979 422.278 142.985 422.278 142.985C422.278 142.985 433.568 142.085 433.568 151.871C433.568 160.275 427.746 160.843 427.746 160.843Z" fill="#0C1540"/>
<path d="M448.539 191.972C453.184 198.227 460.15 226.821 461.861 232.456C463.922 239.247 458.378 244.683 453.186 240.776C448.761 237.447 432.463 202.011 431.805 197.704C430.617 189.929 442.725 184.145 448.539 191.972Z" fill="#FBBCBE"/>
<path d="M459.747 216.611C456.316 205.837 451.454 194.955 448.795 191.376C442.475 182.863 429.56 189.939 430.85 198.394C431.171 200.506 435.511 211.325 440.18 221.475C449.078 222.312 458.591 217.883 459.747 216.611Z" fill="#FF550D"/>
<path d="M312.281 303.332L308.832 296.874C302.042 301.688 295.336 303.807 294.248 292.114C293.745 286.726 287.152 285.992 287.152 285.992L289.759 313.955C289.759 313.955 291.148 316.632 297.311 311.993C304.005 306.955 312.281 303.332 312.281 303.332Z" fill="#FBBCBE"/>
<path d="M294.844 303.437C296.31 301.527 299.59 303.189 299.501 300.694C296.791 300.41 294.8 298.033 294.25 292.116C293.747 286.728 287.154 285.995 287.154 285.995L289.761 313.957C289.761 313.957 291.065 316.469 296.751 312.409C296.475 309.475 292.63 306.319 294.844 303.437Z" fill="#0C1540"/>
<path d="M451.603 265.421C453.972 279.899 442.748 293.622 424.492 291.617C406.236 289.61 375.231 274.031 362.089 271.209C362.089 271.209 345.389 250.022 356.434 245.337C383.997 233.651 451.603 265.421 451.603 265.421Z" fill="#120D80"/>
<path d="M354.404 246.677C354.404 246.677 311.836 293.563 303.33 298.393C303.33 298.393 306.636 307.16 312.293 313.844C312.293 313.844 362.17 275.691 367.289 270.947C377.99 261.025 354.404 246.677 354.404 246.677Z" fill="#120D80"/>
<path d="M424.492 291.615C424.492 291.615 381.767 295.306 368.551 294.392C362.179 293.95 339.699 287.702 345.439 272.821C351.177 257.954 393.375 269.963 424.492 291.615Z" fill="#02126A"/>
<path d="M348.765 268.872C373.474 263.8 386.303 276.124 384.255 283.661C381.06 295.411 363.625 292.651 362.669 293.281C365.073 293.935 367.179 294.298 368.55 294.392C381.769 295.306 424.492 291.615 424.492 291.615C396.778 272.332 360.305 260.168 348.765 268.872Z" fill="#151618"/>
<path d="M321.444 360.984C330.411 359.851 332.923 348.486 334.417 342.931L342.857 346.159C342.857 346.159 337.83 355.657 338.218 362.125C338.605 368.592 336.767 367.984 336.767 367.984H310.016C310.016 367.984 312.477 362.117 321.444 360.984Z" fill="#FBBCBE"/>
<path d="M321.444 360.984C324.15 360.642 326.944 358.945 328.333 357.16C329.233 355.9 333.61 357.291 334.337 359.73C334.337 359.73 336.112 361.008 338.21 360.811C338.206 361.26 338.194 361.705 338.22 362.127C338.607 368.594 336.769 367.986 336.769 367.986H310.018C310.016 367.984 312.477 362.117 321.444 360.984Z" fill="#0C1540"/>
<path d="M344.683 275.512C344.683 275.512 334.028 331.348 330.054 348.168C330.054 348.168 338.568 352.565 344.646 351.629C344.646 351.629 373.342 292.885 363.255 283.919C357.588 278.885 344.683 275.512 344.683 275.512Z" fill="#02126A"/>
<path d="M458.102 230.236C448.446 228.632 418.036 232.826 412.769 229.906C407.5 226.986 397.645 225.198 394.054 228.207C390.388 231.279 392.872 234.06 396.826 236.32C399.337 237.755 402.27 238.961 408.928 238.16C415.602 237.357 443.886 243.409 453.717 243.62C463.461 243.829 464.635 231.323 458.102 230.236Z" fill="#FBBCBE"/>
<path d="M371.394 209.824C363.083 204.652 336.363 198.151 332.607 193.441C328.852 188.73 320.183 185.771 315.717 187.182C311.157 188.621 312.432 192.044 318.413 194.514C321.085 195.617 322.436 199.034 328.896 200.836C335.371 202.643 353.225 216.568 362.232 220.517C371.157 224.432 377.019 213.322 371.394 209.824Z" fill="#FBBCBE"/>
<path d="M418.7 167.013C418.668 167.013 418.636 167.013 418.605 167.013C415.596 166.945 414.265 163.757 414.315 161.624C414.359 159.651 415.948 158.607 418.793 158.663C421.637 158.729 423.178 159.849 423.135 161.823C423.087 163.934 421.645 167.013 418.7 167.013ZM418.545 159.138C417.476 159.138 416.616 159.307 415.986 159.643C415.203 160.06 414.812 160.712 414.792 161.634C414.748 163.574 415.932 166.474 418.615 166.536C421.303 166.621 422.612 163.755 422.656 161.813C422.706 159.679 420.576 159.182 418.781 159.14C418.702 159.14 418.622 159.138 418.545 159.138Z" fill="#02126A"/>
<path d="M408.179 166.774C408.147 166.774 408.113 166.774 408.079 166.774C405.071 166.706 403.74 163.518 403.789 161.386C403.835 159.412 405.431 158.369 408.268 158.426C409.532 158.456 410.541 158.689 411.272 159.122C412.184 159.663 412.635 160.491 412.609 161.587C412.581 162.795 412.146 164.085 411.445 165.039C410.857 165.836 409.818 166.774 408.179 166.774ZM408.024 158.899C406.283 158.899 404.314 159.355 404.266 161.396C404.223 163.336 405.407 166.235 408.089 166.295C408.119 166.295 408.147 166.295 408.175 166.295C409.617 166.295 410.537 165.46 411.06 164.753C411.705 163.874 412.107 162.686 412.132 161.573C412.154 160.648 411.793 159.981 411.03 159.529C410.372 159.14 409.44 158.927 408.26 158.901C408.18 158.901 408.101 158.899 408.024 158.899Z" fill="#02126A"/>
<path d="M412.398 160.939L412.387 161.416L414.595 161.466L414.606 160.99L412.398 160.939Z" fill="#02126A"/>
<path d="M422.715 161.672L422.704 162.149L427.217 162.251L427.228 161.775L422.715 161.672Z" fill="#02126A"/>
<path d="M329.11 188.303H309.338C308.754 188.303 308.279 187.828 308.279 187.244V187.041C308.279 186.457 308.754 185.982 309.338 185.982H329.11C329.694 185.982 330.169 186.457 330.169 187.041V187.244C330.169 187.828 329.694 188.303 329.11 188.303Z" fill="#1D3597"/>
<path d="M539.041 251.578C513.704 251.141 461.645 252.049 458.644 252.651C451.356 254.112 442.753 265.859 456.807 272.582C468.545 278.197 543.678 305.353 553.833 272.376C557.561 260.276 546.748 251.711 539.041 251.578Z" fill="#E2E9FB"/>
<path d="M464.459 263.07C463.531 264.155 453.082 270.798 456.809 272.58C468.548 278.197 543.681 305.353 553.836 272.374C555.445 267.145 554.339 262.579 551.942 259.065C548.672 260.075 469.551 257.121 464.459 263.07Z" fill="#BDC6ED"/>
<path d="M533.994 292.827C518.564 291.82 489.094 288.421 471.683 288.421C452.97 288.421 456.191 272.032 468.569 268.786C481.474 265.401 510.07 258.395 527.418 256.905C544.765 255.414 551.757 256.974 560.168 261.15C568.578 265.324 571.527 295.278 533.994 292.827Z" fill="#D3DDF8"/>
<path d="M552.56 163.58C557.908 163.58 563.577 166.239 568.459 176.662C573.341 187.085 567.217 192.719 568.322 201.898C569.429 211.076 578.761 213.692 575.842 231.061C573.402 245.574 567.893 255.728 544.06 253.208C520.227 250.686 522.144 223.188 526.468 214.521C530.789 205.853 532.76 198.475 530.986 187.109C528.262 169.64 538.699 163.58 552.56 163.58Z" fill="#0C1540"/>
<path d="M538.838 215.405C537.612 224.265 524.292 246.921 519.909 251.554C515.337 256.386 508.093 255.366 508.486 249.68C508.822 244.834 524.451 212.098 525.796 209.409C528.697 203.617 540.155 205.869 538.838 215.405Z" fill="#FBBCBE"/>
<path d="M555.063 192.848C555.063 192.848 551.07 208.166 557.493 208.54C561.048 208.747 566.009 209.496 567.428 212.414C568.549 214.719 566.76 218.529 565.149 223.451C561.014 236.067 559.478 239.416 558.835 243.109C556.903 254.18 562.681 262.762 562.681 262.762C562.681 262.762 542.109 263.631 523.738 254.259C523.738 254.259 530.155 251.338 530.112 244.793C530.092 241.978 528.562 237.914 526.792 235.626C526.792 235.626 521.477 235.513 521.189 229.864C520.898 224.216 525.637 220.865 526.482 217.856C527.326 214.849 527.402 209.085 530.887 206.65C533.428 204.873 543.347 210.239 543.452 199.872C543.557 189.501 554.267 189.559 555.063 192.848Z" fill="#FBBCBE"/>
<path d="M564.005 264.819C564.005 264.819 529.677 264.819 522.184 251.256C522.184 251.256 531.606 242.865 526.79 235.626C526.79 235.626 521.477 235.511 521.191 229.862C520.899 224.214 525.637 220.863 526.482 217.852C527.324 214.849 527.4 209.085 530.887 206.646C531.612 206.137 532.939 206.213 534.469 206.338C534.145 211.619 535.981 216.192 539.76 218.186C545.628 221.29 553.997 217.013 558.612 208.616C562.016 208.916 566.152 209.784 567.428 212.412C568.551 214.717 559.476 239.414 558.831 243.107C556.901 254.182 564.005 264.819 564.005 264.819Z" fill="#02126A"/>
<path d="M562.679 262.76C562.679 262.76 545.665 260.832 545.665 250.64C545.665 248.362 546.565 241.444 546.565 241.444C549.436 240.959 551.979 239.027 552.937 236.05C554.244 232.005 551.955 227.094 547.745 225.893L544.065 224.844C550.837 222.892 556.486 217.593 558.562 210.309C558.719 209.754 558.852 209.198 558.963 208.649C562.295 208.973 566.198 209.874 567.428 212.41C568.55 214.715 566.762 218.527 565.147 223.447C561.012 236.063 559.476 239.412 558.83 243.105C556.901 254.182 562.679 262.76 562.679 262.76Z" fill="#0C1540"/>
<path d="M553.55 222.978C556.083 229.326 563.419 254.341 565.581 259.031C568.221 264.761 575.759 263.175 576.697 257.553C577.496 252.763 569.654 216.965 567.468 213.831C563.52 208.174 551.958 218.993 553.55 222.978Z" fill="#FBBCBE"/>
<path d="M566.911 256.883C566.223 255.054 565.735 253.164 565.127 251.31C563.925 247.641 562.208 244.173 560.881 240.549C558.298 233.496 555.556 223.077 559.969 216.323C561.167 214.491 562.716 213.105 564.465 212.233C559.531 212.114 552.265 219.762 553.549 222.978C556.082 229.326 562.695 251.612 564.856 256.303C565.617 257.954 566.817 259.141 568.161 259.858C567.72 258.876 567.288 257.889 566.911 256.883Z" fill="#DA91A7"/>
<path d="M538.196 173.752C538.196 173.752 535.291 177.674 535.701 182.774C535.701 182.774 529.493 187.277 534.854 195.345C540.213 203.41 550.992 199.364 555.063 192.85C555.063 192.85 560.63 195.289 561.924 190.004C563.217 184.721 559.728 184.095 556.052 184.306C556.052 184.306 552.772 170.862 548.506 170.049C544.238 169.237 540.783 169.249 538.196 173.752Z" fill="#FBBCBE"/>
<path d="M561.924 190.002C563.218 184.719 559.729 184.093 556.053 184.304C556.053 184.304 552.773 170.86 548.507 170.048C545.093 169.398 542.2 169.282 539.856 171.568C542.806 171.125 551.827 183.593 551.203 190.418C550.569 197.362 542.751 200.896 537.086 197.285C536.407 196.851 535.771 196.349 535.183 195.792C540.641 203.239 551.076 199.232 555.068 192.847C555.064 192.849 560.631 195.285 561.924 190.002Z" fill="#DA91A7"/>
<path d="M518.569 243.244C510.596 238.731 484.452 235.881 480.749 231.745C477.043 227.61 477.695 223.089 471.953 224.116C466.21 225.142 464.955 226.909 464.013 230.647C463.069 234.386 468.527 236.419 474.768 237.226C481.009 238.033 503.471 252.147 510.787 254.206C519.591 256.686 523.964 246.297 518.569 243.244Z" fill="#FBBCBE"/>
<path d="M542.936 169.05C540.959 170.389 544.545 174.44 548.729 180.041C552.916 185.642 550.732 191.72 554.851 188.714C558.972 185.711 559.075 185.153 559.906 180.548C560.736 175.943 549.306 164.737 542.936 169.05Z" fill="#0C1540"/>
<path d="M430.313 359.259C438.273 356.607 442.068 343.81 443.89 336.955L454.309 340.904C454.309 340.904 448.148 352.636 448.65 360.61C449.153 368.586 446.884 367.843 446.884 367.843L419.772 367.928C419.772 367.926 422.353 361.912 430.313 359.259Z" fill="#FBBCBE"/>
<path d="M430.313 359.259C432.715 358.458 434.736 356.731 436.441 354.523C437.547 352.966 442.948 354.664 443.856 357.669C443.856 357.669 446.049 359.237 448.636 358.987C448.632 359.539 448.656 360 448.75 360.513C450.154 368.159 446.886 367.839 446.886 367.839L419.774 367.924C419.772 367.926 422.353 361.912 430.313 359.259Z" fill="#0C1540"/>
<path d="M479.469 288.216C478.21 297.299 452.926 347.163 452.926 347.163C452.926 347.163 445.521 347.602 441.178 342.174C441.178 342.174 457.153 282.093 459.048 277.37C460.556 273.608 481.542 273.27 479.469 288.216Z" fill="#D3DDF8"/>
<path d="M438.082 319.985L430.218 315.555C426.343 325.061 420.774 331.71 411.895 320.269C407.804 314.996 400.46 318.604 400.46 318.604L421.69 345.96C421.69 345.96 424.909 347.825 428.247 338.916C431.873 329.237 438.082 319.985 438.082 319.985Z" fill="#FBBCBE"/>
<path d="M420.013 331.648C420.273 328.691 424.786 328.243 423.039 325.709C420.031 327.21 416.387 326.057 411.895 320.267C407.804 314.994 400.46 318.602 400.46 318.602L421.69 345.958C421.69 345.958 424.71 347.707 427.935 339.715C425.71 336.847 419.622 336.114 420.013 331.648Z" fill="#0C1540"/>
<path d="M453.409 300.233C445.318 312.969 437.672 327.128 437.672 327.128C437.672 327.128 432.069 328.043 425.922 322.342C425.922 322.342 444.927 262.623 451.652 256.917C457.929 251.592 482.404 254.585 453.409 300.233Z" fill="#E2E9FB"/>
<path d="M481.531 261.206C481.531 261.393 481.682 261.546 481.871 261.546H540.441C540.815 261.546 541.119 261.242 541.119 260.866V259.23H481.529V261.206H481.531Z" fill="#0C1540"/>
<path d="M533.47 258.541V259.23H535.562V258.314H533.698C533.573 258.312 533.47 258.413 533.47 258.541Z" fill="#0C1540"/>
<path d="M531.044 258.541V259.23H533.136V258.314H531.272C531.147 258.312 531.044 258.413 531.044 258.541Z" fill="#0C1540"/>
<path d="M528.619 258.541V259.23H530.709V258.314H528.846C528.72 258.312 528.619 258.413 528.619 258.541Z" fill="#0C1540"/>
<path d="M518.512 258.541V259.23H520.602V258.314H518.738C518.613 258.312 518.512 258.413 518.512 258.541Z" fill="#0C1540"/>
<path d="M516.086 258.541V259.23H518.176V258.314H516.312C516.187 258.312 516.086 258.413 516.086 258.541Z" fill="#0C1540"/>
<path d="M487.609 258.541V259.23H489.7V258.314H487.836C487.711 258.312 487.609 258.413 487.609 258.541Z" fill="#0C1540"/>
<path d="M485.184 258.541V259.23H487.274V258.314H485.41C485.287 258.312 485.184 258.413 485.184 258.541Z" fill="#0C1540"/>
<path d="M521.01 258.541V259.23H528.198V258.314H521.238C521.111 258.312 521.01 258.413 521.01 258.541Z" fill="#0C1540"/>
<path d="M477.31 258.541V259.23H484.498V258.314H477.538C477.411 258.312 477.31 258.413 477.31 258.541Z" fill="#0C1540"/>
<path d="M490.263 258.541V259.23H515.224V258.314H490.489C490.366 258.312 490.263 258.413 490.263 258.541Z" fill="#0C1540"/>
<path d="M477.882 258.312H472.815C472.529 258.312 472.299 258.544 472.299 258.831V259.228H478.111V258.539C478.109 258.413 478.007 258.312 477.882 258.312Z" fill="url(#paint3_linear_159_2962)"/>
<path d="M470.88 258.312H465.811C465.525 258.312 465.295 258.544 465.295 258.831V259.228H471.107V258.539C471.107 258.413 471.005 258.312 470.88 258.312Z" fill="url(#paint4_linear_159_2962)"/>
<path d="M463.878 258.312H458.812C458.525 258.312 458.293 258.544 458.293 258.831V259.228H464.107V258.539C464.105 258.413 464.003 258.312 463.878 258.312Z" fill="url(#paint5_linear_159_2962)"/>
<path d="M456.876 258.312H451.81C451.523 258.312 451.291 258.544 451.291 258.831V259.228H457.105V258.539C457.103 258.413 457.001 258.312 456.876 258.312Z" fill="url(#paint6_linear_159_2962)"/>
<path d="M448.633 258.312H445.981C445.694 258.312 445.462 258.544 445.462 258.831V259.228H448.86V258.539C448.86 258.413 448.758 258.312 448.633 258.312Z" fill="url(#paint7_linear_159_2962)"/>
<path d="M444.504 258.312H441.854C441.567 258.312 441.335 258.544 441.335 258.831V259.228H444.733V258.539C444.733 258.413 444.629 258.312 444.504 258.312Z" fill="url(#paint8_linear_159_2962)"/>
<path d="M440.617 258.312H437.967C437.681 258.312 437.448 258.544 437.448 258.831V259.228H440.846V258.539C440.846 258.413 440.745 258.312 440.617 258.312Z" fill="url(#paint9_linear_159_2962)"/>
<path d="M486.108 215.157C485.593 213.296 484.22 212.189 482.076 212.189L495.388 261.273C495.388 261.273 497.967 260.538 497.328 258.028C496.795 255.935 488.883 225.186 486.108 215.157Z" fill="#0C1540"/>
<path d="M481.826 212.189H419.443C418.57 212.189 417.931 213.01 418.145 213.857L429.628 259.23H495.204L483.66 213.62C483.449 212.778 482.692 212.189 481.826 212.189Z" fill="#02126A"/>
<path d="M476.562 257.171H492.009L488.889 244.842L476.562 257.171Z" fill="#1D3599"/>
<path d="M484.084 225.859L480.997 213.66H476.614C462.113 228.165 447.615 242.668 433.116 257.171H452.783L484.084 225.859Z" fill="#1D3599"/>
<path d="M429.87 261.206C429.87 261.393 430.023 261.546 430.21 261.546H494.58C494.955 261.546 495.257 261.242 495.257 260.866V259.23H429.87V261.206Z" fill="#1D3599"/>
<path d="M572.514 251.572C562.222 250.072 535.224 253.619 529.665 251.008C524.105 248.396 516.966 246.023 513.042 248.629C509.035 251.288 515.748 253.266 516.104 257.105C516.338 259.632 521.858 259.475 529.007 258.837C536.174 258.197 556.931 262.991 567.448 263.269C577.873 263.547 579.476 252.588 572.514 251.572Z" fill="#FBBCBE"/>
<path d="M99.7119 368H254.494V330.044H99.7119V368Z" fill="#3259B3"/>
<path d="M254.494 368H312.577V330.044H254.494V368Z" fill="#002382"/>
<path d="M190.447 330.424H318.543V322.674H190.447V330.424Z" fill="#1D3599"/>
<path d="M94.599 330.424H249.187V322.674H94.599V330.424Z" fill="#6F8FE4"/>
<path d="M263.106 219.523H109.429V312.053H263.106V219.523Z" fill="#002382"/>
<path d="M216.029 312.053H156.507V319.606H216.029V312.053Z" fill="#02126A"/>
<path d="M224.056 319.574H148.479V322.672H224.056V319.574Z" fill="#1D3597"/>
<path d="M216.029 312.053H156.507V314.758L216.029 317.485V312.053Z" fill="#0C1540"/>
<path d="M263.107 312.054H266.083V219.524H263.107V312.054Z" fill="#0C1540"/>
<path d="M251.204 223.84H111.864V307.738H251.204V223.84Z" fill="#5378CF"/>
<path d="M243.718 288.604H221.801V301.801H243.718V288.604Z" fill="#2647C8"/>
</g>
<defs>
<linearGradient id="paint0_linear_159_2962" x1="56.8162" y1="327.365" x2="55.6356" y2="325.404" gradientUnits="userSpaceOnUse">
<stop stop-color="#DBEBFF"/>
<stop offset="0.5274" stop-color="#DDECFF"/>
<stop offset="0.7367" stop-color="#E4F0FF"/>
<stop offset="0.8889" stop-color="#F0F7FF"/>
<stop offset="1" stop-color="white"/>
</linearGradient>
<linearGradient id="paint1_linear_159_2962" x1="323.478" y1="264.244" x2="396.757" y2="264.244" gradientUnits="userSpaceOnUse">
<stop offset="1.09e-06" stop-color="#FFD000"/>
<stop offset="1" stop-color="#FF7300"/>
</linearGradient>
<linearGradient id="paint2_linear_159_2962" x1="389.962" y1="170.116" x2="457.218" y2="171.636" gradientUnits="userSpaceOnUse">
<stop offset="1.09e-06" stop-color="#FFD000"/>
<stop offset="1" stop-color="#FF7300"/>
</linearGradient>
<linearGradient id="paint3_linear_159_2962" x1="472.296" y1="258.771" x2="478.109" y2="258.771" gradientUnits="userSpaceOnUse">
<stop stop-color="#AACEFF"/>
<stop offset="1" stop-color="#DBE9FF"/>
</linearGradient>
<linearGradient id="paint4_linear_159_2962" x1="465.295" y1="258.771" x2="471.107" y2="258.771" gradientUnits="userSpaceOnUse">
<stop stop-color="#AACEFF"/>
<stop offset="1" stop-color="#DBE9FF"/>
</linearGradient>
<linearGradient id="paint5_linear_159_2962" x1="458.292" y1="258.771" x2="464.105" y2="258.771" gradientUnits="userSpaceOnUse">
<stop stop-color="#AACEFF"/>
<stop offset="1" stop-color="#DBE9FF"/>
</linearGradient>
<linearGradient id="paint6_linear_159_2962" x1="451.29" y1="258.771" x2="457.104" y2="258.771" gradientUnits="userSpaceOnUse">
<stop stop-color="#AACEFF"/>
<stop offset="1" stop-color="#DBE9FF"/>
</linearGradient>
<linearGradient id="paint7_linear_159_2962" x1="445.463" y1="258.771" x2="448.86" y2="258.771" gradientUnits="userSpaceOnUse">
<stop stop-color="#AACEFF"/>
<stop offset="1" stop-color="#DBE9FF"/>
</linearGradient>
<linearGradient id="paint8_linear_159_2962" x1="441.335" y1="258.771" x2="444.732" y2="258.771" gradientUnits="userSpaceOnUse">
<stop stop-color="#AACEFF"/>
<stop offset="1" stop-color="#DBE9FF"/>
</linearGradient>
<linearGradient id="paint9_linear_159_2962" x1="437.449" y1="258.771" x2="440.847" y2="258.771" gradientUnits="userSpaceOnUse">
<stop stop-color="#AACEFF"/>
<stop offset="1" stop-color="#DBE9FF"/>
</linearGradient>
<clipPath id="clip0_159_2962">
<rect width="666" height="368" fill="white"/>
</clipPath>
</defs>
</svg>
