<svg width="523" height="338" viewBox="0 0 523 338" fill="none" xmlns="http://www.w3.org/2000/svg">
<g clip-path="url(#clip0_21_1868)">
<path d="M20.519 219.675C-5.36305 167.284 62.1823 145.714 96.9013 169.808C131.62 193.903 149.294 195.667 142.352 170.983C125.431 110.833 144.245 47.5687 236.409 11.719C328.572 -24.1306 404.73 29.5373 418.932 74.9338C433.134 120.33 439.288 133.111 449.704 126.06C488.878 99.5366 540.127 97.4122 517.401 184.238C494.678 271.064 441.661 323.515 441.661 323.515C441.661 323.515 65.3389 322.019 52.0814 319.668C38.8259 317.317 21.7809 310.266 3.47588 269.128C-14.831 227.99 46.401 272.065 20.519 219.675Z" fill="#C0CEED"/>
<path d="M261.772 338C392.655 338 498.756 331.515 498.756 323.515C498.756 315.515 392.655 309.03 261.772 309.03C130.889 309.03 24.7874 315.515 24.7874 323.515C24.7874 331.515 130.889 338 261.772 338Z" fill="#A1B5E5"/>
<path d="M291.268 103.247H276.513V320.347H291.268V103.247Z" fill="#203973"/>
<path d="M276.513 103.247H197.86V320.347H276.513V103.247Z" fill="#2B4C99"/>
<path d="M254.141 110.897H247.52V320.347H254.141V110.897Z" fill="#BFD8F6"/>
<path d="M239.565 110.897H232.944V320.347H239.565V110.897Z" fill="#BFD8F6"/>
<path d="M225.876 110.897H219.255V320.347H225.876V110.897Z" fill="#BFD8F6"/>
<path d="M211.3 110.897H204.679V320.347H211.3V110.897Z" fill="#BFD8F6"/>
<path d="M269.695 110.901H263.075V320.349H269.695V110.901Z" fill="#BFD8F6"/>
<path d="M254.141 143.724H247.52V155.736H254.141V143.724Z" fill="#E9F5FB"/>
<path d="M254.141 182.522H247.52V194.535H254.141V182.522Z" fill="#E9F5FB"/>
<path d="M239.565 155.736H232.944V167.748H239.565V155.736Z" fill="#E9F5FB"/>
<path d="M239.565 183.094H232.944V195.106H239.565V183.094Z" fill="#E9F5FB"/>
<path d="M239.565 120.578H232.944V132.59H239.565V120.578Z" fill="#E9F5FB"/>
<path d="M225.876 158.378H219.255V170.391H225.876V158.378Z" fill="#E9F5FB"/>
<path d="M254.141 209.994H247.52V222.006H254.141V209.994Z" fill="#E9F5FB"/>
<path d="M225.876 133.222H219.255V145.234H225.876V133.222Z" fill="#E9F5FB"/>
<path d="M211.3 201.169H204.679V213.181H211.3V201.169Z" fill="#E9F5FB"/>
<path d="M225.679 174.662H219.058V186.674H225.679V174.662Z" fill="#E9F5FB"/>
<path d="M211.3 164.385H204.679V176.397H211.3V164.385Z" fill="#E9F5FB"/>
<path d="M211.3 121.209H204.679V133.222H211.3V121.209Z" fill="#E9F5FB"/>
<path d="M239.565 223.251H232.944V235.263H239.565V223.251Z" fill="#E9F5FB"/>
<path d="M269.695 128.348H263.075V140.36H269.695V128.348Z" fill="#E9F5FB"/>
<path d="M254.364 276.911H247.743V288.924H254.364V276.911Z" fill="#E9F5FB"/>
<path d="M254.364 238.513H247.743V250.525H254.364V238.513Z" fill="#E9F5FB"/>
<path d="M239.789 261.286H233.168V273.298H239.789V261.286Z" fill="#E9F5FB"/>
<path d="M269.695 164.383H263.075V176.395H269.695V164.383Z" fill="#E9F5FB"/>
<path d="M263.075 264.294V265.708V276.306H269.695V265.708V264.294V253.696H263.075V264.294Z" fill="#E9F5FB"/>
<path d="M225.876 234.239H219.255V246.251H225.876V234.239Z" fill="#E9F5FB"/>
<path d="M226.099 275.935H219.478V287.947H226.099V275.935Z" fill="#E9F5FB"/>
<path d="M239.565 291.375H232.944V303.388H239.565V291.375Z" fill="#E9F5FB"/>
<path d="M211.3 275.935H204.679V287.947H211.3V275.935Z" fill="#E9F5FB"/>
<path d="M269.695 209.96H263.075V221.972H269.695V209.96Z" fill="#E9F5FB"/>
<path d="M211.3 247.222H204.679V259.234H211.3V247.222Z" fill="#E9F5FB"/>
<path d="M375.986 150.214H362.054V320.349H375.986V150.214Z" fill="#203973"/>
<path d="M362.054 150.214H304.714V320.349H362.054V150.214Z" fill="#2B4C99"/>
<path d="M320.377 177.238H308.057V184.274H320.377V177.238Z" fill="#CAE3FB"/>
<path d="M323.829 169.869H311.506V173.554H323.829V169.869Z" fill="#CAE3FB"/>
<path d="M350.935 169.869H330.727V173.554H350.935V169.869Z" fill="#CAE3FB"/>
<path d="M344.56 177.238H323.794V184.274H344.56V177.238Z" fill="#CAE3FB"/>
<path d="M350.933 192.65H345.02V196H350.933V192.65Z" fill="#CAE3FB"/>
<path d="M340.832 192.65H330.727V196H340.832V192.65Z" fill="#CAE3FB"/>
<path d="M317.667 192.65H311.506V196H317.667V192.65Z" fill="#CAE3FB"/>
<path d="M314.585 202.701H308.057V206.724H314.585V202.701Z" fill="#CAE3FB"/>
<path d="M355.862 202.701H347.977V206.724H355.862V202.701Z" fill="#CAE3FB"/>
<path d="M323.829 212.083H311.506V215.768H323.829V212.083Z" fill="#CAE3FB"/>
<path d="M361.142 212.083H330.727V215.768H361.142V212.083Z" fill="#CAE3FB"/>
<path d="M323.829 221.799H314.587V225.149H323.829V221.799Z" fill="#CAE3FB"/>
<path d="M361.142 221.799H330.727V225.149H361.142V221.799Z" fill="#CAE3FB"/>
<path d="M323.089 286.906H305.839V290.256H323.089V286.906Z" fill="#CAE3FB"/>
<path d="M323.827 230.843H305.098V234.194H323.827V230.843Z" fill="#CAE3FB"/>
<path d="M340.832 230.843H330.727V234.194H340.832V230.843Z" fill="#CAE3FB"/>
<path d="M355.862 230.843H347.236V234.194H355.862V230.843Z" fill="#CAE3FB"/>
<path d="M340.832 239.889H330.727V243.24H340.832V239.889Z" fill="#CAE3FB"/>
<path d="M355.862 239.889H347.977V243.24H355.862V239.889Z" fill="#CAE3FB"/>
<path d="M343.964 309.464H322.278V312.815H343.964V309.464Z" fill="#CAE3FB"/>
<path d="M311.504 249.606H305.098V252.878H311.504V249.606Z" fill="#CAE3FB"/>
<path d="M351.55 249.606H330.727V252.878H351.55V249.606Z" fill="#CAE3FB"/>
<path d="M321.425 296.548H316.987V299.822H321.425V296.548Z" fill="#CAE3FB"/>
<path d="M355.862 260.662H334.176V263.007H355.862V260.662Z" fill="#CAE3FB"/>
<path d="M321.858 260.662H314.463V263.007H321.858V260.662Z" fill="#CAE3FB"/>
<path d="M335.779 269.038H326.292V272.389H335.779V269.038Z" fill="#CAE3FB"/>
<path d="M347.977 269.038H341.138V272.389H347.977V269.038Z" fill="#CAE3FB"/>
<path d="M355.862 279.422H345.02V283.108H355.862V279.422Z" fill="#CAE3FB"/>
<path d="M353.626 296.51H334.157V299.86H353.626V296.51Z" fill="#CAE3FB"/>
<path d="M314.587 269.038H308.302V272.389H314.587V269.038Z" fill="#CAE3FB"/>
<path d="M358.821 309.464H352.905V312.815H358.821V309.464Z" fill="#CAE3FB"/>
<path d="M327.331 279.59H317.227V282.941H327.331V279.59Z" fill="#CAE3FB"/>
<path d="M331.641 303.211H312.912V306.561H331.641V303.211Z" fill="#CAE3FB"/>
<path d="M340.093 286.961H331.466V290.311H340.093V286.961Z" fill="#CAE3FB"/>
<path d="M342.915 154.567H333.428V157.918H342.915V154.567Z" fill="#CAE3FB"/>
<path d="M325.537 154.567H322.118V157.918H325.537V154.567Z" fill="#CAE3FB"/>
<path d="M338.173 162.443H328.068V165.791H338.173V162.443Z" fill="#CAE3FB"/>
<path d="M359.312 177.238H352.413V184.274H359.312V177.238Z" fill="#CAE3FB"/>
<path d="M405.378 103.285H389.648V320.347H466.057V151.975L405.378 103.285Z" fill="#203973"/>
<path d="M389.648 103.285L452.125 151.975V320.347H389.648V103.285Z" fill="#003F41"/>
<mask id="mask0_21_1868" style="mask-type:luminance" maskUnits="userSpaceOnUse" x="389" y="103" width="64" height="218">
<path d="M389.648 103.285L452.125 151.975V320.347H389.648V103.285Z" fill="white"/>
</mask>
<g mask="url(#mask0_21_1868)">
<path d="M389.648 103.285L452.125 151.975V320.347H389.648V103.285Z" fill="#2B4C99"/>
</g>
<mask id="mask1_21_1868" style="mask-type:luminance" maskUnits="userSpaceOnUse" x="389" y="103" width="64" height="218">
<path d="M389.648 103.285L452.125 151.975V320.347H389.648V103.285Z" fill="white"/>
</mask>
<g mask="url(#mask1_21_1868)">
<path d="M498.986 183.216H372.938V189.05H498.986V183.216Z" fill="#BFD8F6"/>
<path d="M498.986 169.397H372.938V175.23H498.986V169.397Z" fill="#BFD8F6"/>
<path d="M372.938 155.268V161.101H491.394H498.988V155.268H491.394H372.938Z" fill="#BFD8F6"/>
<path d="M498.986 141.411H372.938V147.246H498.986V141.411Z" fill="#BFD8F6"/>
<path d="M461.662 198.985H374.084V204.818H461.662V198.985Z" fill="#BFD8F6"/>
<path d="M461.661 212.806H373.721V218.639H461.661V212.806Z" fill="#BFD8F6"/>
<path d="M461.661 226.933H373.721V232.766H461.661V226.933Z" fill="#BFD8F6"/>
<path d="M461.662 240.788H374.084V246.623H461.662V240.788Z" fill="#BFD8F6"/>
<path d="M461.66 253.337H372.938V259.171H461.66V253.337Z" fill="#BFD8F6"/>
<path d="M461.66 266.217H372.938V272.052H461.66V266.217Z" fill="#BFD8F6"/>
<path d="M461.66 279H372.938V284.835H461.66V279Z" fill="#BFD8F6"/>
<path d="M462.606 115.268H375.03V121.103H462.606V115.268Z" fill="#BFD8F6"/>
<path d="M462.606 127.817H373.882V133.652H462.606V127.817Z" fill="#BFD8F6"/>
<path d="M473.608 293.392H385.667V299.226H473.608V293.392Z" fill="#BFD8F6"/>
<path d="M473.608 307.246H386.032V313.081H473.608V307.246Z" fill="#BFD8F6"/>
</g>
<mask id="mask2_21_1868" style="mask-type:luminance" maskUnits="userSpaceOnUse" x="389" y="103" width="64" height="218">
<path d="M389.648 103.285L452.125 151.975V320.347H389.648V103.285Z" fill="white"/>
</mask>
<g mask="url(#mask2_21_1868)">
<path d="M460.514 183.216H429.128V189.05H460.514V183.216Z" fill="#E9F5FB"/>
<path d="M400.274 183.216H392.681V189.05H400.274V183.216Z" fill="#E9F5FB"/>
<path d="M447.355 169.397H438.748V175.23H447.355V169.397Z" fill="#E9F5FB"/>
<path d="M435.962 169.397H429.128V175.23H435.962V169.397Z" fill="#E9F5FB"/>
<path d="M420.017 169.397H416.473V175.23H420.017V169.397Z" fill="#E9F5FB"/>
<path d="M392.681 169.397H389.137V175.23H392.681V169.397Z" fill="#E9F5FB"/>
<path d="M444.822 155.268H416.473V161.103H444.822V155.268Z" fill="#E9F5FB"/>
<path d="M406.855 155.268H400.274V161.103H406.855V155.268Z" fill="#E9F5FB"/>
<path d="M392.681 155.268H389.137V161.103H392.681V155.268Z" fill="#E9F5FB"/>
<path d="M469.121 141.411H438.748V147.246H469.121V141.411Z" fill="#E9F5FB"/>
<path d="M413.436 141.411H409.386V147.246H413.436V141.411Z" fill="#E9F5FB"/>
<path d="M441.918 198.985H434.326V204.818H441.918V198.985Z" fill="#E9F5FB"/>
<path d="M395.851 212.806H387.246V218.639H395.851V212.806Z" fill="#E9F5FB"/>
<path d="M405.469 212.806H398.635V218.639H405.469V212.806Z" fill="#E9F5FB"/>
<path d="M418.126 212.806H414.582V218.639H418.126V212.806Z" fill="#E9F5FB"/>
<path d="M445.462 212.806H441.918V218.639H445.462V212.806Z" fill="#E9F5FB"/>
<path d="M418.126 226.933H389.777V232.766H418.126V226.933Z" fill="#E9F5FB"/>
<path d="M434.324 226.933H427.742V232.766H434.324V226.933Z" fill="#E9F5FB"/>
<path d="M445.462 226.933H441.918V232.766H445.462V226.933Z" fill="#E9F5FB"/>
<path d="M425.213 240.788H421.163V246.623H425.213V240.788Z" fill="#E9F5FB"/>
<path d="M405.469 253.337H402.052V259.171H405.469V253.337Z" fill="#E9F5FB"/>
<path d="M418.126 253.337H410.532V259.171H418.126V253.337Z" fill="#E9F5FB"/>
<path d="M455.078 253.337H431.034V259.171H455.078V253.337Z" fill="#E9F5FB"/>
<path d="M425.213 266.217H421.163V272.052H425.213V266.217Z" fill="#E9F5FB"/>
<path d="M426.159 115.268H422.11V121.103H426.159V115.268Z" fill="#E9F5FB"/>
<path d="M406.416 127.817H402.999V133.652H406.416V127.817Z" fill="#E9F5FB"/>
<path d="M419.073 127.817H411.479V133.652H419.073V127.817Z" fill="#E9F5FB"/>
<path d="M456.027 127.817H431.98V133.652H456.027V127.817Z" fill="#E9F5FB"/>
<path d="M430.074 293.392H401.726V299.226H430.074V293.392Z" fill="#E9F5FB"/>
<path d="M446.274 293.392H439.692V299.226H446.274V293.392Z" fill="#E9F5FB"/>
<path d="M414.954 307.246H410.905V313.081H414.954V307.246Z" fill="#E9F5FB"/>
<path d="M405.469 198.985H374.084V204.818H405.469V198.985Z" fill="#E9F5FB"/>
</g>
<path d="M168.629 184.647V170.897H138.977V184.647H123.01V320.347H185.355V184.647H168.629Z" fill="#3259B3"/>
<path d="M126.392 184.647V170.897H156.045V184.647H172.771V320.347H110.425V184.647H126.392Z" fill="#5378CF"/>
<path d="M139.429 197.619H141.191H149.294V192.962H141.191H139.429H135.377H133.793V197.619H135.377H139.429Z" fill="#CAE3FB"/>
<path d="M167.789 202.764H152.288V207.42H167.789V202.764Z" fill="#CAE3FB"/>
<path d="M149.028 220.898H133.528V225.555H149.028V220.898Z" fill="#CAE3FB"/>
<path d="M149.028 238.663H133.528V243.32H149.028V238.663Z" fill="#CAE3FB"/>
<path d="M149.427 266.845H133.926V271.501H149.427V266.845Z" fill="#CAE3FB"/>
<path d="M113.629 276.704V281.359H116.447H120.499H129.131V276.704H120.499H116.447H113.629Z" fill="#CAE3FB"/>
<path d="M124.374 230.211H122.612H114.509V234.866H122.612H124.374H128.426H130.013V230.211H128.426H124.374Z" fill="#CAE3FB"/>
<path d="M129.131 266.902H113.629V271.559H129.131V266.902Z" fill="#CAE3FB"/>
<path d="M130.277 202.275H114.775V206.931H130.277V202.275Z" fill="#CAE3FB"/>
<path d="M167.814 304.458H152.312V309.114H167.814V304.458Z" fill="#CAE3FB"/>
<path d="M167.417 276.276H151.915V280.932H167.417V276.276Z" fill="#CAE3FB"/>
<path d="M167.681 290.367V285.71H163.455H152.179H151.915V290.367H152.179H163.455H167.681Z" fill="#CAE3FB"/>
<path d="M136.943 280.932H147.556H149.053V276.276H147.556H136.943H133.553V280.932H136.943Z" fill="#CAE3FB"/>
<path d="M129.131 258.079H128.072H126.489H122.437H120.676H113.629V262.735H120.676H122.437H126.489H128.072H129.131V258.079Z" fill="#CAE3FB"/>
<path d="M164.971 197.619H167.789V192.962H164.971H160.921H152.288V197.619H160.921H164.971Z" fill="#CAE3FB"/>
<path d="M145.419 207.42H149.294V202.764H145.419H137.141H133.793V207.42H137.141H145.419Z" fill="#CAE3FB"/>
<path d="M157.926 238.663H152.288V243.32H157.926H159.688H167.789V238.663H159.688H157.926Z" fill="#CAE3FB"/>
<path d="M167.789 220.898H156.516H152.288V225.555H156.516H167.789H168.056V220.898H167.789Z" fill="#CAE3FB"/>
<path d="M137.888 257.411H133.661V262.067H137.888H149.161H149.427V257.411H149.161H137.888Z" fill="#CAE3FB"/>
<path d="M153.787 266.845H152.288V271.501H153.787H164.399H167.789V266.845H164.399H153.787Z" fill="#CAE3FB"/>
<path d="M165.501 253.245H167.438V248.589H165.501H163.738H151.936V253.245H163.738H165.501Z" fill="#CAE3FB"/>
<path d="M136.805 253.245H139.792H143.424H149.095V248.589H143.424H139.792H136.805H133.593H133.289V253.245H133.593H136.805Z" fill="#CAE3FB"/>
<path d="M159.724 262.067H162.71H166.343H167.438V257.411H166.343H162.71H159.724H156.206H151.936V262.067H156.206H159.724Z" fill="#CAE3FB"/>
<path d="M158.135 234.866H161.123H164.756H167.438V230.211H164.756H161.123H158.135H154.619H151.936V234.866H154.619H158.135Z" fill="#CAE3FB"/>
<path d="M138.169 216.242H141.155H144.673H148.943V211.588H144.673H141.155H138.169H134.536H133.441V216.242H134.536H138.169Z" fill="#CAE3FB"/>
<path d="M154.931 216.242H158.983H160.745H167.789V211.588H160.745H158.983H154.931H153.346H152.288V216.242H153.346H154.931Z" fill="#CAE3FB"/>
<path d="M140.619 230.211H137.257H133.926V234.866H137.257H140.619H142.381H149.427V230.211H142.381H140.619Z" fill="#CAE3FB"/>
<path d="M118.386 220.409H114.509V225.064H118.386H126.664H130.013V220.409H126.664H118.386Z" fill="#CAE3FB"/>
<path d="M141.657 304.458H133.553V309.112H141.657H143.416H149.053V304.458H143.416H141.657Z" fill="#CAE3FB"/>
<path d="M124.902 253.424H129.131V248.768H124.902H113.629H113.365V253.424H113.629H124.902Z" fill="#CAE3FB"/>
<path d="M135.841 294.532H133.905V299.188H135.841H137.603H149.405V294.532H137.603H135.841Z" fill="#CAE3FB"/>
<path d="M164.538 294.532H161.55H157.919H152.248V299.188H157.919H161.55H164.538H167.75H168.056V294.532H167.75H164.538Z" fill="#CAE3FB"/>
<path d="M141.619 285.71H138.633H134.999H133.905V290.367H134.999H138.633H141.619H145.136H149.405V285.71H145.136H141.619Z" fill="#CAE3FB"/>
<path d="M123.283 239.455H120.298H116.664H113.981V244.112H116.664H120.298H123.283H126.801H129.482V239.455H126.801H123.283Z" fill="#CAE3FB"/>
<path d="M125.634 211.588H122.648H119.131H114.862V216.242H119.131H122.648H125.634H129.268H130.364V211.588H129.268H125.634Z" fill="#CAE3FB"/>
<path d="M123.184 197.619H126.548H129.88V192.962H126.548H123.184H121.425H114.378V197.619H121.425H123.184Z" fill="#CAE3FB"/>
<path d="M119.309 304.458H113.806V309.112H119.309H121.071H129.308V304.458H121.071H119.309Z" fill="#CAE3FB"/>
<path d="M117.901 285.431H113.673V290.085H117.901H129.174H129.439V285.431H129.174H117.901Z" fill="#CAE3FB"/>
<path d="M119.52 299.398H122.506H126.139H128.823V294.741H126.139H122.506H119.52H116.003H113.321V299.398H116.003H119.52Z" fill="#CAE3FB"/>
<path d="M423.639 188.458H408.885V329.698H423.639V188.458Z" fill="#3259B3"/>
<path d="M408.885 188.458H330.231V329.698H408.885V188.458Z" fill="#5378CF"/>
<path d="M386.513 196.111H379.891V329.7H386.513V196.111Z" fill="#BFD8F6"/>
<path d="M371.936 196.111H365.315V329.7H371.936V196.111Z" fill="#BFD8F6"/>
<path d="M358.247 196.111H351.626V329.7H358.247V196.111Z" fill="#BFD8F6"/>
<path d="M343.671 196.111H337.05V329.7H343.671V196.111Z" fill="#BFD8F6"/>
<path d="M402.068 196.113H395.448V329.7H402.068V196.113Z" fill="#BFD8F6"/>
<path d="M386.513 226.036H379.891V238.049H386.513V226.036Z" fill="#E9F5FB"/>
<path d="M386.513 264.833H379.891V276.845H386.513V264.833Z" fill="#E9F5FB"/>
<path d="M371.936 238.048H365.315V250.061H371.936V238.048Z" fill="#E9F5FB"/>
<path d="M371.936 265.406H365.315V277.418H371.936V265.406Z" fill="#E9F5FB"/>
<path d="M371.936 202.89H365.315V214.902H371.936V202.89Z" fill="#E9F5FB"/>
<path d="M358.247 240.691H351.626V252.703H358.247V240.691Z" fill="#E9F5FB"/>
<path d="M386.513 292.307H379.891V304.319H386.513V292.307Z" fill="#E9F5FB"/>
<path d="M358.247 215.534H351.626V227.546H358.247V215.534Z" fill="#E9F5FB"/>
<path d="M343.671 283.481H337.05V295.493H343.671V283.481Z" fill="#E9F5FB"/>
<path d="M358.05 256.975H351.429V268.987H358.05V256.975Z" fill="#E9F5FB"/>
<path d="M343.671 246.695H337.05V258.707H343.671V246.695Z" fill="#E9F5FB"/>
<path d="M343.671 203.522H337.05V215.534H343.671V203.522Z" fill="#E9F5FB"/>
<path d="M371.936 305.566H365.315V317.578H371.936V305.566Z" fill="#E9F5FB"/>
<path d="M402.068 210.661H395.447V222.673H402.068V210.661Z" fill="#E9F5FB"/>
<path d="M402.068 246.695H395.448V258.707H402.068V246.695Z" fill="#E9F5FB"/>
<path d="M402.068 292.272H395.448V304.284H402.068V292.272Z" fill="#E9F5FB"/>
<path d="M313.333 214.761H250.987V329.7H313.333V214.761Z" fill="#3259B3"/>
<path d="M300.748 214.761H238.402V329.7H300.748V214.761Z" fill="#5378CF"/>
<path d="M267.407 227.733H269.168H277.272V223.076H269.168H267.407H263.355H261.77V227.733H263.355H267.407Z" fill="#CAE3FB"/>
<path d="M295.767 232.878H280.265V237.535H295.767V232.878Z" fill="#CAE3FB"/>
<path d="M277.008 251.012H261.506V255.669H277.008V251.012Z" fill="#CAE3FB"/>
<path d="M277.008 268.777H261.506V273.434H277.008V268.777Z" fill="#CAE3FB"/>
<path d="M277.403 296.961H261.901V301.616H277.403V296.961Z" fill="#CAE3FB"/>
<path d="M241.606 306.818V311.473H244.425H248.476H257.106V306.818H248.476H244.425H241.606Z" fill="#CAE3FB"/>
<path d="M252.351 260.325H250.59H242.486V264.98H250.59H252.351H256.403H257.988V260.325H256.403H252.351Z" fill="#CAE3FB"/>
<path d="M257.108 297.014H241.606V301.671H257.108V297.014Z" fill="#CAE3FB"/>
<path d="M258.252 232.389H242.75V237.045H258.252V232.389Z" fill="#CAE3FB"/>
<path d="M295.394 306.39H279.892V311.046H295.394V306.39Z" fill="#CAE3FB"/>
<path d="M295.658 320.481V315.824H291.43H280.157H279.892V320.481H280.157H291.43H295.658Z" fill="#CAE3FB"/>
<path d="M264.921 311.046H275.533H277.03V306.39H275.533H264.921H261.529V311.046H264.921Z" fill="#CAE3FB"/>
<path d="M257.106 288.193H256.05H254.465H250.415H248.651H241.606V292.849H248.651H250.415H254.465H256.05H257.106V288.193Z" fill="#CAE3FB"/>
<path d="M292.948 227.733H295.767V223.076H292.948H288.897H280.265V227.733H288.897H292.948Z" fill="#CAE3FB"/>
<path d="M273.395 237.535H277.272V232.878H273.395H265.117H261.77V237.535H265.117H273.395Z" fill="#CAE3FB"/>
<path d="M285.903 268.777H280.265V273.436H285.903H287.663H295.767V268.777H287.663H285.903Z" fill="#CAE3FB"/>
<path d="M295.767 251.012H284.493H280.265V255.669H284.493H295.767H296.031V251.012H295.767Z" fill="#CAE3FB"/>
<path d="M265.865 287.525H261.639V292.181H265.865H277.139H277.403V287.525H277.139H265.865Z" fill="#CAE3FB"/>
<path d="M281.764 296.961H280.265V301.616H281.764H292.376H295.767V296.961H292.376H281.764Z" fill="#CAE3FB"/>
<path d="M293.477 283.359H295.415V278.703H293.477H291.715H279.913V283.359H291.715H293.477Z" fill="#CAE3FB"/>
<path d="M264.782 283.359H267.768H271.401H277.072V278.703H271.401H267.768H264.782H261.57H261.264V283.359H261.57H264.782Z" fill="#CAE3FB"/>
<path d="M287.699 292.181H290.687H294.319H295.415V287.525H294.319H290.687H287.699H284.182H279.913V292.181H284.182H287.699Z" fill="#CAE3FB"/>
<path d="M286.113 264.98H289.1H292.734H295.415V260.325H292.734H289.1H286.113H282.597H279.913V264.98H282.597H286.113Z" fill="#CAE3FB"/>
<path d="M266.147 246.356H269.132H272.65H276.918V241.702H272.65H269.132H266.147H262.513H261.416V246.356H262.513H266.147Z" fill="#CAE3FB"/>
<path d="M282.908 246.356H286.96H288.72H295.767V241.702H288.72H286.96H282.908H281.323H280.265V246.356H281.323H282.908Z" fill="#CAE3FB"/>
<path d="M268.596 260.325H265.234H261.901V264.98H265.234H268.596H270.358H277.403V260.325H270.358H268.596Z" fill="#CAE3FB"/>
<path d="M246.363 250.523H242.486V255.178H246.363H254.641H257.988V250.523H254.641H246.363Z" fill="#CAE3FB"/>
<path d="M252.88 283.538H257.106V278.882H252.88H241.606H241.342V283.538H241.606H252.88Z" fill="#CAE3FB"/>
<path d="M269.596 315.824H266.61H262.977H261.882V320.481H262.977H266.61H269.596H273.114H277.382V315.824H273.114H269.596Z" fill="#CAE3FB"/>
<path d="M251.26 269.569H248.275H244.641H241.958V274.226H244.641H248.275H251.26H254.778H257.46V269.569H254.778H251.26Z" fill="#CAE3FB"/>
<path d="M253.611 241.702H250.626H247.108H242.838V246.356H247.108H250.626H253.611H257.245H258.34V241.702H257.245H253.611Z" fill="#CAE3FB"/>
<path d="M251.162 227.733H254.524H257.857V223.076H254.524H251.162H249.4H242.353V227.733H249.4H251.162Z" fill="#CAE3FB"/>
<path d="M245.877 315.545H241.65V320.199H245.877H257.152H257.416V315.545H257.152H245.877Z" fill="#CAE3FB"/>
<path d="M123.574 214.761H110.989V329.7H123.574V214.761Z" fill="#3259B3"/>
<path d="M110.991 214.761H67.1386V329.7H110.991V214.761Z" fill="#5378CF"/>
<path d="M77.648 227.733H79.4116H87.5132V223.076H79.4116H77.648H73.5982H72.0132V227.733H73.5982H77.648Z" fill="#CAE3FB"/>
<path d="M106.008 232.878H90.5083V237.535H106.008V232.878Z" fill="#CAE3FB"/>
<path d="M87.2509 251.012H71.7491V255.669H87.2509V251.012Z" fill="#CAE3FB"/>
<path d="M87.2509 268.777H71.7491V273.434H87.2509V268.777Z" fill="#CAE3FB"/>
<path d="M87.6462 296.961H72.1444V301.616H87.6462V296.961Z" fill="#CAE3FB"/>
<path d="M105.638 306.39H90.1358V311.046H105.638V306.39Z" fill="#CAE3FB"/>
<path d="M105.9 320.481V315.824H101.673H90.4H90.1358V320.481H90.4H101.673H105.9Z" fill="#CAE3FB"/>
<path d="M75.1623 311.046H85.7762H87.2737V306.39H85.7762H75.1623H71.7719V311.046H75.1623Z" fill="#CAE3FB"/>
<path d="M103.192 227.733H106.008V223.076H103.192H99.1401H90.5083V227.733H99.1401H103.192Z" fill="#CAE3FB"/>
<path d="M83.6382 237.535H87.5132V232.878H83.6382H75.3599H72.0132V237.535H75.3599H83.6382Z" fill="#CAE3FB"/>
<path d="M96.145 268.777H90.5083V273.436H96.145H97.9067H106.008V268.777H97.9067H96.145Z" fill="#CAE3FB"/>
<path d="M106.008 251.012H94.7368H90.5083V255.669H94.7368H106.008H106.274V251.012H106.008Z" fill="#CAE3FB"/>
<path d="M76.1087 287.525H71.8802V292.181H76.1087H87.3821H87.6462V287.525H87.3821H76.1087Z" fill="#CAE3FB"/>
<path d="M92.0058 296.961H90.5083V301.616H92.0058H102.62H106.008V296.961H102.62H92.0058Z" fill="#CAE3FB"/>
<path d="M103.72 283.359H105.657V278.703H103.72H101.958H90.1567V283.359H101.958H103.72Z" fill="#CAE3FB"/>
<path d="M75.0254 283.359H78.011H81.6446H87.3136V278.703H81.6446H78.011H75.0254H71.8137H71.5077V283.359H71.8137H75.0254Z" fill="#CAE3FB"/>
<path d="M97.9428 292.181H100.928H104.562H105.657V287.525H104.562H100.928H97.9428H94.4251H90.1567V292.181H94.4251H97.9428Z" fill="#CAE3FB"/>
<path d="M96.3559 264.98H99.3434H102.975H105.657V260.325H102.975H99.3434H96.3559H92.8382H90.1567V264.98H92.8382H96.3559Z" fill="#CAE3FB"/>
<path d="M76.388 246.356H79.3755H82.8913H87.1616V241.702H82.8913H79.3755H76.388H72.7563H71.6598V246.356H72.7563H76.388Z" fill="#CAE3FB"/>
<path d="M93.1518 246.356H97.2016H98.9633H106.008V241.702H98.9633H97.2016H93.1518H91.5649H90.5083V246.356H91.5649H93.1518Z" fill="#CAE3FB"/>
<path d="M78.8377 260.325H75.4777H72.1444V264.98H75.4777H78.8377H80.5994H87.6462V260.325H80.5994H78.8377Z" fill="#CAE3FB"/>
<path d="M79.8392 315.824H76.8518H73.22H72.1235V320.481H73.22H76.8518H79.8392H83.3569H87.6253V315.824H83.3569H79.8392Z" fill="#CAE3FB"/>
<path d="M215.291 200.413H201.359V329.7H215.291V200.413Z" fill="#3259B3"/>
<path d="M201.359 200.413H144.019V329.7H201.359V200.413Z" fill="#92A9E0"/>
<path d="M198.016 227.439H185.695V234.475H198.016V227.439Z" fill="#CAE3FB"/>
<path d="M194.569 220.068H182.246V223.754H194.569V220.068Z" fill="#CAE3FB"/>
<path d="M175.348 220.068H155.14V223.754H175.348V220.068Z" fill="#CAE3FB"/>
<path d="M182.278 227.439H161.512V234.475H182.278V227.439Z" fill="#CAE3FB"/>
<path d="M161.052 242.851H155.14V246.202H161.052V242.851Z" fill="#CAE3FB"/>
<path d="M175.346 242.851H165.241V246.202H175.346V242.851Z" fill="#CAE3FB"/>
<path d="M194.568 242.851H188.407V246.202H194.568V242.851Z" fill="#CAE3FB"/>
<path d="M198.018 252.901H191.488V256.921H198.018V252.901Z" fill="#CAE3FB"/>
<path d="M158.095 252.901H150.21V256.921H158.095V252.901Z" fill="#CAE3FB"/>
<path d="M194.569 262.282H182.246V265.968H194.569V262.282Z" fill="#CAE3FB"/>
<path d="M175.346 262.282H144.931V265.968H175.346V262.282Z" fill="#CAE3FB"/>
<path d="M191.488 271.998H182.246V275.349H191.488V271.998Z" fill="#CAE3FB"/>
<path d="M175.346 271.998H144.931V275.349H175.346V271.998Z" fill="#CAE3FB"/>
<path d="M200.975 281.045H182.246V284.395H200.975V281.045Z" fill="#CAE3FB"/>
<path d="M175.346 281.045H165.241V284.395H175.346V281.045Z" fill="#CAE3FB"/>
<path d="M158.837 281.045H150.21V284.395H158.837V281.045Z" fill="#CAE3FB"/>
<path d="M175.346 290.091H165.241V293.441H175.346V290.091Z" fill="#CAE3FB"/>
<path d="M158.095 290.091H150.21V293.441H158.095V290.091Z" fill="#CAE3FB"/>
<path d="M200.973 299.805H194.567V303.079H200.973V299.805Z" fill="#CAE3FB"/>
<path d="M175.346 299.805H154.523V303.079H175.346V299.805Z" fill="#CAE3FB"/>
<path d="M171.896 310.861H150.21V313.207H171.896V310.861Z" fill="#CAE3FB"/>
<path d="M191.611 310.861H184.217V313.207H191.611V310.861Z" fill="#CAE3FB"/>
<path d="M179.781 319.238H170.294V322.588H179.781V319.238Z" fill="#CAE3FB"/>
<path d="M164.935 319.238H158.095V322.588H164.935V319.238Z" fill="#CAE3FB"/>
<path d="M197.773 319.238H191.488V322.588H197.773V319.238Z" fill="#CAE3FB"/>
<path d="M172.645 204.769H163.158V208.119H172.645V204.769Z" fill="#CAE3FB"/>
<path d="M183.956 204.769H180.538V208.119H183.956V204.769Z" fill="#CAE3FB"/>
<path d="M178.006 212.642H167.902V215.993H178.006V212.642Z" fill="#CAE3FB"/>
<path d="M153.66 227.439H146.759V234.475H153.66V227.439Z" fill="#CAE3FB"/>
<path d="M270.717 162.043C270.757 161.784 271.092 161.563 271.112 161.306C271.135 161.046 270.844 160.771 270.846 160.513C270.85 160.252 271.149 159.985 271.133 159.728C271.12 159.467 270.791 159.239 270.757 158.982C270.723 158.723 270.981 158.417 270.93 158.163C270.877 157.908 270.519 157.729 270.451 157.478C270.381 157.229 270.594 156.888 270.506 156.642C270.417 156.399 270.039 156.271 269.934 156.033C269.83 155.795 269.991 155.428 269.87 155.199C269.748 154.971 269.355 154.897 269.218 154.678C269.081 154.457 269.189 154.072 269.035 153.863C268.883 153.652 268.482 153.637 268.315 153.439C268.148 153.241 268.201 152.843 268.02 152.656C267.838 152.47 267.441 152.511 267.249 152.338C267.055 152.165 267.051 151.765 266.846 151.605C266.641 151.447 266.253 151.544 266.036 151.402C265.822 151.259 265.759 150.863 265.531 150.735C265.307 150.608 264.936 150.76 264.7 150.65C264.467 150.539 264.349 150.157 264.106 150.061C263.866 149.968 263.52 150.172 263.271 150.096C263.024 150.02 262.855 149.658 262.598 149.599C262.344 149.54 262.03 149.791 261.777 149.749C261.519 149.709 261.299 149.374 261.042 149.353C260.782 149.33 260.508 149.622 260.251 149.62C259.991 149.616 259.725 149.317 259.468 149.332C259.208 149.348 258.978 149.675 258.723 149.709C258.465 149.744 258.159 149.485 257.906 149.536C257.652 149.587 257.471 149.945 257.222 150.016C256.971 150.086 256.631 149.875 256.388 149.962C256.145 150.05 256.015 150.431 255.78 150.535C255.542 150.64 255.175 150.478 254.947 150.6C254.717 150.722 254.645 151.116 254.427 151.253C254.206 151.39 253.822 151.282 253.611 151.436C253.402 151.588 253.385 151.988 253.188 152.157C252.99 152.325 252.593 152.273 252.406 152.454C252.222 152.635 252.262 153.033 252.089 153.227C251.916 153.419 251.515 153.425 251.357 153.631C251.2 153.836 251.297 154.225 251.154 154.442C251.012 154.657 250.616 154.72 250.489 154.948C250.362 155.173 250.514 155.544 250.403 155.78C250.293 156.014 249.911 156.132 249.816 156.376C249.723 156.616 249.926 156.962 249.85 157.212C249.776 157.459 249.413 157.63 249.354 157.885C249.295 158.141 249.544 158.453 249.504 158.708C249.465 158.965 249.13 159.188 249.107 159.445C249.084 159.705 249.377 159.979 249.373 160.238C249.37 160.499 249.071 160.766 249.086 161.025C249.102 161.285 249.43 161.514 249.463 161.771C249.497 162.03 249.24 162.336 249.292 162.589C249.343 162.845 249.7 163.025 249.771 163.275C249.841 163.526 249.63 163.865 249.717 164.109C249.805 164.354 250.185 164.482 250.289 164.718C250.394 164.956 250.232 165.323 250.354 165.552C250.476 165.782 250.869 165.854 251.006 166.075C251.143 166.296 251.034 166.68 251.188 166.892C251.34 167.101 251.741 167.118 251.909 167.316C252.074 167.514 252.023 167.912 252.203 168.099C252.384 168.285 252.781 168.243 252.975 168.417C253.169 168.59 253.172 168.99 253.378 169.149C253.583 169.307 253.97 169.21 254.187 169.353C254.402 169.496 254.465 169.892 254.691 170.019C254.917 170.147 255.286 169.995 255.521 170.105C255.755 170.215 255.873 170.598 256.116 170.693C256.356 170.787 256.701 170.583 256.95 170.661C257.196 170.737 257.368 171.099 257.621 171.158C257.876 171.217 258.188 170.967 258.444 171.007C258.703 171.047 258.921 171.382 259.18 171.405C259.438 171.428 259.712 171.135 259.97 171.139C260.231 171.143 260.497 171.441 260.753 171.428C261.013 171.413 261.243 171.085 261.498 171.051C261.757 171.017 262.063 171.276 262.315 171.222C262.57 171.171 262.751 170.813 262.999 170.743C263.25 170.672 263.589 170.886 263.834 170.796C264.077 170.709 264.206 170.328 264.442 170.223C264.679 170.118 265.046 170.28 265.274 170.158C265.504 170.037 265.576 169.642 265.797 169.505C266.015 169.368 266.401 169.475 266.612 169.323C266.821 169.17 266.838 168.769 267.036 168.601C267.234 168.434 267.631 168.485 267.817 168.304C268.003 168.123 267.962 167.725 268.134 167.531C268.307 167.337 268.706 167.333 268.866 167.126C269.024 166.92 268.927 166.532 269.069 166.315C269.212 166.1 269.607 166.037 269.735 165.81C269.862 165.586 269.708 165.215 269.822 164.977C269.932 164.742 270.314 164.624 270.407 164.381C270.499 164.139 270.297 163.794 270.373 163.545C270.447 163.299 270.81 163.128 270.869 162.873C270.926 162.61 270.677 162.298 270.717 162.043Z" fill="#E2410F"/>
<path d="M251.724 202.888C255.27 201.632 277.205 202.254 286.363 204.12C290.259 204.913 289.938 209.821 286.432 211.171C277.066 214.778 265.098 214.94 256.855 214.236C249.615 213.619 247.895 204.245 251.724 202.888Z" fill="#E2410F"/>
<path d="M260.652 233.394L262.08 235.284C262.08 235.284 261.407 235.863 261.12 236.246C260.565 236.986 261.91 240.668 260.911 241.058C260.44 241.243 259.649 240.16 259.301 239.273C258.98 238.45 258.368 236.908 258.18 236.402C257.94 235.756 257.323 234.734 257.469 234.401C257.851 233.539 258.953 234.011 259.563 233.771C260.094 233.565 260.652 233.394 260.652 233.394Z" fill="#002CAA"/>
<path d="M262.197 235.319C262.197 235.319 261.572 235.682 261.122 236.248C261.122 236.248 260.981 236.566 260.554 236.255C260.204 236.002 259.569 233.773 259.569 233.773C260.094 233.558 261.141 233.156 261.141 233.156L262.197 235.319Z" fill="white"/>
<path d="M247.287 199.248C251.017 198.761 274.222 204.613 282.787 208.351C286.432 209.943 285.094 214.675 281.382 215.262C271.472 216.83 258.132 216.705 250.219 214.293C243.267 212.174 243.26 199.773 247.287 199.248Z" fill="#FF550D"/>
<path d="M283.237 216.225C271.168 227.325 262.18 235.587 262.18 235.587C261.262 235.385 260.316 234.416 259.676 233.493C259.676 233.493 267.04 223.095 275.765 211.601C281.519 204.021 288.161 211.698 283.237 216.225Z" fill="#FF550D"/>
<path d="M291.734 236.708L294.077 236.366C294.077 236.366 294.258 237.234 294.457 237.672C294.837 238.515 298.705 239.109 298.566 240.173C298.5 240.675 297.171 240.849 296.23 240.725C295.356 240.611 293.712 240.405 293.178 240.325C292.498 240.224 291.305 240.274 291.086 239.984C290.516 239.234 291.458 238.494 291.544 237.843C291.614 237.279 291.734 236.708 291.734 236.708Z" fill="#002CAA"/>
<path d="M294.161 236.28C294.161 236.28 294.178 237.005 294.456 237.672C294.456 237.672 294.665 237.95 294.188 238.174C293.798 238.359 291.54 237.843 291.54 237.843C291.605 237.279 291.759 236.166 291.759 236.166L294.161 236.28Z" fill="white"/>
<path d="M290.284 208.201C292.677 224.437 294.455 236.526 294.455 236.526C293.773 237.173 292.247 237.416 291.153 236.977C291.153 236.977 286.778 225.214 282.181 211.529C279.151 202.503 289.309 201.576 290.284 208.201Z" fill="#E2410F"/>
<path d="M268.52 188.677C268.131 186.92 266.513 179.718 264.227 176.016C262.865 173.81 258.617 173.402 258.908 177.784C259.094 180.6 262.851 188.121 264.917 190.619C264.921 190.625 264.928 190.63 264.932 190.636C265.896 189.648 267.133 188.968 268.52 188.677Z" fill="white"/>
<path d="M281.439 191.112L281.179 188.85C279.581 189.155 275.174 188.746 271.633 188.418C270.012 188.27 268.475 188.127 267.331 188.06C267.306 188.037 267.209 187.935 267.053 187.771C266.015 188.74 265.307 189.962 264.991 191.304C267.944 192.366 277.443 191.789 281.439 191.112Z" fill="white"/>
<path d="M282.766 187.961C282.946 187.782 283.093 187.535 283.3 187.811C283.448 187.977 282.876 188.759 282.675 188.847C282.127 188.909 282.082 188.641 281.578 188.774C282 188.593 282.418 188.26 282.766 187.961Z" fill="white"/>
<path d="M284.668 190.442C284.657 190.448 284.644 190.448 284.634 190.453C283.404 190.767 281.89 191.017 281.422 191.106C281.272 190.56 281.152 188.866 281.179 188.848C281.793 188.748 282.333 188.445 282.872 188.336C283.503 188.201 284.95 188.055 285.052 188.041C285.347 188.028 286.08 187.94 286.31 187.956C286.607 187.975 286.804 188.117 286.873 188.395C286.878 188.506 286.833 188.784 286.115 188.841C285.231 188.909 284.727 189.012 284.727 189.012C284.727 189.012 285.124 189.338 284.818 189.574C284.818 189.574 285.193 189.829 284.883 190.12C284.881 190.124 285.014 190.358 284.668 190.442Z" fill="white"/>
<path d="M267.503 182.631C267.021 180.038 265.922 177.636 265.223 176.513C262.904 172.787 259.695 175.601 259.877 178.188C260.004 180.019 260.143 182.405 260.829 184.544L267.503 182.631Z" fill="#0066E9"/>
<path d="M256.595 167.423C256.724 168.593 256.272 171.82 255.85 172.416C256.736 174.59 260.229 174.71 260.514 173.455C260.006 172.077 260.679 169.574 260.694 169.334C259.83 169.433 256.878 167.647 256.595 167.423Z" fill="white"/>
<path d="M266.525 203.535C264.615 206.12 256.139 207.35 248.385 204.036L248.03 199.162L246.498 210.426C245.776 210.636 244.995 210.714 244.544 210.306C242.469 187.428 244.35 176.043 252.072 173.229C252.935 172.917 255.65 172.414 255.65 172.414C255.65 172.414 257.462 174.251 258.708 174.251C260.417 174.251 260.314 173.454 260.314 173.454C260.314 173.454 262.614 174.108 263.159 174.451C264.74 175.449 265.029 177.482 265.077 179.442C265.09 180.109 265.079 180.767 265.079 181.375C265.079 182.039 265.118 182.846 265.185 183.769C265.411 186.903 265.941 191.386 266.263 196.286C266.329 197.306 266.388 198.344 266.432 199.393C266.492 200.763 266.525 202.149 266.525 203.535Z" fill="#007FE2"/>
<path d="M258.866 174.116C257.619 174.116 255.65 172.416 255.65 172.416C255.65 172.416 254.254 172.645 253.82 172.717C252.863 172.877 252.072 173.231 252.072 173.231C255.483 175.041 260.613 179.848 260.613 179.848C260.613 179.848 262.821 176.922 263.094 174.417C262.418 174.042 260.314 173.456 260.314 173.456C260.314 173.456 260.092 174.116 258.866 174.116Z" fill="#0066E9"/>
<path d="M266.434 199.393C262.192 197.596 256.348 194.626 254.702 192.753C253.562 191.491 251.893 188.867 250.525 186.25L250.126 186.414C248.902 184.08 248.283 181.508 248.138 180.194C247.657 175.829 251.918 176.054 253.372 178.197C254.404 179.713 255.768 181.675 256.551 183.781L256.122 183.958C256.122 183.96 256.124 183.966 256.124 183.967C257.418 187.472 258.262 190.866 258.321 191.043C259.294 191.651 260.575 192.513 261.926 193.421C263.313 194.354 264.858 195.393 266.266 196.284C266.331 197.306 266.39 198.344 266.434 199.393Z" fill="#0066E9"/>
<path d="M250.19 199.891C250.19 199.893 250.19 199.895 250.19 199.895C250.19 200.333 250.548 200.691 250.985 200.691H269.666C270.103 200.691 270.461 200.333 270.461 199.895C270.461 199.893 270.461 199.891 270.461 199.891H250.19Z" fill="#BFD8F6"/>
<path d="M272.473 183.394L268.579 199.682C268.515 199.943 268.572 200.693 269.541 200.693L285.368 200.493V182.323L273.906 182.326C273.241 182.311 272.65 182.749 272.473 183.394Z" fill="#BFD8F6"/>
<path d="M293.978 182.319H273.746C273.537 182.319 273.353 182.46 273.298 182.662L269.13 200.101C269.049 200.398 269.273 200.691 269.579 200.691H288.418C289.45 200.691 290.356 200 290.632 199.004L294.427 182.909C294.509 182.612 294.286 182.319 293.978 182.319Z" fill="#E9F5FB"/>
<path d="M275.495 199.688H270.341L271.382 194.961L275.495 199.688Z" fill="#BFD8F6"/>
<path d="M272.986 187.683L274.016 183.006H275.478C280.314 188.567 285.151 194.127 289.988 199.688H283.427L272.986 187.683Z" fill="#BFD8F6"/>
<path d="M271.937 196.454C271.55 196.667 271.112 196.848 270.681 196.931C270.74 197.192 270.858 197.518 271.386 197.491C271.597 197.48 272.467 196.633 272.469 196.419C272.471 196.046 272.142 196.322 271.937 196.454Z" fill="white"/>
<path d="M269.516 198.921C265.677 197.592 257.032 193.526 254.968 191.18C253.817 189.905 252.123 187.234 250.745 184.588C249.524 182.252 248.549 179.937 248.404 178.622C247.923 174.259 252.184 174.48 253.638 176.625C254.668 178.142 255.609 180.288 256.39 182.393C257.682 185.9 258.528 189.294 258.587 189.471C259.562 190.078 260.841 190.941 262.19 191.847C265.031 193.76 268.537 196.115 270.179 196.737C270.191 196.743 270.204 196.749 270.215 196.751C270.267 196.771 270.318 196.79 270.367 196.806V196.81L269.522 198.9L269.516 198.921Z" fill="white"/>
<path d="M270.274 196.771C270.767 196.899 271.557 197.217 272.051 197.426C272.64 197.668 273.895 198.353 273.982 198.401C274.229 198.555 274.898 198.86 275.05 199.031C275.147 199.142 275.286 199.549 275.25 199.726C275.2 199.96 274.938 199.989 274.938 199.989C274.936 200.301 274.17 200.147 274.185 200.221C274.254 200.533 273.847 200.72 272.878 200.158C272.819 200.126 270.168 199.221 269.343 198.862C269.526 198.34 270.246 196.768 270.274 196.771Z" fill="white"/>
<path d="M250.392 184.841C249.172 182.505 248.549 179.936 248.404 178.622C247.923 174.259 252.184 174.48 253.638 176.625C254.668 178.142 256.034 180.103 256.815 182.21L250.392 184.841Z" fill="#007FE2"/>
<path d="M261.012 162.171C259.003 161.771 257.351 163.17 256.956 165.163C256.95 165.184 256.547 167.232 256.547 167.232C256.249 168.736 258.094 171.559 259.457 171.542C262.678 171.5 264.461 165.959 264.482 165.298C264.545 163.45 262.882 162.542 261.012 162.171Z" fill="white"/>
<path d="M256.825 164.289C256.297 164.261 255.757 164.94 255.728 165.468C255.702 165.966 256.264 166.76 256.751 166.92C256.988 166.38 257.467 165.283 257.671 164.594C257.393 164.392 257.024 164.301 256.825 164.289Z" fill="white"/>
<path d="M409.202 126.009C410.749 126.412 411.811 124.842 413.256 124.631C415.519 124.299 418.341 125.181 419.417 127.345C419.715 127.945 419.814 128.923 420.285 129.399C421.04 130.163 422.475 130.54 422.841 131.725C423.676 134.423 421.492 135.495 422.085 138.194C422.482 140.001 423.761 140.467 424.719 141.923C425.702 143.416 425.77 145.106 424.643 146.464C424.155 147.05 422.532 148.036 423.533 148.845C423.725 148.999 424.039 149.167 424.261 149.27C426.332 150.225 428.14 152.11 428.598 154.394C429.77 160.237 423.909 163.307 418.995 163.903C415.057 164.383 408.867 163.699 405.627 161.449C400.821 158.114 397.326 152.211 399.13 145.723C399.569 144.141 401.207 142.826 400.992 141.093C400.851 139.961 400.334 138.944 400.076 137.846C399.804 136.686 399.842 135.453 400.192 134.314C400.393 133.658 400.703 133.022 401.171 132.519C402.064 131.554 403.312 131.724 404.346 131.042C405.027 130.593 405.526 129.909 405.766 129.131C406.017 128.314 405.755 127.423 406.249 126.667C406.897 125.689 408.202 125.748 409.202 126.009Z" fill="#E2410F"/>
<path d="M418.438 175.662C414.854 173.713 391.269 170.636 381.15 171.072C376.843 171.259 376.355 176.566 379.878 178.609C389.289 184.067 402.073 186.282 411.017 186.935C418.871 187.508 422.307 177.767 418.438 175.662Z" fill="#E2410F"/>
<path d="M378.624 167.101C378.379 166.975 378.149 166.77 378.027 167.118C377.928 167.335 378.768 167.956 379.004 167.981C379.586 167.868 379.517 167.528 380.08 167.501C379.587 167.453 379.078 167.297 378.624 167.101Z" fill="#FFB5A5"/>
<path d="M378.766 167.689C378.078 167.817 376.571 168.276 376.465 168.306C376.165 168.416 375.374 168.595 375.171 168.748C375.042 168.845 374.8 169.254 374.8 169.454C374.8 169.717 375.078 169.806 375.078 169.806C375.011 170.143 375.87 170.149 375.838 170.227C375.695 170.549 376.091 170.84 377.261 170.453C377.332 170.431 380.395 170.052 381.364 169.848C381.288 169.241 380.534 167.47 380.502 167.47C379.941 167.499 379.348 167.577 378.766 167.689Z" fill="#FFB5A5"/>
<path d="M396.786 160.855C396.574 160.851 396.38 160.878 396.224 160.928C393.379 161.832 383.432 167.012 380.319 167.482C380.68 168.443 380.916 169.267 380.975 169.917C386.081 169.041 398.546 165.424 398.786 163.364C399.006 161.478 397.723 160.87 396.786 160.855Z" fill="#FFB5A5"/>
<path d="M403.301 145.812C403.067 145.812 402.858 145.911 402.725 146.087C401.88 147.21 400.642 149.797 399.331 152.538C398.014 155.293 396.651 158.141 395.523 159.888C395.329 160.189 395.16 160.482 395.015 160.771C393.865 161.27 392.341 161.995 390.733 162.763C387.221 164.436 382.852 166.517 381.096 166.808L381.98 170.37C386.347 169.557 396.359 166.591 398.964 164.386C401.701 162.136 410.8 152.382 409.109 149.803C408.542 148.942 404.325 145.814 403.301 145.812Z" fill="#0066E9"/>
<path d="M352.071 189.465C352.615 189.18 353.15 188.843 353.15 188.843L352.616 186.33C352.616 186.33 351.666 186.471 351.147 186.435C350.148 186.364 348.091 182.65 347.063 183.191C346.579 183.446 346.904 184.866 347.383 185.778C347.827 186.625 348.654 188.22 348.935 188.736C349.293 189.391 349.69 190.623 350.068 190.739C351.045 191.036 351.442 189.797 352.071 189.465Z" fill="#BFD8F6"/>
<path d="M352.673 186.21C352.673 186.21 351.93 186.465 351.149 186.435C351.149 186.435 350.79 186.326 350.739 186.895C350.699 187.362 352.071 189.465 352.071 189.465C352.618 189.187 353.692 188.612 353.692 188.612L352.673 186.21Z" fill="white"/>
<path d="M417.904 172.207C413.86 171.685 390.756 177.347 381.476 181.413C377.527 183.141 379.129 187.392 383.151 188.022C393.894 189.709 406.309 190.126 415.213 189.064C424.046 188.011 422.271 172.77 417.904 172.207Z" fill="#FF550D"/>
<path d="M382.582 180.533C365.106 183.705 352.098 186.069 352.098 186.069C351.67 186.996 351.885 188.449 352.263 189.606C352.263 189.606 370.197 189.947 385.821 189.928C396.123 189.916 389.711 179.239 382.582 180.533Z" fill="#FF550D"/>
<path d="M399.061 170.57L396.992 175.801C396.992 175.801 397.567 176.686 399.681 176.911L400.905 175.234L400.743 177.52C410.861 182.802 421.186 180.56 421.186 180.56C422.233 177.179 422.516 171.491 422.516 171.491L399.061 170.57Z" fill="#0066E9"/>
<path d="M413.809 137.08C413.463 137.28 411.23 138.482 410.131 138.66C410.108 138.923 409.911 142.473 409.08 143.048C409.189 144.465 413.02 144.927 414.339 142.696C413.974 141.979 413.82 138.428 413.809 137.08Z" fill="white"/>
<path d="M418.134 144.054C417.18 143.707 414.36 142.58 414.36 142.58C414.36 142.58 412.374 144.139 410.671 143.829C409.742 143.659 409.097 142.955 409.097 142.955C409.097 142.955 405.618 143.602 404.964 143.89C402.436 145.003 401.678 147.299 401.783 149.245C402.151 156.028 396.921 170.977 398.787 172.136C401.332 173.718 417.001 180.103 422.528 176.53C422.528 176.53 423.541 157.149 422.469 150.467C422.062 147.914 420.998 145.091 418.134 144.054Z" fill="#007FE2"/>
<path d="M414.092 135.615C414.016 133.747 412.9 131.781 411.024 131.607C409.28 131.446 407.851 132.12 407.423 133.764C407.269 134.354 407.617 140.431 410.173 140.669C411.42 140.785 414.154 138.752 414.164 137.374C414.164 137.372 414.116 136.22 414.092 135.615Z" fill="white"/>
<path d="M353.346 191.951C353.755 191.491 354.139 190.988 354.139 190.988L352.759 188.822C352.759 188.822 351.919 189.288 351.421 189.437C350.461 189.722 347.234 186.964 346.461 187.834C346.094 188.243 346.896 189.458 347.664 190.145C348.377 190.781 349.711 191.986 350.153 192.37C350.718 192.858 351.522 193.872 351.915 193.848C352.934 193.783 352.871 192.483 353.346 191.951Z" fill="#CAE3FB"/>
<path d="M352.768 188.692C352.768 188.692 352.162 189.193 351.421 189.437C351.421 189.437 351.045 189.461 351.199 190.012C351.326 190.465 353.346 191.951 353.346 191.951C353.762 191.498 354.564 190.583 354.564 190.583L352.768 188.692Z" fill="white"/>
<path d="M378.506 171.976C363.515 181.518 352.358 188.624 352.358 188.624C352.312 189.642 353.196 191.068 354.331 191.656C354.331 191.656 366.78 187.032 381.243 181.11C390.779 177.206 384.622 168.085 378.506 171.976Z" fill="#E2410F"/>
<path d="M409.428 172.435C409.428 172.437 409.428 172.437 409.428 172.439C409.428 172.875 409.073 173.231 408.639 173.231H390.059C389.624 173.231 389.27 172.875 389.27 172.439C389.27 172.437 389.27 172.435 389.27 172.435H409.428Z" fill="#BFD8F6"/>
<path d="M387.265 156.026L391.138 172.226C391.203 172.485 391.146 173.231 390.182 173.231L374.439 173.031V154.96L385.84 154.964C386.501 154.948 387.088 155.386 387.265 156.026Z" fill="#BFD8F6"/>
<path d="M365.876 154.958H385.999C386.207 154.958 386.391 155.097 386.446 155.299L390.589 172.645C390.671 172.94 390.448 173.233 390.142 173.233H371.406C370.378 173.233 369.477 172.546 369.203 171.554L365.429 155.546C365.349 155.249 365.57 154.958 365.876 154.958Z" fill="#E9F5FB"/>
<path d="M384.261 172.233H389.384L388.348 167.531L384.261 172.233Z" fill="#BFD8F6"/>
<path d="M386.756 160.294L385.732 155.643H384.276C379.466 161.173 374.656 166.703 369.844 172.233H376.368L386.756 160.294Z" fill="#BFD8F6"/>
<path d="M418.548 150.465C418.356 150.079 418.242 149.677 418.2 149.266C416.325 152.312 413.474 154.59 411.093 157.484C407.786 161.506 403.911 167.564 399.31 169.913C403.82 169.873 408.341 169.193 410.642 167.682C413.944 165.51 422.167 155.609 418.548 150.465Z" fill="#0066E9"/>
<path d="M389.795 168.744C389.703 168.961 390.545 169.549 390.777 169.568C391.345 169.443 391.271 169.11 391.822 169.07C391.34 169.035 390.836 168.894 390.384 168.712C390.139 168.594 389.907 168.398 389.795 168.744Z" fill="white"/>
<path d="M392.239 169.028C391.687 169.068 391.106 169.161 390.536 169.285C389.861 169.427 388.39 169.915 388.288 169.951C387.995 170.067 387.223 170.263 387.028 170.415C386.902 170.514 386.676 170.922 386.68 171.12C386.687 171.379 386.961 171.461 386.961 171.461C386.902 171.794 387.748 171.777 387.717 171.855C387.586 172.174 387.982 172.452 389.124 172.043C389.194 172.018 392.197 171.569 393.145 171.346C393.056 170.751 392.271 169.028 392.239 169.028Z" fill="white"/>
<path d="M419.54 151.307C418.985 150.482 414.352 147.248 414.059 147.646C412.446 149.833 409.244 158.004 406.963 161.622C404.166 166.06 408.255 166.429 409.534 165.359C412.906 162.542 420.815 153.208 419.54 151.307Z" fill="#FFBE8C"/>
<path d="M408.088 162.114C407.881 162.116 407.689 162.146 407.539 162.199C404.764 163.159 395.11 168.504 392.06 169.043C392.438 169.98 392.691 170.783 392.767 171.422C397.765 170.433 409.935 166.564 410.12 164.533C410.287 162.671 409.012 162.106 408.088 162.114Z" fill="white"/>
<path d="M420.223 150.935C419.643 150.102 415.416 147.132 414.411 147.155C414.181 147.16 413.978 147.263 413.852 147.438C413.048 148.563 408.178 159.445 407.111 161.192C406.929 161.493 406.771 161.784 406.634 162.074C405.517 162.593 404.035 163.345 402.472 164.139C399.061 165.871 394.816 168.028 393.096 168.358L394.054 171.839C398.326 170.929 408.1 167.764 410.608 165.531C413.242 163.252 421.95 153.429 420.223 150.935Z" fill="#007FE2"/>
<path d="M219.407 173.473C219.63 173.32 219.827 173.092 219.991 173.416C220.112 173.616 219.371 174.322 219.147 174.375C218.567 174.337 218.592 173.998 218.043 174.042C218.512 173.933 218.989 173.718 219.407 173.473Z" fill="white"/>
<path d="M200.965 169.635C201.171 169.606 201.364 169.608 201.52 169.637C204.399 170.166 214.717 173.977 217.803 174.051C217.569 175.03 217.44 175.86 217.465 176.501C212.391 176.281 199.814 174.299 199.329 172.325C198.883 170.516 200.055 169.766 200.965 169.635Z" fill="white"/>
<path d="M220.918 176.41C220.905 176.414 220.89 176.412 220.88 176.414C219.542 176.509 217.921 176.482 217.419 176.488C217.366 175.892 217.59 174.031 217.619 174.019C218.276 174.031 218.864 173.895 219.445 173.882C220.127 173.859 221.659 173.979 221.769 173.987C222.075 174.029 222.855 174.076 223.092 174.135C223.398 174.209 223.575 174.398 223.594 174.699C223.579 174.815 223.48 175.095 222.722 175.019C221.788 174.923 221.247 174.937 221.247 174.937C221.247 174.937 221.598 175.35 221.235 175.538C221.235 175.538 221.578 175.873 221.199 176.119C221.199 176.119 221.292 176.387 220.918 176.41Z" fill="white"/>
<path d="M192.909 156.275C194.829 158.188 199.211 165.759 202.001 168.982C205.424 172.934 201.45 173.914 200.027 173.052C196.283 170.785 187.083 162.776 188.056 160.711C188.48 159.814 192.562 155.929 192.909 156.275Z" fill="white"/>
<path d="M192.729 155.651C192.961 155.616 193.185 155.687 193.341 155.843C194.342 156.842 195.941 159.245 197.63 161.79C199.331 164.35 202.91 169.123 203.094 169.391C204.31 169.724 216.028 173.397 217.817 173.44L217.438 177.116C212.97 176.92 202.571 175.38 199.673 173.557C196.621 171.697 186.178 163.26 187.501 160.45C187.947 159.508 191.71 155.795 192.729 155.651Z" fill="#0066E9"/>
<path d="M225.023 223.969C224.738 223.484 224.419 222.492 224.419 222.492L221.726 223.179C221.726 223.179 221.655 223.863 221.64 224.529C221.621 225.3 220.61 226.282 221.367 227.087C221.659 227.398 223.045 227.194 223.852 227.228C224.485 227.255 226.429 227.293 227.463 227.318C228.579 227.346 230.109 226.981 230.124 226.387C230.158 225.123 225.57 224.906 225.023 223.969Z" fill="#002382"/>
<path d="M224.508 222.38L221.692 222.541C221.692 222.541 221.648 223.861 221.642 224.527C221.642 224.527 224.339 224.852 224.772 224.588C225.302 224.266 225.023 223.967 225.023 223.967C224.616 223.225 224.508 222.38 224.508 222.38Z" fill="white"/>
<path d="M206.881 196.001C214.365 211.207 221.41 224.411 221.41 224.411C222.714 224.22 224.225 223.731 224.918 222.871C224.918 222.871 220.964 209.083 215.648 190.562C213.48 183.008 201.948 185.974 206.881 196.001Z" fill="#E2410F"/>
<path d="M213.795 195.719C203.786 191.217 178.822 184.84 174.435 185.361C169.699 185.927 169.257 197.109 177.392 199.686C186.651 202.622 200.405 205.527 212.06 203.813C216.424 203.172 218.054 197.634 213.795 195.719Z" fill="#FF550D"/>
<path d="M205.148 235.024C205.089 234.462 205.209 233.428 205.209 233.428L202.474 232.939C202.474 232.939 202.13 233.531 201.84 234.131C201.503 234.826 200.179 235.3 200.536 236.347C200.675 236.75 202.02 237.139 202.74 237.504C203.307 237.79 205.061 238.631 205.992 239.082C206.995 239.57 208.541 239.87 208.799 239.335C209.348 238.203 205.258 236.105 205.148 235.024Z" fill="#002382"/>
<path d="M205.335 233.364L202.704 232.343C202.704 232.343 202.119 233.525 201.84 234.131C201.84 234.131 204.162 235.543 204.666 235.484C205.279 235.41 205.148 235.024 205.148 235.024C205.086 234.178 205.335 233.364 205.335 233.364Z" fill="white"/>
<path d="M205.684 201.757C203.292 218.54 201.729 232.863 201.729 232.863C202.645 233.902 204.373 234.454 205.43 234.137C205.43 234.137 209.935 220.52 215.985 202.226C218.451 194.763 207.262 190.691 205.684 201.757Z" fill="#FF550D"/>
<path d="M211.944 186.627C201.281 184.04 175.57 182.357 171.355 183.676C166.803 185.102 167.772 201.692 177.394 201.152C187.09 200.606 200.257 197.82 211.401 193.994C215.57 192.563 216.481 187.727 211.944 186.627Z" fill="#E2410F"/>
<path d="M186.765 147.606C186.788 148.832 186.017 152.137 185.522 152.715C186.235 155.055 189.85 155.508 190.264 154.234C189.867 152.757 190.8 150.221 190.838 149.976C189.931 149.997 187.039 147.865 186.765 147.606Z" fill="white"/>
<path d="M188.736 143.587C187.016 144.031 186.247 145.744 186.686 147.452C186.689 147.471 187.14 149.226 187.14 149.226C187.47 150.513 189.971 152.03 191.032 151.504C193.537 150.261 192.854 145.255 192.623 144.729C191.978 143.26 190.338 143.176 188.736 143.587Z" fill="white"/>
<path d="M194.464 162.902C194.804 160.433 195.097 157.215 193.027 155.63C192.493 155.22 190.264 154.234 190.264 154.234C190.264 154.234 189.396 155.089 188.521 154.912C187.248 154.655 185.521 152.715 185.521 152.715C185.521 152.715 182.657 152.978 181.731 153.223C173.457 155.411 167.909 171.723 167.909 195.656C168.318 195.738 169.458 195.226 170.437 194.417L171.64 186.151L172.371 190.596C179.031 187.767 188.774 190.086 194.703 184.234C193.922 171.438 194.264 164.333 194.464 162.902Z" fill="#007FE2"/>
<path d="M188.521 154.91C187.25 154.653 185.521 152.713 185.521 152.713C185.521 152.713 184.05 152.82 183.592 152.852C182.582 152.927 181.729 153.222 181.729 153.222C185.099 155.422 189.969 160.893 189.969 160.893C189.969 160.893 191.988 157.859 192.507 155.285C192.201 155.101 190.262 154.232 190.262 154.232C190.262 154.232 189.396 155.087 188.521 154.91Z" fill="#0066E9"/>
<path d="M192.351 142.209C189.952 139.82 186.271 140.34 184.893 142.715C182.833 146.269 185.872 148.211 186.724 150.72C186.724 150.72 186.288 146.723 186.885 145.167C192.003 145.896 193.907 144.499 194.867 142.953C194.867 142.953 193.801 143.656 192.351 142.209Z" fill="#002382"/>
<path d="M186.252 146.82C185.828 146.995 185.661 147.73 185.836 148.154C186.003 148.554 186.739 148.963 187.18 148.908C187.161 148.396 187.126 147.358 187.028 146.742C186.739 146.686 186.414 146.751 186.252 146.82Z" fill="white"/>
<path d="M184.32 185.454C184.32 185.456 184.32 185.458 184.32 185.458C184.32 185.881 184.665 186.225 185.085 186.225H203.107C203.529 186.225 203.873 185.881 203.873 185.458C203.873 185.456 203.873 185.454 203.873 185.454H184.32Z" fill="#BFD8F6"/>
<path d="M205.817 169.538L202.06 185.253C201.997 185.504 202.054 186.227 202.987 186.227L218.257 186.035V168.506L207.201 168.51C206.558 168.493 205.986 168.917 205.817 169.538Z" fill="#BFD8F6"/>
<path d="M226.564 168.502H207.045C206.843 168.502 206.667 168.637 206.614 168.832L202.594 185.656C202.514 185.942 202.729 186.225 203.027 186.225H221.203C222.199 186.225 223.073 185.559 223.339 184.598L227 169.07C227.076 168.784 226.861 168.502 226.564 168.502Z" fill="white"/>
<path d="M208.731 185.258H203.761L204.764 180.699L208.731 185.258Z" fill="#BFD8F6"/>
<path d="M206.311 173.676L207.305 169.165H208.715C213.381 174.529 218.048 179.894 222.714 185.258H216.386L206.311 173.676Z" fill="#BFD8F6"/>
<path d="M181.581 162.319C181.718 160.431 177.309 159.094 177.309 159.094C177.309 159.094 173.246 161.16 182.814 174.487C185.659 178.449 194.517 180.863 194.517 180.863C194.517 180.863 181.159 168.175 181.581 162.319Z" fill="#0066E9"/>
<path d="M203.067 180.507C202.621 180.617 202.132 180.684 201.676 180.651C202.185 180.762 202.073 181.063 202.588 181.255C202.807 181.268 203.67 180.827 203.613 180.613C203.552 180.276 203.311 180.429 203.067 180.507Z" fill="#E9F5FB"/>
<path d="M205.981 182.538C205.819 182.368 205.122 182.085 204.863 181.938C204.772 181.893 203.461 181.245 202.847 181.023C202.332 180.832 201.8 180.67 201.29 180.56C201.26 180.556 200.302 182.062 200.141 182.608C200.998 182.94 203.748 183.752 203.808 183.783C204.823 184.314 205.228 184.106 205.146 183.79C205.127 183.714 205.916 183.838 205.905 183.52C205.905 183.52 206.173 183.48 206.213 183.238C206.243 183.058 206.085 182.646 205.981 182.538Z" fill="#E9F5FB"/>
<path d="M189.373 172.384C189.276 172.089 189.158 171.79 189.019 171.478C188.202 169.671 187.322 166.793 186.469 164.012C185.621 161.244 184.821 158.63 184.183 157.452C184.084 157.269 183.899 157.145 183.679 157.111C182.716 156.968 177.964 158.361 177.309 159.094C175.349 161.285 182.881 172.723 185.142 175.23C187.286 177.676 196.302 181.889 200.3 183.275L201.636 180.042C200.025 179.519 196.199 176.937 193.126 174.864C191.718 173.918 190.386 173.018 189.373 172.384Z" fill="#007FE2"/>
</g>
<defs>
<clipPath id="clip0_21_1868">
<rect width="523" height="338" fill="white"/>
</clipPath>
</defs>
</svg>
