<svg width="16" height="16" viewBox="0 0 16 16" fill="none" xmlns="http://www.w3.org/2000/svg">
<path d="M8.49022 10.4435L12.2477 6.51946C12.3101 6.45501 12.3595 6.37833 12.3933 6.29384C12.4271 6.20936 12.4445 6.11874 12.4445 6.02722C12.4445 5.9357 12.4271 5.84508 12.3933 5.76059C12.3595 5.67611 12.3101 5.59943 12.2477 5.53498C12.1231 5.40585 11.9546 5.33337 11.7789 5.33337C11.6032 5.33337 11.4346 5.40585 11.31 5.53498L7.98478 8.96679L4.6928 5.53498C4.56819 5.40585 4.39964 5.33337 4.22394 5.33337C4.04824 5.33337 3.87969 5.40585 3.75508 5.53498C3.69224 5.59919 3.64225 5.67576 3.608 5.76025C3.57376 5.84475 3.55593 5.93549 3.55557 6.02722C3.55593 6.11895 3.57376 6.20969 3.608 6.29418C3.64225 6.37868 3.69224 6.45525 3.75508 6.51946L7.5126 10.4435C7.57488 10.5139 7.65046 10.57 7.73459 10.6085C7.81872 10.6469 7.90957 10.6667 8.00141 10.6667C8.09325 10.6667 8.1841 10.6469 8.26823 10.6085C8.35236 10.57 8.42794 10.5139 8.49022 10.4435Z" fill="#28468D"/>
</svg>
