<svg width="40" height="40" viewBox="0 0 40 40" fill="none" xmlns="http://www.w3.org/2000/svg">
<g clip-path="url(#clip0_30_47)">
<path d="M9.44745 2.96085C8.65953 3.19522 8.03225 3.57803 7.45087 4.17178C6.57115 5.07022 6.11981 6.14834 6.11981 7.37491C6.11981 7.89834 6.15041 8.04678 6.31106 8.32803C6.5941 8.82022 7.03778 9.06241 7.64976 9.06241C8.54478 9.06241 9.10321 8.51553 9.21796 7.53897C9.30211 6.81241 9.5316 6.43741 10.0594 6.14053L10.3654 5.97647H22.6433H34.9211L35.2271 6.14053C35.579 6.33584 35.7243 6.49209 35.9232 6.87491C36.0609 7.14053 36.0685 7.48428 36.0685 15.3124V23.4765L35.9079 23.789C35.556 24.4608 35.1888 24.6249 33.9878 24.6718L33.0469 24.7108V20.4296C33.0469 15.6796 33.0469 15.6952 32.5344 14.6562C32.1672 13.9062 31.364 13.0858 30.6296 12.7108C29.5357 12.1483 30.5531 12.1874 16.5235 12.1874C5.28599 12.1874 3.83254 12.203 3.41946 12.3124C1.83596 12.7265 0.527854 14.0624 0.114768 15.6796C-0.0611763 16.3671 -0.0535265 32.9999 0.122417 33.6952C0.527854 35.3046 1.84361 36.6483 3.41181 37.0624C3.83254 37.1718 5.24009 37.1874 16.5235 37.1874C30.5531 37.1874 29.5357 37.2265 30.6296 36.664C31.364 36.289 32.1672 35.4687 32.5344 34.7187C33.024 33.7265 33.0469 33.5312 33.0469 30.5155V27.8124H34.1638C35.4413 27.8124 35.9156 27.7187 36.7494 27.289C37.4837 26.914 38.287 26.0937 38.6542 25.3437C39.1973 24.2499 39.1667 24.7812 39.1667 15.3124C39.1667 5.84366 39.1973 6.37491 38.6542 5.28116C38.287 4.53116 37.4837 3.71085 36.7494 3.33585C35.6555 2.77335 36.6805 2.81241 22.5974 2.82022C10.7403 2.82022 9.87584 2.83585 9.44745 2.96085ZM29.1073 15.5155C29.7652 15.8749 29.9258 16.2499 29.9717 17.4765L30.01 18.4374H18.5889H7.16783L6.83889 18.6327C6.35696 18.9218 6.11981 19.3749 6.11981 19.9999C6.11981 20.6249 6.35696 21.078 6.83889 21.3671L7.16783 21.5624H18.5812H29.9947L29.9717 27.203C29.9488 32.5468 29.9411 32.8671 29.8034 33.1249C29.6045 33.5077 29.4592 33.664 29.1073 33.8593L28.8013 34.0233H16.5235H4.24563L3.93964 33.8593C3.58775 33.664 3.4424 33.5077 3.24351 33.1249C3.10582 32.8593 3.09817 32.5155 3.09817 24.6874C3.09817 16.8593 3.10582 16.5155 3.24351 16.2499C3.51125 15.7343 3.81724 15.4999 4.36037 15.3827C4.50572 15.3515 10.0671 15.3358 16.7147 15.3437L28.8013 15.3515L29.1073 15.5155Z" fill="#A1B5E5"/>
<path d="M18.4589 28.0156C17.9846 28.3047 17.7474 28.7578 17.7474 29.375C17.7474 30 17.9846 30.4531 18.4665 30.7422L18.7955 30.9375H22.3373H25.8791L26.208 30.7422C26.69 30.4531 26.9271 30 26.9271 29.375C26.9271 28.75 26.69 28.2969 26.208 28.0078L25.8791 27.8125H22.3296H18.7802L18.4589 28.0156Z" fill="#A1B5E5"/>
</g>
<defs>
<clipPath id="clip0_30_47">
<rect width="39.1667" height="40" fill="white"/>
</clipPath>
</defs>
</svg>
