<svg width="40" height="41" viewBox="0 0 40 41" fill="none" xmlns="http://www.w3.org/2000/svg">
<path d="M15.4063 1.84183C13.75 2.29027 12.4609 3.53148 11.8672 5.26117C11.6406 5.9178 11.5859 7.15902 11.75 7.87171C11.8203 8.17601 11.875 8.43226 11.875 8.44827C11.875 8.46429 10.4922 8.48831 8.81251 8.50433L5.74219 8.53636L5.10157 8.75257C3.92969 9.15296 2.95313 9.96976 2.32032 11.0588C1.72657 12.0918 1.68751 12.3241 1.65626 14.9746C1.64063 16.5682 1.65626 17.433 1.71876 17.6412C1.88282 18.2098 2.59376 18.8104 3.10938 18.8184H3.28126V26.7221C3.28126 33.1684 3.30469 34.7299 3.39063 35.1543C3.73438 36.8039 4.70313 38.0932 6.12501 38.8059C7.22657 39.3504 6.42969 39.3264 20.2344 39.3024L32.6953 39.2784L33.2031 39.1022C34.7266 38.5657 35.9531 37.3244 36.4609 35.7709L36.6797 35.1143L36.7031 26.9623C36.7266 18.8825 36.7266 18.8184 36.8828 18.8184C37.125 18.8184 37.5938 18.5942 37.8438 18.3539C38.3281 17.8815 38.3594 17.7293 38.3594 15.2469C38.3594 13.285 38.3438 12.9246 38.2109 12.3961C37.7734 10.6504 36.5625 9.32913 34.8828 8.75257L34.2578 8.53636L31.1953 8.50433C29.5078 8.48831 28.125 8.45628 28.125 8.42425C28.1328 8.39222 28.1797 8.15199 28.2422 7.88773C28.625 6.27015 28.0938 4.44437 26.875 3.20316C25.9375 2.24222 24.9375 1.77777 23.6328 1.7057C22.375 1.64163 21.2656 1.96996 20.3516 2.68265L20 2.96292L19.6484 2.68265C18.5078 1.79378 16.8359 1.45745 15.4063 1.84183ZM17.5859 5.48538C17.7422 5.58949 17.9531 5.81371 18.0547 5.98187C18.2266 6.25414 18.2422 6.39827 18.2656 7.38324L18.2969 8.48831H17.2891C16.375 8.48831 16.2422 8.4723 15.9297 8.30413C15.4141 8.02386 15.1328 7.55941 15.0938 6.9348C15.0625 6.39827 15.1641 6.06995 15.5 5.7016C16.0078 5.11702 16.9141 5.02894 17.5859 5.48538ZM24.1016 5.38128C24.6172 5.66156 24.9219 6.19808 24.9219 6.8307C24.9219 7.38324 24.6797 7.8637 24.2344 8.20003C23.8906 8.44827 23.8828 8.44827 22.8047 8.4723L21.7188 8.50433V7.47933C21.7188 6.60648 21.7422 6.40628 21.8828 6.10999C22.2734 5.28519 23.2969 4.94886 24.1016 5.38128ZM18.2813 13.6934V15.375H11.6406H5.00001V14.6223C5.00001 13.2129 5.25001 12.5643 5.92969 12.1959L6.27344 12.0118H12.2813H18.2813V13.6934ZM34.2266 12.292C34.7891 12.6924 34.9375 13.1088 34.9844 14.342L35.0234 15.375H28.3672H21.7188V13.6934V12.0118L27.8047 12.0278L33.8906 12.0518L34.2266 12.292ZM18.2813 27.3467V35.883L13.1406 35.859L8.00001 35.835L7.61719 35.6268C7.38282 35.5067 7.13282 35.2905 6.99219 35.0823L6.75782 34.7379L6.73438 26.7782L6.71876 18.8184H12.5H18.2813V27.3467ZM33.2656 26.7782L33.2422 34.7379L33.0078 35.0823C32.8672 35.2905 32.6172 35.5067 32.3828 35.6268L32 35.835L26.8594 35.859L21.7188 35.883V27.3467V18.8184H27.5H33.2813L33.2656 26.7782Z" fill="#A1B5E5"/>
</svg>
