<svg width="39" height="40" viewBox="0 0 39 40" fill="none" xmlns="http://www.w3.org/2000/svg">
<path d="M11.3877 1.39844C11.2201 1.47656 10.9764 1.66406 10.8393 1.80469C10.4508 2.22656 10.3594 2.54688 10.3594 3.50781V4.36719L8.40176 4.39062L6.43652 4.41406L5.97949 4.64062C5.39297 4.9375 4.81406 5.53125 4.52461 6.13281L4.30371 6.60156V20V33.3984L4.52461 33.8672C4.81406 34.4688 5.39297 35.0625 5.97949 35.3594L6.43652 35.5859H19.5H32.5635L33.0205 35.3594C33.607 35.0625 34.1859 34.4688 34.4754 33.8672L34.6963 33.3984V20V6.60156L34.4754 6.13281C34.1859 5.53125 33.607 4.9375 33.0205 4.64062L32.5635 4.41406L30.6059 4.39062L28.6406 4.36719V3.50781C28.6406 2.54688 28.5492 2.22656 28.1607 1.80469C27.8027 1.42188 27.399 1.25 26.8125 1.25C26.226 1.25 25.8223 1.42188 25.4643 1.80469C25.0758 2.23438 24.9844 2.54688 24.9844 3.51562V4.375H19.5H14.0156V3.49219C14.0156 2.80469 13.9852 2.54688 13.8709 2.30469C13.6957 1.92188 13.3072 1.53125 12.934 1.375C12.5379 1.20312 11.7686 1.21875 11.3877 1.39844ZM31.0781 10V11.875H19.5H7.92188V10V8.125H19.5H31.0781V10ZM31.0781 23.75V31.875H19.5H7.92188V23.75V15.625H19.5H31.0781V23.75Z" fill="#A1B5E5"/>
<path d="M24.1846 18.2733C24.0018 18.3593 22.7069 19.5468 20.8787 21.3202L17.87 24.2265L17.4891 23.8436C15.8895 22.2655 15.0744 21.5233 14.8155 21.3983C14.4041 21.203 13.6196 21.203 13.2159 21.3983C12.8426 21.578 12.4617 21.9765 12.3094 22.3593C12.1418 22.7577 12.1571 23.5546 12.3323 23.953C12.4998 24.3358 16.4151 28.1952 16.9711 28.5311C17.4358 28.8124 18.2127 28.8358 18.6926 28.5936C18.8754 28.4999 20.5741 26.9218 22.7373 24.8202C25.5024 22.1483 26.5155 21.1171 26.645 20.8593C26.8582 20.414 26.8735 19.6327 26.6678 19.1796C26.4926 18.7968 26.1041 18.4061 25.7309 18.2499C25.3424 18.078 24.5655 18.0936 24.1846 18.2733Z" fill="#A1B5E5"/>
</svg>
