<svg width="40" height="40" viewBox="0 0 40 40" fill="none" xmlns="http://www.w3.org/2000/svg">
<g clip-path="url(#clip0_30_66)">
<path d="M3.53906 0.117188C1.91406 0.554688 0.539063 1.94531 0.117188 3.57031C-0.03125 4.14062 -0.03125 5.45312 0.117188 6.01562C0.515625 7.51562 1.64063 8.75 3.14063 9.3125C3.73438 9.53906 3.875 9.5625 4.72656 9.5625C5.5 9.57031 5.76563 9.53906 6.24219 9.39062L6.82031 9.20312L7.95313 10.3359L9.08594 11.4688L8.84375 11.7734C7.76563 13.1328 6.82031 15.2969 6.39844 17.3438C6.23438 18.1328 6.21094 18.4531 6.21094 20C6.21094 21.5469 6.23438 21.8672 6.39844 22.6562C6.83594 24.7969 7.57813 26.4375 9.01563 28.4766C9.11719 28.625 9.05469 28.7109 8.0625 29.75L6.99219 30.8672L6.375 30.6641C4.07031 29.8906 1.58594 30.875 0.507813 33C0.125 33.7656 0 34.2812 0 35.1953C0 36.0938 0.125 36.6562 0.476563 37.3672C1.09375 38.5938 2.25781 39.5391 3.57031 39.8828C4.14844 40.0312 5.38281 40.0312 5.97656 39.8828C7.50781 39.4922 8.74219 38.375 9.3125 36.8594C9.53906 36.2656 9.5625 36.125 9.5625 35.2734C9.57031 34.5 9.53906 34.2344 9.39063 33.7578L9.20313 33.1797L10.3359 32.0469L11.4688 30.9219L11.8828 31.2266C13.4375 32.3672 15.3203 33.1875 17.3438 33.6016C18.1328 33.7656 18.4531 33.7891 20 33.7891C21.5234 33.7891 21.875 33.7656 22.6406 33.6094C24.7734 33.1797 26.6328 32.3438 28.4922 30.9766C28.6563 30.8516 28.6875 30.875 29.7656 31.9297L30.875 33.0078L30.6641 33.6328C29.8906 35.9219 30.8906 38.4297 33 39.4844C33.75 39.8672 34.3438 40 35.2344 40C36.0938 40 36.6719 39.8672 37.3672 39.5234C38.5938 38.9062 39.5391 37.7422 39.8828 36.4297C40.0313 35.8594 40.0313 34.5469 39.8828 33.9844C39.4844 32.4844 38.3594 31.25 36.8594 30.6875C36.2656 30.4609 36.125 30.4375 35.2734 30.4375C34.5 30.4297 34.2344 30.4609 33.7578 30.6094L33.1797 30.7891L31.4141 29.0312C30.2813 27.8984 29.5469 27.2266 29.3594 27.1562C28.7578 26.9062 28.0859 27.0312 27.5625 27.4922C27.4141 27.625 27.2656 27.7109 27.2344 27.6797C27.2109 27.6562 27.1875 27.5 27.1875 27.3516C27.1875 26.8984 26.8906 25.9609 26.5391 25.2734C26.2969 24.7969 26.0469 24.4766 25.4844 23.9141L24.7578 23.1797L24.9844 22.8594C25.8828 21.6094 26.2578 19.9297 25.9844 18.3828C25.5859 16.0859 23.9922 14.2891 21.7188 13.5781C21.2188 13.4219 20.9688 13.3984 20 13.3984C19.0313 13.3984 18.7813 13.4219 18.2813 13.5781C16.4844 14.1406 15.0156 15.4688 14.3438 17.1406C13.6094 18.9922 13.875 21.2656 15.0156 22.8594L15.2422 23.1797L14.5156 23.9141C13.9531 24.4766 13.7031 24.7969 13.4609 25.2734C13.1016 25.9609 12.8125 26.9062 12.8125 27.3594C12.8125 27.5156 12.7813 27.6641 12.75 27.6875C12.5938 27.7812 11.4297 26.3828 10.8672 25.4375C9.85938 23.7188 9.375 21.9609 9.375 20C9.375 17.1328 10.4531 14.5469 12.5 12.5C13.3828 11.6172 14.2109 11.0156 15.2734 10.4844C18.875 8.6875 23.1328 9.07812 26.3594 11.4922C28.1406 12.8359 29.4063 14.6016 30.1094 16.7266C30.4922 17.875 30.625 18.7969 30.625 20.2109C30.625 21.1172 30.6563 21.4844 30.7422 21.7031C31.2422 22.8828 32.875 23.0078 33.5547 21.9141L33.7891 21.5312V19.8906C33.7891 18.4688 33.7578 18.1172 33.6016 17.3438C33.1719 15.2188 32.4297 13.5703 30.9844 11.5234C30.8828 11.375 30.9453 11.2891 31.9375 10.25L33.0078 9.13281L33.625 9.33594C36.2656 10.2188 39.0234 8.80469 39.8359 6.14062C40.0391 5.49219 40.0625 4.24219 39.8828 3.57031C39.4531 1.92188 38.0781 0.546875 36.4375 0.117188C35.8594 -0.03125 34.5469 -0.03125 33.9844 0.117188C31.7656 0.703125 30.2578 2.8125 30.4141 5.10938C30.4375 5.46094 30.5313 5.98438 30.625 6.28125L30.7969 6.82031L29.6641 7.95312L28.5391 9.07812L28.0469 8.71875C26.9922 7.9375 25.3125 7.10938 24.0078 6.72656C22.5547 6.29688 21.9297 6.21875 20.0391 6.21094C18.4453 6.21094 18.1406 6.23438 17.3438 6.39844C15.2109 6.83594 13.5547 7.57812 11.5234 9.01562C11.375 9.11719 11.2891 9.05469 10.25 8.0625L9.13281 6.99219L9.35156 6.36719C9.54688 5.80469 9.57031 5.64062 9.5625 4.76562C9.5625 3.86719 9.53906 3.74219 9.3125 3.14062C8.75 1.63281 7.52344 0.515625 6.01563 0.117188C5.46875 -0.03125 4.07813 -0.0234375 3.53906 0.117188ZM5.67969 3.45312C6.07031 3.71094 6.40625 4.34375 6.40625 4.79688C6.39844 5.64062 5.63281 6.40625 4.78125 6.40625C4.35156 6.40625 3.73438 6.07031 3.46875 5.69531C3.03906 5.07812 3.14063 4.11719 3.6875 3.625C4.05469 3.28906 4.3125 3.20312 4.85156 3.22656C5.25781 3.24219 5.4375 3.28906 5.67969 3.45312ZM35.9219 3.35156C36.5391 3.67188 36.8281 4.17969 36.7813 4.89062C36.7422 5.51562 36.4688 5.92969 35.9141 6.21094C35.2266 6.54688 34.5156 6.41406 34.0078 5.83594C33.5234 5.28125 33.4766 4.57812 33.875 3.92969C34.2891 3.25781 35.2266 2.99219 35.9219 3.35156ZM21.1875 16.8125C22.3516 17.3516 23.0625 18.6797 22.8203 19.8672C22.6953 20.4766 22.4922 20.8672 22.0625 21.3281C20.7344 22.75 18.3281 22.3984 17.4375 20.6484C16.6641 19.1328 17.4297 17.2969 19.0859 16.7031C19.6719 16.4922 20.5938 16.5391 21.1875 16.8125ZM22.375 25.625C22.9688 25.8516 23.4609 26.3125 23.7656 26.9375C24.0234 27.4531 24.0234 27.4531 24.0234 28.6641V29.8828L23.3906 30.0938C22.3359 30.4453 21.6641 30.5547 20.3828 30.6016C18.9531 30.6562 18.0156 30.5312 16.7578 30.125L15.9766 29.875V28.6641C15.9766 27.4609 15.9766 27.4609 16.2344 26.9375C16.5391 26.3203 17.0234 25.8516 17.6094 25.6328C17.9688 25.4922 18.2109 25.4766 19.9766 25.4766C21.7734 25.4688 21.9844 25.4844 22.375 25.625ZM5.375 33.7188C5.96875 33.9688 6.39844 34.5859 6.40625 35.2031C6.40625 35.6484 6.07813 36.2656 5.69531 36.5312C5.28125 36.8125 4.53906 36.8828 4.13281 36.6797C3.46875 36.3438 3.17188 35.8359 3.21875 35.1094C3.25781 34.4688 3.51563 34.0781 4.07031 33.7969C4.53906 33.5625 4.95313 33.5391 5.375 33.7188ZM35.9297 33.7969C36.4844 34.0781 36.7422 34.4688 36.7813 35.1172C36.8516 36.1406 36.1328 36.8438 35.1094 36.7812C34.4844 36.7422 34.0703 36.4688 33.7891 35.9141C33.4766 35.2734 33.5625 34.625 34.0469 34.1094C34.5469 33.5781 35.25 33.4609 35.9297 33.7969Z" fill="#A1B5E5"/>
</g>
<defs>
<clipPath id="clip0_30_66">
<rect width="40" height="40" fill="white"/>
</clipPath>
</defs>
</svg>
