<svg width="33" height="33" viewBox="0 0 33 33" fill="none" xmlns="http://www.w3.org/2000/svg">
<g clip-path="url(#clip0_30_62)">
<path d="M17.8875 0.539843C14.8302 0.883593 11.7729 2.44766 9.68686 4.725C8.96054 5.52422 8.72407 5.98828 8.80008 6.48672C8.88453 6.99375 9.14635 7.37187 9.56018 7.56953C10.3118 7.93906 10.7088 7.77578 11.832 6.60703C13.5549 4.82812 15.5734 3.77109 17.9298 3.41016C22.9633 2.63672 27.8618 5.71328 29.4918 10.6719C29.9225 11.9953 30.0745 13.0523 30.0238 14.4531C29.9647 15.9828 29.7198 17.1172 29.1877 18.3375L28.9343 18.9133L28.4276 18.2773C27.7773 17.4523 26.8145 16.55 25.9531 15.957C25.2859 15.5016 23.6136 14.625 23.4025 14.625C23.242 14.625 23.2589 14.582 23.6052 14.1352C24.0275 13.5594 24.4497 12.6227 24.6018 11.918C25.3365 8.36875 22.5664 5.06875 19.0277 5.28359C17.5581 5.37812 16.5616 5.83359 15.5228 6.89062C14.3826 8.04219 13.9181 9.16797 13.9181 10.7578C13.9181 12.0383 14.2644 13.1211 15.0076 14.1094C15.3539 14.582 15.3539 14.582 15.168 14.6594C13.8928 15.1578 12.533 16 11.5871 16.8766C10.675 17.7102 10.6074 17.8305 10.6412 18.5266C10.675 19.0852 10.6919 19.1281 11.0213 19.4375C11.6547 20.0477 12.2965 20.0133 13.082 19.3258C14.7204 17.8906 15.9788 17.2289 17.7186 16.8938C18.6392 16.7047 20.227 16.7305 21.1475 16.9367C23.5123 17.4609 25.497 18.8359 26.823 20.8469L27.2114 21.4398L26.6118 22.0156C25.6406 22.9609 24.3737 23.7602 23.0562 24.25C22.2201 24.5594 21.8401 25.1437 21.9667 25.9344C22.0681 26.5359 22.7015 27.0773 23.3096 27.0859C23.8839 27.0859 25.7081 26.2352 27.0088 25.3586C28.0982 24.6195 29.838 22.8492 30.5475 21.7578C31.5525 20.2023 32.2112 18.6039 32.5913 16.7734C32.87 15.4414 32.8784 12.8461 32.5997 11.4711C31.1978 4.43281 24.8805 -0.250782 17.8875 0.539843ZM20.455 8.38594C20.9871 8.65234 21.46 9.15078 21.7134 9.71797C21.9752 10.2852 21.9667 11.2391 21.6965 11.8578C21.4431 12.425 20.7421 13.0953 20.2016 13.2844C18.5378 13.8602 16.8234 12.6914 16.722 10.9125C16.6798 10.1648 16.8741 9.58047 17.3723 9.02188C18.1831 8.10234 19.3908 7.85312 20.455 8.38594Z" fill="#A1B5E5"/>
<path d="M4.75464 7.22585C4.05366 7.41491 1.36797 8.48913 1.16527 8.66101C1.03859 8.77272 0.869676 9.01335 0.802111 9.18522C0.481179 10.0102 0.34605 13.5423 0.565635 15.2266C1.24973 20.4173 3.62294 24.8344 7.5248 28.1688C9.90645 30.2055 13.0567 31.7438 16.0717 32.3454C17.0936 32.543 17.4652 32.5087 17.8453 32.1735C18.1747 31.8899 20.1678 29.4063 20.3536 29.0368C20.5141 28.736 20.5479 28.5469 20.5479 27.8594C20.5479 26.6477 20.4719 26.5274 18.2676 24.379C16.0971 22.2735 15.9028 22.1446 14.7627 22.1532C14.2306 22.1618 13.8168 22.2305 13.1833 22.4196L12.3134 22.6774L11.7898 22.368C11.0804 21.9469 10.0331 20.9243 9.56018 20.1938C9.07034 19.4462 8.64806 18.4751 8.46226 17.6587L8.31868 17.0399L8.92676 16.0946C9.66997 14.9602 9.77132 14.6852 9.77977 13.8688C9.77977 13.0954 9.7122 12.8977 8.55516 10.3454C7.55013 8.13679 7.3221 7.81022 6.51133 7.4321C6.01304 7.20007 5.20226 7.10554 4.75464 7.22585ZM6.15661 11.8751C6.61267 12.8891 6.99272 13.7657 6.99272 13.8173C6.99272 13.8688 6.68868 14.3587 6.31708 14.9087C5.56542 16.0258 5.43874 16.3954 5.51475 17.1001C5.70055 18.7329 6.35086 20.4946 7.26298 21.8696C8.33557 23.4766 10.7932 25.4102 11.9925 25.5907C12.1699 25.6165 12.7442 25.5048 13.5296 25.2899L14.788 24.9462L16.2913 26.3727C17.575 27.593 17.7862 27.8251 17.6933 27.9368C17.6426 28.0141 17.3301 28.3923 17.0092 28.7876C16.3251 29.6298 16.4771 29.6126 14.8049 29.054C9.83889 27.3954 5.88635 23.4423 4.16345 18.3977C3.47936 16.404 3.24288 14.9258 3.25133 12.7344C3.25133 11.8579 3.29356 11.0501 3.33579 10.9383C3.39491 10.7837 3.63138 10.6462 4.29858 10.3712C4.77998 10.1649 5.21071 10.0102 5.25293 10.0188C5.28672 10.0274 5.70055 10.861 6.15661 11.8751Z" fill="#A1B5E5"/>
</g>
<defs>
<clipPath id="clip0_30_62">
<rect width="33" height="33" fill="white"/>
</clipPath>
</defs>
</svg>
