<svg width="40" height="31" viewBox="0 0 40 31" fill="none" xmlns="http://www.w3.org/2000/svg">
<g clip-path="url(#clip0_30_58)">
<path d="M18.2093 0.146385C11.4781 0.717705 5.36212 4.8062 2.36843 10.7515C0.45834 14.5454 -0.10183 18.8213 0.770565 23.008C1.18381 25.0434 2.20313 27.5696 3.02043 28.623C3.44285 29.1676 4.30606 29.8281 4.98561 30.1138C6.09677 30.5958 5.31621 30.5691 20.0459 30.5691H33.7288L34.4818 30.3191C35.3909 30.0156 36.3827 29.3639 36.9153 28.7123C37.402 28.1142 38.1642 26.5698 38.6234 25.213C40.1202 20.8567 39.9365 16.0719 38.1183 11.7781C37.9438 11.3585 37.6959 10.8854 37.5765 10.7247C37.1265 10.1623 36.199 9.87665 35.4276 10.082C34.8216 10.2337 34.1971 10.8943 34.0594 11.5013C33.94 12.0637 33.9583 12.1798 34.4726 13.4385C36.0888 17.4466 35.9694 21.91 34.142 25.57C33.8481 26.1681 33.7288 26.3199 33.389 26.5074L32.9941 26.7305H20H7.0059L6.62021 26.5163C6.19779 26.2842 5.94984 25.9003 5.49069 24.7755C4.21423 21.6422 4.04894 18.0269 5.02235 14.831C6.86815 8.82328 12.5617 4.39556 18.9164 4.02956C21.4877 3.87781 24.0498 4.29737 26.1986 5.21683C26.5567 5.36859 26.8782 5.44 27.2547 5.44C27.9158 5.44 28.1454 5.35966 28.5862 4.97581C29.4678 4.23488 29.5137 2.98512 28.6964 2.19063C27.8975 1.42292 24.7385 0.458826 22.0938 0.182093C21.2673 0.0928249 19.0725 0.0749702 18.2093 0.146385Z" fill="#A1B5E5"/>
<path d="M33.1319 3.85994C32.8839 3.93136 31.4514 5.27038 26.9241 9.65346L21.0377 15.3666L19.9816 15.3756C18.9715 15.3934 18.9072 15.4023 18.2368 15.7326C17.392 16.1344 16.7951 16.7324 16.3819 17.5805C16.1247 18.1161 16.0972 18.2322 16.0972 19.1427C16.0972 20.0622 16.1155 20.1604 16.391 20.7317C17.8603 23.7489 22.1397 23.7489 23.609 20.7317C23.8845 20.1604 23.9028 20.0622 23.912 19.1159L23.9212 18.1072L29.7984 12.3762C35.6113 6.71653 35.6848 6.63619 35.795 6.172C36.1623 4.62765 34.7389 3.38682 33.1319 3.85994Z" fill="#A1B5E5"/>
</g>
<defs>
<clipPath id="clip0_30_58">
<rect width="40" height="30.6977" fill="white"/>
</clipPath>
</defs>
</svg>
