<svg width="14" height="14" viewBox="0 0 14 14" fill="none" xmlns="http://www.w3.org/2000/svg">
<path d="M0.970703 2.3625C0.866797 2.40898 0.806641 2.47461 0.751953 2.60586C0.716406 2.69336 0.710938 3.12539 0.710938 6.28359V9.86289L0.773828 9.98047C0.817578 10.0625 0.875 10.1199 0.957031 10.1637L1.07461 10.2266H3.38242H5.6875V10.5V10.7734H5.28281C4.91641 10.7734 4.86719 10.7789 4.75781 10.8336C4.59102 10.9211 4.53086 11.0141 4.51719 11.2027C4.50898 11.3367 4.51719 11.3777 4.57187 11.457C4.60742 11.509 4.67852 11.5801 4.72773 11.6129L4.8207 11.6758H7H9.1793L9.27227 11.6129C9.32148 11.5801 9.39258 11.509 9.42812 11.457C9.48281 11.3777 9.49102 11.3367 9.48281 11.2027C9.46914 11.0141 9.40898 10.9211 9.24219 10.8336C9.13281 10.7789 9.08359 10.7734 8.71719 10.7734H8.3125V10.5V10.2266H10.6176H12.9254L13.043 10.1637C13.125 10.1199 13.1824 10.0625 13.2262 9.98047L13.2891 9.86289V6.27812V2.69062L13.2289 2.57031C13.1934 2.50469 13.1305 2.42539 13.0895 2.39531L13.0129 2.33789L7.03281 2.33242C2.11094 2.32695 1.03906 2.33242 0.970703 2.3625ZM12.3867 6.27539V9.32422H7H1.61328V6.27539V3.22656H7H12.3867V6.27539ZM7.4375 10.5V10.7734H7H6.5625V10.5V10.2266H7H7.4375V10.5Z" fill="#3259B3"/>
</svg>
