<svg width="12" height="12" viewBox="0 0 12 12" fill="none" xmlns="http://www.w3.org/2000/svg">
<g clip-path="url(#clip0_101_1472)">
<path d="M5.25001 0.0351324C4.16719 0.175757 3.24376 0.555445 2.34376 1.2281C2.05782 1.44138 1.44141 2.05779 1.22813 2.34373C0.600006 3.18513 0.210944 4.09216 0.0539123 5.08591C-0.00702514 5.47029 -0.00702514 6.52966 0.0539123 6.91404C0.2461 8.13044 0.801568 9.2531 1.64766 10.139C2.5711 11.1047 3.6961 11.7023 5.02501 11.9343C5.43282 12.0047 6.29766 12.0211 6.72891 11.9648C9.51329 11.6156 11.6742 9.42419 11.9766 6.63982C12.0141 6.29997 11.9953 5.3906 11.9438 5.07654C11.5125 2.41873 9.39375 0.363257 6.75001 0.0351324C6.39844 -0.00705528 5.57579 -0.00705528 5.25001 0.0351324ZM5.64844 1.8656V2.93669L5.4211 2.92029C5.03438 2.89216 4.15079 2.75154 4.1086 2.70935C4.09454 2.69529 4.32422 2.22888 4.46016 1.9992C4.69688 1.6031 5.00626 1.2281 5.25938 1.03357C5.35782 0.956226 5.61329 0.799195 5.64376 0.796851C5.6461 0.796851 5.64844 1.27732 5.64844 1.8656ZM6.59297 0.930445C6.9 1.12732 7.24922 1.52107 7.53282 1.99216C7.6711 2.22185 7.90782 2.69529 7.89141 2.70935C7.84922 2.75388 6.98438 2.89216 6.58125 2.92029L6.35157 2.93669V1.86794C6.35157 0.860132 6.35391 0.799195 6.39375 0.813257C6.41485 0.820289 6.50626 0.874195 6.59297 0.930445ZM4.21876 1.05232C4.21876 1.06638 4.20704 1.08279 4.19532 1.08982C4.15547 1.1156 3.86016 1.56794 3.73594 1.79294C3.67266 1.90779 3.56954 2.11404 3.50626 2.24998C3.44297 2.38591 3.38907 2.49841 3.38672 2.5031C3.37735 2.51482 2.91563 2.32732 2.66954 2.21248L2.44219 2.10466L2.55704 2.00154C2.9461 1.65466 3.56485 1.27966 4.06641 1.08279C4.20704 1.02654 4.21876 1.02419 4.21876 1.05232ZM8.1586 1.18357C8.60157 1.38279 9.10079 1.69919 9.46641 2.01794L9.5625 2.10232L9.33047 2.21013C9.08438 2.32732 8.62266 2.51482 8.61329 2.5031C8.61094 2.49841 8.55704 2.38591 8.49375 2.24998C8.43047 2.11404 8.32735 1.90779 8.26407 1.79294C8.13985 1.56794 7.84454 1.1156 7.80469 1.08982C7.79297 1.08279 7.78125 1.06404 7.78125 1.05232C7.78125 1.01951 7.84219 1.0406 8.1586 1.18357ZM2.54532 2.96013C2.67188 3.01638 2.85938 3.09138 2.96016 3.12888C3.06329 3.16638 3.13829 3.20623 3.1336 3.22029C3.10547 3.29294 2.94844 3.93279 2.90626 4.14841C2.84297 4.47185 2.77266 5.02966 2.75157 5.37185L2.73516 5.64841H1.73204C1.11329 5.64841 0.726568 5.63904 0.726568 5.62732C0.726568 5.52654 0.810943 5.00154 0.860162 4.79294C1.02657 4.08279 1.39688 3.30701 1.82344 2.77263L1.92188 2.65076L2.11641 2.75388C2.22422 2.81248 2.41641 2.90388 2.54532 2.96013ZM10.4109 3.10544C10.8445 3.75935 11.1352 4.53982 11.2383 5.32732C11.257 5.47966 11.2734 5.61326 11.2734 5.62732C11.2734 5.63904 10.8867 5.64841 10.268 5.64841H9.26485L9.24844 5.37185C9.22735 5.02966 9.15704 4.47185 9.09375 4.14841C9.04922 3.93044 8.89454 3.29294 8.86641 3.22029C8.86172 3.20388 8.89688 3.18044 8.9461 3.16404C9.11719 3.11013 9.69141 2.85701 9.87891 2.75623L10.0664 2.6531L10.1461 2.73748C10.1883 2.78669 10.3078 2.95076 10.4109 3.10544ZM4.44141 3.52732C4.77188 3.58591 5.38126 3.65623 5.55469 3.65623H5.64844V4.65232V5.64841H4.5586H3.46876V5.55466C3.46876 5.37654 3.54376 4.74607 3.60001 4.42966C3.65626 4.12732 3.73594 3.78513 3.81094 3.52497L3.8461 3.40544L3.97969 3.43591C4.05235 3.45466 4.26094 3.49451 4.44141 3.52732ZM8.26875 3.83201C8.40469 4.37576 8.53125 5.19373 8.53125 5.54763V5.64841H7.44141H6.35157V4.65232V3.65623H6.44532C6.72188 3.65623 7.62422 3.53201 8.01563 3.43826C8.10469 3.41716 8.14922 3.41482 8.16094 3.43122C8.16797 3.44529 8.21719 3.62576 8.26875 3.83201ZM2.75157 6.62576C2.77266 6.97029 2.84297 7.5281 2.90626 7.85154C2.94844 8.06482 3.10547 8.70701 3.1336 8.77966C3.13829 8.79372 3.02344 8.84763 2.87344 8.90388C2.72344 8.96013 2.44688 9.08201 2.25938 9.17576L1.91719 9.34451L1.8211 9.22497C1.65001 9.00935 1.40626 8.61794 1.26563 8.33201C0.975006 7.73669 0.817975 7.18591 0.738287 6.48513L0.724225 6.35154H1.72969H2.73516L2.75157 6.62576ZM5.64844 7.34529V8.33669L5.39766 8.3531C4.97579 8.38122 4.41094 8.46326 4.02657 8.55232L3.8461 8.59451L3.81094 8.47497C3.73594 8.21482 3.65626 7.87263 3.60001 7.57029C3.54376 7.25388 3.46876 6.62341 3.46876 6.44529V6.35154H4.5586H5.64844V7.34529ZM8.53125 6.44997C8.53125 6.60935 8.46563 7.17888 8.41407 7.49529C8.33907 7.93357 8.16797 8.61091 8.1375 8.59216C8.12813 8.58747 7.98516 8.55466 7.81641 8.51951C7.45547 8.44451 6.95157 8.37654 6.60469 8.3531L6.35157 8.33669V7.34529V6.35154H7.44141H8.53125V6.44997ZM11.2734 6.37263C11.2734 6.47341 11.1891 6.99841 11.1398 7.20701C10.9734 7.91482 10.6008 8.69294 10.1789 9.22497L10.0828 9.34451L9.72188 9.16638C9.52266 9.06794 9.24844 8.94607 9.11016 8.89685C8.96954 8.84529 8.86172 8.79372 8.86641 8.77966C8.89454 8.70701 9.05157 8.06482 9.09375 7.85154C9.15704 7.5281 9.22735 6.97029 9.24844 6.62576L9.26485 6.35154H10.268C10.8867 6.35154 11.2734 6.36091 11.2734 6.37263ZM5.64844 10.139V11.2054L5.50782 11.1304C5.17969 10.957 4.80001 10.5539 4.49766 10.064C4.37813 9.86716 4.09219 9.30466 4.10626 9.2906C4.15782 9.24138 5.17266 9.08435 5.52657 9.07497L5.64844 9.07029V10.139ZM7.125 9.1406C7.42032 9.18044 7.87032 9.26951 7.89141 9.2906C7.90782 9.30466 7.6711 9.7781 7.53282 10.0078C7.34532 10.3195 7.16954 10.5515 6.94688 10.7742C6.77813 10.9429 6.5086 11.1445 6.39375 11.1867C6.35391 11.2008 6.35157 11.1398 6.35157 10.132V9.06326L6.58125 9.07966C6.70547 9.08904 6.95157 9.11716 7.125 9.1406ZM3.50391 9.74529C3.70547 10.1789 4.02422 10.7226 4.17891 10.8914C4.20469 10.9218 4.2211 10.95 4.21641 10.957C4.18126 10.9898 3.53672 10.6875 3.22266 10.4883C2.98126 10.3359 2.72813 10.1484 2.55704 9.99841L2.44219 9.89529L2.64844 9.79685C2.83594 9.71013 3.34688 9.49451 3.37501 9.49216C3.38204 9.49216 3.43829 9.60466 3.50391 9.74529ZM8.86407 9.58591C8.99297 9.63747 9.20391 9.72888 9.33047 9.78747L9.56016 9.89529L9.40782 10.0289C9.1875 10.2187 8.88516 10.4297 8.60157 10.5914C8.33204 10.7461 7.80938 10.9828 7.78829 10.9593C7.77891 10.9523 7.79532 10.9218 7.8211 10.8914C7.94297 10.7601 8.22657 10.2867 8.41172 9.90935C8.52188 9.68201 8.61563 9.49451 8.62032 9.49216C8.62266 9.49216 8.73282 9.53435 8.86407 9.58591Z" fill="#3259B3"/>
</g>
<defs>
<clipPath id="clip0_101_1472">
<rect width="12" height="12" fill="white"/>
</clipPath>
</defs>
</svg>
