<svg width="20" height="20" viewBox="0 0 20 20" fill="none" xmlns="http://www.w3.org/2000/svg">
<g clip-path="url(#clip0_3_127)">
<path d="M15.8333 3.33334H14.1666C13.9456 3.33334 13.7337 3.42114 13.5774 3.57742C13.4211 3.7337 13.3333 3.94566 13.3333 4.16668C13.3333 4.38769 13.4211 4.59965 13.5774 4.75593C13.7337 4.91221 13.9456 5.00001 14.1666 5.00001H15V15H14.1666C13.9456 15 13.7337 15.0878 13.5774 15.2441C13.4211 15.4004 13.3333 15.6123 13.3333 15.8333C13.3333 16.0544 13.4211 16.2663 13.5774 16.4226C13.7337 16.5789 13.9456 16.6667 14.1666 16.6667H15.8333C16.0543 16.6667 16.2663 16.5789 16.4226 16.4226C16.5788 16.2663 16.6666 16.0544 16.6666 15.8333V4.16668C16.6666 3.94566 16.5788 3.7337 16.4226 3.57742C16.2663 3.42114 16.0543 3.33334 15.8333 3.33334Z" fill="#1E1F33"/>
<path d="M9.83333 6.16668C9.70073 5.98987 9.50331 5.87298 9.28452 5.84172C9.06573 5.81047 8.84348 5.86741 8.66667 6.00001C8.48986 6.13262 8.37297 6.33004 8.34171 6.54883C8.31045 6.76762 8.36739 6.98987 8.5 7.16668L10 9.16668H3.33333C3.11232 9.16668 2.90036 9.25448 2.74408 9.41076C2.5878 9.56704 2.5 9.779 2.5 10C2.5 10.221 2.5878 10.433 2.74408 10.5893C2.90036 10.7455 3.11232 10.8333 3.33333 10.8333H10.075L8.64167 12.8667C8.57772 12.9562 8.53215 13.0576 8.50758 13.1649C8.48302 13.2721 8.47994 13.3832 8.49854 13.4917C8.51713 13.6002 8.55703 13.7039 8.61592 13.7968C8.67482 13.8898 8.75154 13.9702 8.84167 14.0333C8.98333 14.1322 9.15224 14.1847 9.325 14.1833C9.45721 14.1827 9.58737 14.1507 9.70474 14.0898C9.82211 14.029 9.92332 13.941 10 13.8333L12.35 10.5C12.4543 10.3573 12.5105 10.1851 12.5105 10.0083C12.5105 9.83158 12.4543 9.6594 12.35 9.51668L9.83333 6.16668Z" fill="#1E1F33"/>
</g>
<defs>
<clipPath id="clip0_3_127">
<rect width="20" height="20" fill="white"/>
</clipPath>
</defs>
</svg>
