<svg width="93" height="87" viewBox="0 0 93 87" fill="none" xmlns="http://www.w3.org/2000/svg">
<g clip-path="url(#clip0_63_4295)">
<path fill-rule="evenodd" clip-rule="evenodd" d="M45.3395 3.83231C67.859 3.83231 86.115 21.9446 86.115 44.2869C86.115 48.1855 85.5585 51.9515 84.5232 55.5188L14.3989 70.6326C8.27088 63.5533 4.56401 54.3481 4.56401 44.2869C4.56401 21.9446 22.82 3.83231 45.3395 3.83231Z" fill="#E0E6F6"/>
<path fill-rule="evenodd" clip-rule="evenodd" d="M45.3395 0C59.6549 0 72.3952 6.68721 80.5603 17.0797L79.4917 18.0682C71.4935 8.10086 59.154 1.70079 45.3061 1.70079C21.1837 1.70079 1.6308 21.0998 1.6308 45.0324C1.6308 48.2296 1.98145 51.3441 2.64379 54.3426L2.03711 55.066C1.16883 51.6147 0.701302 48.0032 0.701302 44.2869C0.701302 19.8297 20.6883 0 45.3395 0Z" fill="#D90429"/>
<path fill-rule="evenodd" clip-rule="evenodd" d="M5.76067 30.2774H13.5863V53.5087H5.76067V30.2774Z" fill="#3259B3"/>
<path fill-rule="evenodd" clip-rule="evenodd" d="M13.4193 34.673H16.9926V53.8124H13.4193V34.673Z" fill="#3259B3"/>
<path fill-rule="evenodd" clip-rule="evenodd" d="M16.6809 42.1333H24.5065V53.7517H16.6809V42.1333Z" fill="#3259B3"/>
<path fill-rule="evenodd" clip-rule="evenodd" d="M24.384 32.1439H30.1503V51.2833H24.384V32.1439Z" fill="#3259B3" stroke="#3259B3" stroke-width="0.216" stroke-miterlimit="22.9256"/>
<path fill-rule="evenodd" clip-rule="evenodd" d="M27.846 34.6122H33.6067V53.7517H27.846V34.6122Z" fill="#3259B3"/>
<path fill-rule="evenodd" clip-rule="evenodd" d="M30.0891 39.9686H37.9147V53.9339H30.0891V39.9686Z" fill="#3259B3"/>
<path fill-rule="evenodd" clip-rule="evenodd" d="M37.308 42.1333H40.2802V51.703H37.308V42.1333Z" fill="#3259B3"/>
<path fill-rule="evenodd" clip-rule="evenodd" d="M40.0965 40.0294H43.0687V49.5991H40.0965V40.0294Z" fill="#3259B3"/>
<path fill-rule="evenodd" clip-rule="evenodd" d="M42.9518 26.8482H53.8108V50.0795H42.9518V26.8482Z" fill="#3259B3"/>
<path fill-rule="evenodd" clip-rule="evenodd" d="M53.2931 23.2368H62.9109V46.4681H53.2931V23.2368Z" fill="#3259B3"/>
<path fill-rule="evenodd" clip-rule="evenodd" d="M62.4211 33.3477H65.3933V42.9174H62.4211V33.3477Z" fill="#3259B3"/>
<path fill-rule="evenodd" clip-rule="evenodd" d="M64.0297 28.9521H75.7069V46.3466H64.0297V28.9521Z" fill="#3259B3"/>
<path fill-rule="evenodd" clip-rule="evenodd" d="M73.2523 36.6002H84.9295V44.4802H73.2523V36.6002Z" fill="#3259B3"/>
<path fill-rule="evenodd" clip-rule="evenodd" d="M66.4286 21.7293H73.3135V29.4933H66.4286V21.7293Z" fill="#3259B3"/>
<path fill-rule="evenodd" clip-rule="evenodd" d="M68.2152 17.8804H71.5213V22.276H68.2152V17.8804Z" fill="#3259B3"/>
<path fill-rule="evenodd" clip-rule="evenodd" d="M78.679 22.1545H84.4453V41.2939H78.679V22.1545Z" fill="#3259B3"/>
<path fill-rule="evenodd" clip-rule="evenodd" d="M6.61224 31.1499H12.7403V31.4536H6.61224V31.1499Z" fill="white"/>
<path fill-rule="evenodd" clip-rule="evenodd" d="M6.61224 33.0605H12.7403V33.3643H6.61224V33.0605Z" fill="white"/>
<path fill-rule="evenodd" clip-rule="evenodd" d="M6.61224 34.9712H12.7403V35.2749H6.61224V34.9712Z" fill="white"/>
<path fill-rule="evenodd" clip-rule="evenodd" d="M15.0946 35.2694H16.102V36.2633H15.0946V35.2694Z" fill="white"/>
<path fill-rule="evenodd" clip-rule="evenodd" d="M14.1039 41.189H15.1113V42.1885H14.1039V41.189Z" fill="white"/>
<path fill-rule="evenodd" clip-rule="evenodd" d="M14.9777 45.0048H15.9852V46.0043H14.9777V45.0048Z" fill="white"/>
<path fill-rule="evenodd" clip-rule="evenodd" d="M6.4731 41.7136H7.48052V42.7076H6.4731V41.7136Z" fill="white"/>
<path fill-rule="evenodd" clip-rule="evenodd" d="M10.5974 41.8793H13.0853V42.183H10.5974V41.8793Z" fill="white"/>
<path fill-rule="evenodd" clip-rule="evenodd" d="M10.5974 42.6634H13.0853V42.9671H10.5974V42.6634Z" fill="white"/>
<path fill-rule="evenodd" clip-rule="evenodd" d="M10.5974 44.944H13.0853V45.2422H10.5974V44.944Z" fill="white"/>
<path fill-rule="evenodd" clip-rule="evenodd" d="M10.5974 45.7281H13.0853V46.0263H10.5974V45.7281Z" fill="white"/>
<path fill-rule="evenodd" clip-rule="evenodd" d="M6.61224 36.9978H12.7403V37.296H6.61224V36.9978Z" fill="white" stroke="#3259B3" stroke-width="0.216" stroke-miterlimit="22.9256"/>
<path fill-rule="evenodd" clip-rule="evenodd" d="M18.3284 43.6187H19.3358V45.4686H18.3284V43.6187Z" fill="white"/>
<path fill-rule="evenodd" clip-rule="evenodd" d="M19.9759 43.6187H20.9777V45.4686H19.9759V43.6187Z" fill="white"/>
<path fill-rule="evenodd" clip-rule="evenodd" d="M21.6178 43.6187H22.6197V45.4686H21.6178V43.6187Z" fill="white"/>
<path fill-rule="evenodd" clip-rule="evenodd" d="M21.6178 46.7166H22.6197V48.5665H21.6178V46.7166Z" fill="white"/>
<path fill-rule="evenodd" clip-rule="evenodd" d="M25.3024 33.182H26.3043V34.1815H25.3024V33.182Z" fill="white"/>
<path fill-rule="evenodd" clip-rule="evenodd" d="M25.3024 36.7051H26.3043V37.7046H25.3024V36.7051Z" fill="white"/>
<path fill-rule="evenodd" clip-rule="evenodd" d="M26.4935 43.3923H27.5009V44.3863H26.4935V43.3923Z" fill="white"/>
<path fill-rule="evenodd" clip-rule="evenodd" d="M31.8367 36.1143H32.8442V37.1137H31.8367V36.1143Z" fill="white"/>
<path fill-rule="evenodd" clip-rule="evenodd" d="M31.7032 43.5911H32.7106V44.5851H31.7032V43.5911Z" fill="white"/>
<path fill-rule="evenodd" clip-rule="evenodd" d="M28.4527 39.0465H29.4546V40.0404H28.4527V39.0465Z" fill="white"/>
<path fill-rule="evenodd" clip-rule="evenodd" d="M35.5547 42.9947H36.5566V43.9942H35.5547V42.9947Z" fill="white"/>
<path fill-rule="evenodd" clip-rule="evenodd" d="M43.9091 31.9672H52.5473V32.2654H43.9091V31.9672Z" fill="white"/>
<path fill-rule="evenodd" clip-rule="evenodd" d="M43.9091 33.8778H52.5473V34.176H43.9091V33.8778Z" fill="white"/>
<path fill-rule="evenodd" clip-rule="evenodd" d="M43.9091 35.7885H52.5473V36.0866H43.9091V35.7885Z" fill="white"/>
<path fill-rule="evenodd" clip-rule="evenodd" d="M43.9091 28.6429H52.5473V28.9466H43.9091V28.6429Z" fill="white"/>
<path fill-rule="evenodd" clip-rule="evenodd" d="M60.7013 24.2694H61.7087V25.9371H60.7013V24.2694Z" fill="white"/>
<path fill-rule="evenodd" clip-rule="evenodd" d="M54.6623 26.8759H55.6698V28.5435H54.6623V26.8759Z" fill="white"/>
<path fill-rule="evenodd" clip-rule="evenodd" d="M59.3488 27.0415H60.3562V28.7092H59.3488V27.0415Z" fill="white"/>
<path fill-rule="evenodd" clip-rule="evenodd" d="M56.1484 29.3829H57.1503V31.0505H56.1484V29.3829Z" fill="white"/>
<path fill-rule="evenodd" clip-rule="evenodd" d="M57.7347 29.3829H58.7366V31.0505H57.7347V29.3829Z" fill="white"/>
<path fill-rule="evenodd" clip-rule="evenodd" d="M60.7013 29.3829H61.7087V31.0505H60.7013V29.3829Z" fill="white"/>
<path fill-rule="evenodd" clip-rule="evenodd" d="M54.6623 32.0555H55.6698V33.7287H54.6623V32.0555Z" fill="white"/>
<path fill-rule="evenodd" clip-rule="evenodd" d="M59.2152 32.0555H60.2226V33.7287H59.2152V32.0555Z" fill="white"/>
<path fill-rule="evenodd" clip-rule="evenodd" d="M60.7013 34.4687H61.7087V36.1364H60.7013V34.4687Z" fill="white"/>
<path fill-rule="evenodd" clip-rule="evenodd" d="M67.4805 23.6951H72.2616V23.9989H67.4805V23.6951Z" fill="white"/>
<path fill-rule="evenodd" clip-rule="evenodd" d="M67.4805 22.657H72.2616V22.9607H67.4805V22.657Z" fill="white"/>
<path fill-rule="evenodd" clip-rule="evenodd" d="M67.4805 25.7714H72.2616V26.0696H67.4805V25.7714Z" fill="white"/>
<path fill-rule="evenodd" clip-rule="evenodd" d="M67.4805 24.7333H72.2616V25.0315H67.4805V24.7333Z" fill="white"/>
<path fill-rule="evenodd" clip-rule="evenodd" d="M67.4805 27.8422H72.2616V28.1459H67.4805V27.8422Z" fill="white"/>
<path fill-rule="evenodd" clip-rule="evenodd" d="M67.4805 26.8041H72.2616V27.1078H67.4805V26.8041Z" fill="white"/>
<path fill-rule="evenodd" clip-rule="evenodd" d="M69.7291 21.2047L69.7069 18.2835H70.013L70.0297 21.2047H69.7291Z" fill="white"/>
<path fill-rule="evenodd" clip-rule="evenodd" d="M69.0167 21.2102L69 18.2835H69.3006L69.3228 21.2102H69.0167Z" fill="white"/>
<path fill-rule="evenodd" clip-rule="evenodd" d="M70.436 21.2047L70.4193 18.278H70.7254L70.7421 21.2047H70.436Z" fill="white"/>
<path fill-rule="evenodd" clip-rule="evenodd" d="M80.2931 38.1629L80.2764 23.1153L80.5826 23.1098L80.5993 38.1629H80.2931Z" fill="white"/>
<path fill-rule="evenodd" clip-rule="evenodd" d="M79.5306 38.1795L79.5139 23.1264H79.8145L79.8312 38.174L79.5306 38.1795Z" fill="white"/>
<path fill-rule="evenodd" clip-rule="evenodd" d="M81.0612 38.1519L81.0445 23.1043L81.3451 23.0988L81.3618 38.1519H81.0612Z" fill="white"/>
<path fill-rule="evenodd" clip-rule="evenodd" d="M82.5919 38.1629L82.5752 23.1153L82.8757 23.1098L82.8924 38.1629H82.5919Z" fill="white"/>
<path fill-rule="evenodd" clip-rule="evenodd" d="M81.8237 38.1795L81.8071 23.1264H82.1132L82.1299 38.174L81.8237 38.1795Z" fill="white"/>
<path fill-rule="evenodd" clip-rule="evenodd" d="M83.3599 38.1519L83.3432 23.1043L83.6438 23.0988L83.6605 38.1519H83.3599Z" fill="white"/>
<path fill-rule="evenodd" clip-rule="evenodd" d="M66.1225 45.187L66.1002 30.1394L66.4508 30.1339L66.4731 45.187H66.1225Z" fill="white"/>
<path fill-rule="evenodd" clip-rule="evenodd" d="M65.0872 45.198L65.0649 30.1504L65.4156 30.1449L65.4379 45.198H65.0872Z" fill="white"/>
<path fill-rule="evenodd" clip-rule="evenodd" d="M67.1577 45.1759L67.1354 30.1283L67.4861 30.1228L67.5084 45.1704L67.1577 45.1759Z" fill="white"/>
<path fill-rule="evenodd" clip-rule="evenodd" d="M69.2282 45.187L69.2059 30.1394L69.5566 30.1339L69.5789 45.187H69.2282Z" fill="white"/>
<path fill-rule="evenodd" clip-rule="evenodd" d="M68.193 45.198L68.1707 30.1504L68.5213 30.1449L68.5436 45.198H68.193Z" fill="white"/>
<path fill-rule="evenodd" clip-rule="evenodd" d="M70.2635 45.1759L70.2412 30.1283L70.5918 30.1228L70.6141 45.1704L70.2635 45.1759Z" fill="white"/>
<path fill-rule="evenodd" clip-rule="evenodd" d="M72.334 45.187L72.3117 30.1394L72.6623 30.1339L72.6846 45.187H72.334Z" fill="white"/>
<path fill-rule="evenodd" clip-rule="evenodd" d="M71.2987 45.198L71.2764 30.1504L71.6271 30.1449L71.6494 45.198H71.2987Z" fill="white"/>
<path fill-rule="evenodd" clip-rule="evenodd" d="M74.4045 45.1759L74.3878 30.1283L74.7384 30.1228L74.7551 45.1704L74.4045 45.1759Z" fill="white"/>
<path fill-rule="evenodd" clip-rule="evenodd" d="M73.3692 45.198L73.347 30.1504L73.7032 30.1449L73.7199 45.198H73.3692Z" fill="white"/>
<path fill-rule="evenodd" clip-rule="evenodd" d="M14.2542 79.9373C13.0408 81.0251 11.5659 81.7927 9.77922 82.0301C8.42672 82.2069 7.07978 82.0191 5.84972 81.4227C0.0779218 78.6175 -0.267162 68.087 0.105751 62.5318C0.517625 56.325 2.74954 45.7116 10.3636 44.8943C11.6827 44.7507 12.9852 44.9551 14.1818 45.5349C15.6345 46.2472 16.7532 47.44 17.5993 48.9199C21.6512 47.9259 27.4007 46.0871 30.9907 48.7045C31.0631 48.7542 31.1299 48.8039 31.1967 48.8592C31.4638 48.5057 31.7811 48.1523 32.1429 47.7934C33.9629 46.0098 36.3618 44.7894 38.9221 44.5299C41.0705 44.309 43.3247 44.806 44.9499 46.2307C45.718 44.2924 46.7421 42.4536 48.0557 40.7473C50.9722 36.9426 54.3006 35.424 59.0037 34.7282L62.6883 34.1871L62.5881 39.549L66.0278 38.8421L66.0668 36.7769L67.1076 35.8658C67.8924 35.1755 68.7718 34.6288 69.6234 34.0269C70.5584 33.3698 71.3544 32.6685 72.4007 32.1605L77.0371 29.913L76.9091 36.6002L78.3284 36.3241L83.9165 35.1092C85.6197 34.6067 88.1354 34.1871 89.3488 34.0214L93 33.5189L92.4044 66.4966C92.3655 68.6392 91.6586 70.5719 90.2171 72.1788C89.1262 73.3992 87.1558 74.6251 85.5696 75.0724L81.551 76.2099V66.6126C80.4991 66.5629 79.4916 66.3641 78.6011 65.9941C76.5139 67.6673 73.898 68.5011 71.0872 67.8385C70.7978 67.7722 70.5195 67.6949 70.2579 67.6065L70.2245 69.3018L59.5046 71.4996C58.308 71.9137 56.9332 72.2561 55.8312 72.4107C53.4211 72.7531 50.961 71.98 48.9796 70.6271C46.7477 69.103 45.2672 66.8114 44.3599 64.2105C44.1373 64.5308 43.9035 64.851 43.6531 65.1713C43.3859 65.5137 43.1354 65.7235 42.8516 66.0162C42.679 66.1929 42.4954 66.3751 42.295 66.5518C42.8905 66.9549 43.4137 67.4574 43.9369 67.9489L45.9907 69.8706L44.2876 72.107C42.0278 75.0779 38.577 76.9278 34.7644 76.0277C34.692 76.0111 34.6252 75.9945 34.5529 75.978L34.5362 76.7952L26.5046 78.5126V78.5292L24.3896 78.9654L22.7421 79.3188V79.3078L14.2375 81.0638L14.2542 79.9373Z" fill="white"/>
<path fill-rule="evenodd" clip-rule="evenodd" d="M8.43229 68.4348C8.43785 64.9504 8.41559 54.7567 9.37848 51.6147C9.718 50.5102 10.475 49.577 11.0816 51.1011C12.1336 53.7517 11.3989 70.5277 11.0649 73.1783C10.898 74.4704 10.7477 76.602 9.30613 76.5412C8.19852 74.8128 8.43229 70.9087 8.43229 68.4348ZM61.603 45.2643C61.4583 52.3877 61.3024 60.842 61.1633 67.971L67.1132 66.7506L67.1577 64.4479L65.7551 64.713L66.1948 42.0063L60.2449 43.2267L60.2004 45.5293L61.603 45.2643ZM76.1521 42.2272L76.1855 39.9355L73.6809 40.4214L73.7867 34.9767C73.0186 35.3467 72.1559 36.0866 71.4434 36.5891C70.7533 37.0696 69.8293 37.6604 69.1892 38.2181L69.1336 41.3602L67.2969 41.8737L67.2579 44.0494L69.0724 43.7236C69.039 45.9711 68.5714 61.1512 68.7718 61.9851C68.9944 62.725 69.3562 64.2215 71.8163 64.7958C74.8553 65.5081 77.0148 63.4539 78.0946 62.0348C77.7328 61.6979 76.9981 60.969 76.5362 60.7813C76.2022 61.2838 74.8776 63.1337 73.6586 62.1839C73.3191 61.9188 73.2301 61.0021 73.2579 61.0187L73.6419 42.7407L76.1521 42.2272ZM59.4546 37.8261C54.8015 38.5108 52.564 40.0183 50.5547 42.6413C48.6067 45.187 47.1596 48.3346 46.564 52.3325C45.7904 57.5122 46.3915 65.0719 50.7607 68.0593C51.8738 68.8159 53.5881 69.5724 55.3803 69.3239C56.4546 69.1748 58.3469 68.6557 59.3544 68.2084L59.3989 65.8119C57.6902 66.5794 55.3803 67.6673 53.6939 66.0824C49.4638 62.1231 50.1373 41.7136 57.128 40.6092L57.0668 43.6629C57.7848 43.569 58.7811 43.4696 59.3599 43.1273L59.4546 37.8261ZM37.0742 64.0117C36.8961 62.0734 37.2412 55.0218 37.2802 52.1337C37.3024 50.6759 37.6141 49.8145 39.2059 50.2341C39.5121 51.195 39.2839 56.7226 39.1893 58.1141C39.0111 60.6211 38.5325 62.2501 37.0742 64.0117ZM36.9963 66.1432C38.2208 65.7898 39.7458 64.7185 40.564 63.8626C44.1317 60.334 44.2041 54.6021 43.7199 49.8697C42.7403 46.9485 37.7254 46.7221 34.3525 50.0188C32.2653 52.0619 32.7106 54.1769 32.6382 57.5674C32.5714 60.6211 32.5158 63.6638 32.4546 66.712C32.3822 70.0749 32.3878 72.2671 35.4879 72.9905C38.5269 73.7029 40.6865 71.6487 41.7662 70.2295C41.4045 69.8927 40.6698 69.1637 40.2078 68.976C39.8738 69.4785 38.5492 71.3284 37.3302 70.3786C36.6345 69.8374 36.9796 67.1758 36.9963 66.1432ZM23.3878 75.989C23.5158 68.8269 23.7829 61.2341 23.8275 54.1161C23.833 53.3762 23.6883 53.2326 24.3117 53.0559C24.7848 52.9179 25.2857 52.9344 25.6865 53.0449C26.0538 54.0941 25.6753 62.4489 25.6364 64.3319C25.5974 66.1045 25.3247 74.5091 25.4527 75.5528L31.4304 74.2716L31.4805 72.0407L30.0501 72.3058C30.1336 66.3806 30.2783 60.4499 30.4119 54.5303C30.4508 52.7301 30.1892 52.0178 29.115 51.2336C26.7217 49.4887 21.1781 51.2944 17.9555 52.0619L17.911 54.326L19.18 54.0996L18.7737 74.6416L17.4824 74.9177L17.4434 77.2204L23.3878 75.989ZM85.1744 40.3773L84.757 60.7978C84.1559 61.0905 83.41 61.1844 82.8145 61.0298C82.2189 59.5001 83.2319 42.0725 83.0538 38.5108L77.0594 39.8085L77.026 42.067L78.4453 41.7964C78.4063 44.7176 77.8831 59.4781 78.167 61.0132C78.8516 64.0503 82.2635 63.6086 84.7124 63.2496V72.0683C85.898 71.7315 87.3173 70.721 87.8627 70.108C88.6364 69.2411 89.2208 68.0925 89.2542 66.4524L89.7829 37.1303C88.8089 37.2628 84.7848 37.9973 84.1447 38.3507L84.1002 40.5595L85.1744 40.3773ZM16.8145 64.0614C17.193 58.8817 16.6531 47.3571 10.6976 47.9977C5.577 48.5444 3.62338 57.0981 3.25047 62.7306C2.90538 67.9102 3.34509 79.7054 9.36735 78.9212C12.2505 78.5457 13.9202 75.735 14.911 73.2722C16.0798 70.3841 16.5696 67.4409 16.8145 64.0614Z" fill="#D90429"/>
<path d="M10.9703 85.1501V81.5497L8.94991 81.9694L8.87755 83.996C8.85529 84.6531 8.71057 85.3103 8.40445 85.6802L8.15955 85.7299V86.989L8.7551 86.8675V86.1717L10.7532 85.7575V86.4533L11.3488 86.3318V85.0728L10.9703 85.1501ZM10.3692 85.2771L9.12801 85.5367C9.32838 85.1446 9.43414 84.6421 9.4564 84.0457L9.51762 82.4222L10.3692 82.2455V85.2771ZM13.3581 84.2334C13.3024 84.5813 13.1521 84.7691 12.8015 84.8409C12.4842 84.9071 12.3006 84.747 12.3006 84.3218V84.0844L13.9035 83.753V83.0573C13.9035 82.3118 13.4805 81.9805 12.8015 82.124C12.1336 82.2621 11.7217 82.7701 11.7217 83.5156V84.4488C11.7217 85.1998 12.1336 85.5422 12.7959 85.4041C13.4805 85.2606 13.8924 84.7967 13.9481 84.1175L13.3581 84.2334ZM12.8015 82.6652C13.1299 82.5989 13.3247 82.748 13.3247 83.1732V83.4383L12.3006 83.6536V83.3886C12.295 82.9579 12.4842 82.7315 12.8015 82.6652ZM14.1596 85.0894C14.7829 84.9568 15.0835 84.4764 15.1614 83.5819C15.1948 83.2119 15.2338 82.5879 15.2393 82.2179L15.9462 82.0688V84.6752L16.5195 84.5537V81.4172L14.6772 81.8037C14.666 82.4112 14.6215 83.1456 14.5881 83.6095C14.538 84.1175 14.4768 84.4709 14.154 84.5372V85.0894H14.1596ZM18.2171 80.992C17.5826 81.1245 17.1763 81.5773 17.1429 82.1848L17.7217 82.0633C17.7495 81.7761 17.9443 81.5994 18.2004 81.5442C18.5176 81.4779 18.6568 81.6546 18.6568 82.0246V82.2455L18.1948 82.3394C17.4991 82.483 17.0482 82.9082 17.0482 83.5487C17.0482 84.1396 17.4378 84.4378 18.0223 84.3163C18.3673 84.2445 18.5955 84.0347 18.7236 83.8027L18.7681 84.0844L19.2412 83.985V81.9031C19.2468 81.1853 18.8961 80.8484 18.2171 80.992ZM18.6623 83.1787C18.6623 83.4769 18.462 83.7199 18.1447 83.7862C17.8275 83.8524 17.6438 83.7199 17.6438 83.4328C17.6438 83.1235 17.8497 82.9192 18.2004 82.8474L18.6623 82.7535V83.1787ZM21.5121 82.5327C21.4564 82.8806 21.3061 83.0683 20.9555 83.1401C20.6382 83.2063 20.4545 83.0462 20.4545 82.621V82.3836L22.0575 82.0522V81.3565C22.0575 80.611 21.6345 80.2797 20.9555 80.4232C20.2876 80.5613 19.8757 81.0693 19.8757 81.8148V82.748C19.8757 83.499 20.2876 83.8414 20.9499 83.7033C21.6345 83.5598 22.0464 83.0959 22.102 82.4167L21.5121 82.5327ZM20.9555 80.9644C21.2839 80.8981 21.4787 81.0472 21.4787 81.4724V81.7375L20.4545 81.9528V81.6878C20.449 81.2571 20.6327 81.0307 20.9555 80.9644ZM24.7124 79.7164L24.2282 80.9478C24.1447 81.1853 24.0612 81.4117 23.9889 81.6546L23.9722 81.6602C23.9054 81.4503 23.8219 81.2571 23.7328 81.0583L23.2486 80.0312L22.6698 80.1526V83.2892L23.2096 83.1787V81.9363C23.2096 81.6105 23.1874 81.2957 23.1763 81.0196L23.2041 81.0086C23.2931 81.2626 23.3766 81.5276 23.4601 81.7375L23.7161 82.2897L24.2505 82.1793L24.5065 81.5166C24.59 81.2681 24.679 80.9699 24.7625 80.6773H24.7904C24.7792 80.9534 24.757 81.2792 24.757 81.605V82.8474L25.2968 82.737V79.6004L24.7124 79.7164ZM28.2801 82.1682C28.9536 82.0302 29.3711 81.5221 29.3878 80.7877L28.8089 80.9092C28.7922 81.3123 28.6085 81.5442 28.2857 81.6105C27.9796 81.6767 27.8015 81.5166 27.8015 81.119V80.1306C27.8015 79.733 27.9796 79.5066 28.2857 79.4403C28.603 79.374 28.7755 79.5287 28.7866 79.9263L29.3766 79.8048C29.3544 79.0814 28.9647 78.75 28.2801 78.8936C27.6234 79.0317 27.2115 79.5342 27.2115 80.2576V81.246C27.2115 81.9749 27.6178 82.3063 28.2801 82.1682ZM31.4917 79.7661C31.7143 79.5784 31.8367 79.3188 31.8367 79.0924C31.8367 78.5513 31.4916 78.2972 30.846 78.4298L29.8998 78.6286V81.7651L30.8961 81.5553C31.6308 81.4006 31.9981 80.981 31.9981 80.4177C32.0037 80.1085 31.8479 79.8324 31.4917 79.7661ZM30.4675 78.993L30.8126 78.9212C31.1132 78.8605 31.269 78.982 31.269 79.2249C31.269 79.4845 31.1132 79.6612 30.8182 79.7219L30.462 79.7937V78.993H30.4675ZM30.9239 81.0638L30.4675 81.1577V80.2852L30.9239 80.1913C31.2635 80.1195 31.4249 80.2355 31.4249 80.5226C31.4249 80.8098 31.2635 80.992 30.9239 81.0638ZM33.3506 77.9107C32.7217 78.0432 32.2876 78.5181 32.2876 79.1532C32.2876 79.6667 32.5325 79.9428 32.8553 80.0036L32.1818 81.2847L32.8386 81.1466L33.4063 79.9704L33.7458 79.8986V80.9589L34.308 80.8429V77.7064L33.3506 77.9107ZM33.757 79.4072L33.3618 79.49C33.0278 79.5618 32.8609 79.4072 32.8609 79.0538C32.8609 78.728 33.039 78.5016 33.3785 78.4298L33.7625 78.3525V79.4072H33.757ZM36.5232 78.7335C36.7069 78.5954 36.8961 78.3525 36.8961 78.0156C36.8961 77.4855 36.4898 77.2039 35.8664 77.3309C35.2208 77.4634 34.8479 77.9107 34.8089 78.5568L35.3711 78.4408C35.3933 78.1095 35.5547 77.9217 35.872 77.8555C36.167 77.7947 36.3284 77.9273 36.3284 78.1758C36.3284 78.4519 36.1558 78.6341 35.8664 78.6948L35.4824 78.7777V79.2249L35.8831 79.1421C36.2226 79.0703 36.4174 79.1918 36.4174 79.4569C36.4174 79.7772 36.2115 79.9925 35.8775 80.0643C35.5213 80.1361 35.3265 80.0036 35.3043 79.733L34.7477 79.8489C34.7755 80.4398 35.1929 80.7435 35.8831 80.5999C36.5566 80.4619 36.9907 79.9815 36.9907 79.3685C36.9907 79.0096 36.7681 78.7942 36.5232 78.7335ZM38.577 77.8776L38.0816 77.9825V76.9222L37.5028 77.0437V80.1803L38.5826 79.9539C39.1837 79.8268 39.6234 79.3133 39.6234 78.6893C39.6234 78.0764 39.1781 77.7561 38.577 77.8776ZM38.5213 79.4458L38.0816 79.5397V78.5126L38.5213 78.4187C38.8275 78.3525 39.039 78.5016 39.039 78.8163C39.0334 79.1366 38.8219 79.3796 38.5213 79.4458ZM40.9814 80.1526L41.538 80.0367V79.3409L43.2022 78.993V79.6888L43.7588 79.5728V78.3469L43.397 78.4243V75.8178L41.5603 76.1989C41.5492 76.7014 41.5269 77.2094 41.4935 77.7174C41.4657 78.1647 41.3878 78.5899 41.2096 78.8771L40.9703 78.9268V80.1526H40.9814ZM41.8831 78.739C41.9777 78.4684 42.039 78.1371 42.0668 77.7285C42.0946 77.353 42.1113 76.983 42.1169 76.613L42.8293 76.4639V78.5402L41.8831 78.739ZM45.2226 78.6396C45.9128 78.496 46.3358 77.9825 46.3358 77.2149V76.3093C46.3358 75.5417 45.9128 75.2104 45.2226 75.354C44.538 75.4976 44.115 76.0056 44.115 76.7732V77.6788C44.1095 78.4519 44.538 78.7832 45.2226 78.6396ZM45.2226 78.0819C44.8998 78.1481 44.6994 77.9991 44.6994 77.5628V76.6572C44.6994 76.2154 44.8998 75.9835 45.2226 75.9172C45.551 75.851 45.7514 76.0001 45.7514 76.4363V77.3419C45.7458 77.7837 45.551 78.0156 45.2226 78.0819ZM47.9555 78.0653C48.6289 77.9273 49.0464 77.4192 49.0631 76.6848L48.4842 76.8063C48.4675 77.2094 48.2839 77.4413 47.961 77.5076C47.6549 77.5739 47.4768 77.4137 47.4768 77.0161V76.0277C47.4768 75.6301 47.6549 75.4037 47.961 75.3374C48.2783 75.2711 48.4508 75.4258 48.462 75.8234L49.0519 75.7019C49.0297 74.9785 48.6401 74.6472 47.9555 74.7907C47.2987 74.9288 46.8868 75.4313 46.8868 76.1547V77.1431C46.8868 77.872 47.2931 78.2034 47.9555 78.0653ZM51.3117 74.1667L49.2913 74.5864V75.1276L50.0093 74.9785V77.5738L50.5826 77.4524V74.857L51.3061 74.7079V74.1667H51.3117ZM53.282 73.7526L52.692 75.862L52.0408 74.0121L51.4286 74.1391L52.4471 76.7345L52.308 77.2315C52.2301 77.5021 52.1521 77.6898 51.9072 77.745L51.7069 77.7837V78.3414L52.0186 78.2752C52.4916 78.1758 52.7143 77.7561 52.8646 77.2149L53.8775 73.6256L53.282 73.7526ZM56.2987 73.1231L54.256 73.5483V76.6848L54.8349 76.5633V73.9569L55.7143 73.7747V76.3811L56.2931 76.2596V73.1231H56.2987ZM58.4583 72.6758V73.9348L57.5788 74.117V72.858L57 72.9795V76.116L57.5788 75.9945V74.6582L58.4583 74.476V75.8123L59.0371 75.6908V72.5543L58.4583 72.6758ZM60.7737 75.3982C61.4638 75.2546 61.8868 74.741 61.8868 73.9735V73.0679C61.8868 72.3003 61.4638 71.969 60.7737 72.1125C60.0891 72.2561 59.666 72.7641 59.666 73.5317V74.4373C59.6605 75.2049 60.0891 75.5417 60.7737 75.3982ZM60.7737 74.8404C60.4508 74.9067 60.2505 74.7576 60.2505 74.3214V73.4157C60.2505 72.974 60.4508 72.7421 60.7737 72.6758C61.102 72.6095 61.3024 72.7586 61.3024 73.1949V74.1005C61.2968 74.5367 61.102 74.7686 60.7737 74.8404ZM63.5733 71.1186C63.9852 71.0302 64.2746 70.7155 64.2913 70.2571L63.8794 70.3455C63.8683 70.5553 63.7514 70.6878 63.5677 70.7265C63.3896 70.7652 63.2727 70.6823 63.2616 70.4725L62.8497 70.5608C62.8664 71.0026 63.1503 71.2069 63.5733 71.1186ZM62.5102 74.9619L63.1058 74.8404L63.7124 73.4599C63.8404 73.1672 64.0352 72.5598 64.0686 72.4218H64.0853C64.0686 72.742 64.0575 73.1341 64.0575 73.4378V74.6416L64.6197 74.5257V71.3891L64.0241 71.5106L63.4119 72.9519C63.3117 73.228 63.128 73.736 63.0835 73.9072L63.0668 73.9017C63.0779 73.5593 63.0779 73.2832 63.0779 73.0292V71.7094L62.5158 71.8254V74.9619H62.5102ZM67.5918 73.9679C68.2653 73.8299 68.6827 73.3219 68.6994 72.5874L68.1206 72.7089C68.1039 73.112 67.9202 73.344 67.5974 73.4102C67.2913 73.4765 67.1132 73.3163 67.1132 72.9188V71.9303C67.1132 71.5327 67.2913 71.3063 67.5974 71.24C67.9146 71.1738 68.0872 71.3284 68.0983 71.726L68.6883 71.6045C68.666 70.8811 68.2764 70.5498 67.5918 70.6934C66.9351 70.8314 66.5232 71.3339 66.5232 72.0573V73.0458C66.5288 73.7747 66.9351 74.106 67.5918 73.9679ZM71.0872 69.0091L70.308 69.7381V70.3897L70.9369 69.8209V73.1893L71.5158 73.0679V68.9208L71.0872 69.0091ZM73.2356 68.4956C72.6178 68.6226 72.1614 69.1472 72.1614 69.8154V70.478C72.1614 71.0965 72.6011 71.4278 73.1521 71.3118C73.3803 71.2621 73.5863 71.1462 73.7198 70.986V71.6211C73.7198 71.9524 73.5195 72.1733 73.2412 72.234C72.9796 72.2892 72.7959 72.1402 72.7737 71.8254L72.1837 71.9469C72.2171 72.5874 72.6401 72.9188 73.2412 72.7918C73.8646 72.6592 74.3098 72.1457 74.3098 71.4885V69.3736C74.3098 68.6999 73.8534 68.3686 73.2356 68.4956ZM73.2467 70.7541C72.9573 70.8149 72.7514 70.6602 72.7514 70.3234V69.6994C72.7514 69.346 72.9573 69.1141 73.2356 69.0588C73.5195 68.9981 73.7198 69.1472 73.7198 69.5006V70.1191C73.7198 70.4614 73.525 70.6989 73.2467 70.7541ZM75.9017 67.9379C75.2839 68.0649 74.8275 68.5895 74.8275 69.2576V69.9203C74.8275 70.5388 75.2672 70.8701 75.8182 70.7541C76.0464 70.7044 76.2523 70.5884 76.3859 70.4283V71.0633C76.3859 71.3947 76.1855 71.6156 75.9072 71.6763C75.6456 71.7315 75.462 71.5824 75.4397 71.2677L74.8497 71.3891C74.8831 72.0297 75.3061 72.361 75.9072 72.234C76.5306 72.1015 76.9759 71.5879 76.9759 70.9308V68.8159C76.9759 68.1422 76.5195 67.8109 75.9017 67.9379ZM75.9184 70.1964C75.6289 70.2571 75.423 70.1025 75.423 69.7657V69.1417C75.423 68.7883 75.6289 68.5563 75.9072 68.5011C76.1911 68.4404 76.3915 68.5895 76.3915 68.9429V69.5613C76.3915 69.9037 76.1911 70.1412 75.9184 70.1964ZM79.3191 69.2852C79.564 69.0368 79.7143 68.6944 79.7143 68.3465V68.2526C79.7143 67.5734 79.308 67.231 78.6568 67.3691C78.0111 67.5016 77.5993 68.0152 77.5993 68.6944V68.7883C77.5993 69.1417 77.7495 69.4233 77.9889 69.5613C77.6994 69.7988 77.5269 70.1743 77.5269 70.5719V70.7155C77.5269 71.4554 77.9666 71.8033 78.6568 71.6597C79.3469 71.5162 79.7811 70.986 79.7811 70.2461V70.1025C79.7866 69.7049 79.6141 69.4012 79.3191 69.2852ZM78.1781 68.5895C78.1781 68.214 78.3562 67.9876 78.6623 67.9213C78.9685 67.855 79.1466 68.0096 79.1466 68.3851V68.4735C79.1466 68.8656 78.9685 69.1141 78.6623 69.1748C78.3562 69.2411 78.1781 69.0699 78.1781 68.6778V68.5895ZM79.2134 70.3676C79.2134 70.7707 79.0074 71.0247 78.6623 71.0965C78.3173 71.1683 78.1113 71.0026 78.1113 70.5995V70.4559C78.1113 70.0528 78.3173 69.7933 78.6623 69.7215C79.0074 69.6497 79.2134 69.8209 79.2134 70.224V70.3676ZM83.3265 67.4795L81.6846 67.8219V70.9639L82.2746 70.8425V68.2526L83.3321 68.0317V67.4795H83.3265Z" fill="#3259B3"/>
</g>
<defs>
<clipPath id="clip0_63_4295">
<rect width="93" height="87" fill="white"/>
</clipPath>
</defs>
</svg>
